<?xml version="1.0" standalone="no"?>
<!DOCTYPE svg PUBLIC "-//W3C//DTD SVG 1.1//EN" "http://www.w3.org/Graphics/SVG/1.1/DTD/svg11.dtd" >
<svg>
<metadata>
Created by FontForge 20090622 at Wed Aug 28 15:03:51 2019
 By deploy user
Copyright &#194;&#169; 2017 by Timo Gaessner. All rights reserved.
</metadata>
<defs>
<font id="MaisonNeue-Demi" horiz-adv-x="650" >
  <font-face 
    font-family="Maison Neue Demi"
    font-weight="600"
    font-stretch="normal"
    units-per-em="1000"
    panose-1="2 11 7 4 4 0 0 0 0 0"
    ascent="755"
    descent="-245"
    x-height="530"
    cap-height="700"
    bbox="-653 -300 2086 1044"
    underline-thickness="100"
    underline-position="-20"
    unicode-range="U+000D-U+FEFF"
  />
<missing-glyph horiz-adv-x="694" 
d="M55 -5v423q0 128 84.5 210t207.5 82q124 0 209 -82t85 -210v-423h-28l-65 65l-68 -65l-63 65l-71 -65l-69 65l-63 -65l-67 65l-66 -65h-26zM155 300l63 63l64 -63l14 14l-64 63l64 64l-14 14l-64 -64l-63 64l-14 -14l63 -64l-63 -63zM415 300l63 63l64 -63l14 14l-64 63
l64 64l-14 14l-64 -64l-63 64l-14 -14l63 -64l-63 -63z" />
    <glyph glyph-name="fi" unicode="fi" horiz-adv-x="593" 
d="M537 739v-117h-122v117h122zM539 530v-530h-120v423h-190v-423h-120v423h-99v107h99v55q0 64 38.5 100.5t109.5 36.5h92v-108h-78q-42 0 -42 -41v-43h310z" />
    <glyph glyph-name="fl" unicode="fl" horiz-adv-x="594" 
d="M419 730h120v-730h-120v423h-190v-423h-120v423h-99v107h99v55q0 64 38.5 100.5t109.5 36.5h92v-108h-78q-42 0 -42 -41v-43h190v200z" />
    <glyph glyph-name="W_W_W" unicode="WWW" horiz-adv-x="2099" 
d="M156 0l-143 700h129l97 -499h3l142 499h118l142 -499h2l143 499h117l143 -499h2l143 499h117l143 -499h2l142 499h118l142 -499h2l98 499h128l-142 -700h-137l-149 511h-2l-149 -511h-105l-149 511h-2l-148 -511h-106l-148 511h-2l-149 -511h-105l-149 511h-2l-149 -511
h-137z" />
    <glyph glyph-name="w_w_w" unicode="www" horiz-adv-x="1836" 
d="M140 0l-122 530h119l77 -364h2l122 364h106l122 -364h2l122 364h105l122 -364h2l122 364h105l122 -364h2l122 364h106l122 -364h2l77 364h119l-122 -530h-118l-132 388h-2l-132 -388h-85l-132 388h-2l-132 -388h-86l-132 388h-2l-132 -388h-85l-132 388h-2l-132 -388
h-118z" />
    <glyph glyph-name=".notdef" horiz-adv-x="694" 
d="M55 -5v423q0 128 84.5 210t207.5 82q124 0 209 -82t85 -210v-423h-28l-65 65l-68 -65l-63 65l-71 -65l-69 65l-63 -65l-67 65l-66 -65h-26zM155 300l63 63l64 -63l14 14l-64 63l64 64l-14 14l-64 -64l-63 64l-14 -14l63 -64l-63 -63zM415 300l63 63l64 -63l14 14l-64 63
l64 64l-14 14l-64 -64l-63 64l-14 -14l63 -64l-63 -63z" />
    <glyph glyph-name=".null" horiz-adv-x="0" 
 />
    <glyph glyph-name="nonmarkingreturn" horiz-adv-x="333" 
 />
    <glyph glyph-name="CR" unicode="&#xd;" horiz-adv-x="333" 
 />
    <glyph glyph-name="space" unicode=" " horiz-adv-x="260" 
 />
    <glyph glyph-name="exclam" unicode="!" horiz-adv-x="395" 
d="M135 228v472h125v-472h-125zM125 0v141h145v-141h-145z" />
    <glyph glyph-name="quotedbl" unicode="&#x22;" horiz-adv-x="424" 
d="M83 459v241h99v-241h-99zM242 459v241h99v-241h-99z" />
    <glyph glyph-name="numbersign" unicode="#" horiz-adv-x="823" 
d="M751 432h-146l-28 -158h147l-18 -105h-148l-30 -169h-117l30 169h-124l-30 -169h-117l30 169h-147l19 105h147l28 158h-149l19 104h148l29 164h117l-29 -164h124l29 164h117l-29 -164h147zM460 274l28 158h-124l-28 -158h124z" />
    <glyph glyph-name="dollar" unicode="$" horiz-adv-x="651" 
d="M616 184q0 -86 -70.5 -141t-186.5 -58v-95h-60v97q-114 11 -182 72t-82 172l122 24q13 -73 47 -110t95 -46v216q-44 13 -70.5 22t-63 27t-56.5 38t-35 50.5t-15 68.5q0 84 67.5 137.5t172.5 56.5v86h60v-89q97 -11 158.5 -65t76.5 -137l-122 -25q-28 96 -113 114v-182
q57 -17 93 -31.5t78.5 -41.5t64 -67t21.5 -93zM181 523q0 -30 30 -50t88 -38v169q-53 -2 -85.5 -23.5t-32.5 -57.5zM359 96q65 2 99.5 25t34.5 62q0 42 -34.5 67t-99.5 46v-200z" />
    <glyph glyph-name="percent" unicode="%" horiz-adv-x="1042" 
d="M321 -83l-90 51l494 815l90 -53zM235 271q-84 0 -133 59t-49 160t49 160t133 59q85 0 134 -59t49 -160t-49 -160t-134 -59zM235 364q82 0 82 126t-82 126q-39 0 -60 -32.5t-21 -93.5t21 -93.5t60 -32.5zM806 -9q-84 0 -133 59t-49 160t49 160t133 59q85 0 134 -59
t49 -160t-49 -160t-134 -59zM806 84q40 0 61 32.5t21 93.5t-21 93.5t-61 32.5q-39 0 -60 -32.5t-21 -93.5t21 -93.5t60 -32.5z" />
    <glyph glyph-name="ampersand" unicode="&#x26;" horiz-adv-x="687" 
d="M669 121l-72 -86l-60 51q-67 -101 -232 -101q-118 0 -185 54.5t-67 151.5q0 120 130 200q-77 73 -77 150q0 76 56 125t143 49t142 -45.5t65 -125.5l-118 -17q-13 76 -88 76q-37 0 -58.5 -17.5t-21.5 -48.5q0 -37 52 -82l186 -159v117h113v-213zM305 97q107 0 142 67
l-183 157q-91 -49 -91 -120q0 -49 35 -76.5t97 -27.5z" />
    <glyph glyph-name="quotesingle" unicode="'" horiz-adv-x="265" 
d="M83 459v241h99v-241h-99z" />
    <glyph glyph-name="parenleft" unicode="(" horiz-adv-x="373" 
d="M285 -197q-202 223 -202 492t202 492l74 -58q-85 -107 -123.5 -209.5t-38.5 -224.5t38.5 -224.5t123.5 -209.5z" />
    <glyph glyph-name="parenright" unicode=")" horiz-adv-x="373" 
d="M88 -197l-74 58q85 107 123.5 209.5t38.5 224.5t-38.5 224.5t-123.5 209.5l74 58q202 -223 202 -492t-202 -492z" />
    <glyph glyph-name="asterisk" unicode="*" horiz-adv-x="499" 
d="M148 322l-68 59l90 106l-117 67l45 77l107 -62v131h89v-131l107 62l44 -77l-116 -67l89 -106l-67 -59l-101 122z" />
    <glyph glyph-name="plus" unicode="+" horiz-adv-x="603" 
d="M549 414v-98h-195v-211h-104v211h-197v98h197v210h104v-210h195z" />
    <glyph glyph-name="comma" unicode="," horiz-adv-x="316" 
d="M89 -133v64q28 7 39.5 23t11.5 46h-57v136h150v-120q0 -134 -144 -149z" />
    <glyph glyph-name="hyphen" unicode="-" horiz-adv-x="358" 
d="M43 239v111h271v-111h-271z" />
    <glyph glyph-name="period" unicode="." horiz-adv-x="312" 
d="M83 0v141h145v-141h-145z" />
    <glyph glyph-name="slash" unicode="/" horiz-adv-x="456" 
d="M85 -48l-77 33l363 765l76 -35z" />
    <glyph glyph-name="zero" unicode="0" horiz-adv-x="644" 
d="M322 -15q-128 0 -207.5 95t-79.5 256q0 162 79 256.5t208 94.5t208 -94.5t79 -256.5q0 -161 -79.5 -256t-207.5 -95zM322 96q79 0 123 61.5t44 178.5t-44 178.5t-123 61.5t-123 -61.5t-44 -178.5t44 -178.5t123 -61.5z" />
    <glyph glyph-name="one" unicode="1" horiz-adv-x="401" 
d="M191 0v540l-163 -98v127l172 103h111v-672h-120z" />
    <glyph glyph-name="two" unicode="2" horiz-adv-x="605" 
d="M207 170q-12 -17 -13 -60h355v-110h-490v87q0 87 38 137q40 55 172 115q96 44 131.5 75t35.5 72t-32.5 65.5t-87.5 24.5q-66 0 -104.5 -35t-44.5 -102l-119 9q8 111 79.5 175t188.5 64q105 0 172.5 -57t67.5 -144q0 -73 -47 -125.5t-153 -101.5q-85 -39 -112 -55t-37 -34
z" />
    <glyph glyph-name="three" unicode="3" horiz-adv-x="605" 
d="M313 -15q-118 0 -190 63t-85 176l117 21q11 -77 48.5 -113t109.5 -36q57 0 90 27.5t33 75.5q0 103 -130 103h-63v97h55q54 0 87 24t33 63q0 41 -30 66t-82 25q-57 0 -93 -28t-44 -78l-117 20q14 89 82.5 142.5t171.5 53.5t167.5 -52t64.5 -135q0 -45 -23.5 -80.5
t-64.5 -55.5v-2q49 -21 78 -66.5t29 -104.5q0 -89 -68 -147.5t-176 -58.5z" />
    <glyph glyph-name="four" unicode="4" horiz-adv-x="583" 
d="M354 0v126h-347v110l279 436h188v-436h86v-110h-86v-126h-120zM128 236h226v349h-2z" />
    <glyph glyph-name="five" unicode="5" horiz-adv-x="597" 
d="M305 -15q-104 0 -176.5 49.5t-95.5 140.5l115 36q31 -115 157 -115q64 0 104 35.5t40 92.5t-40 93t-104 36q-84 0 -147 -60l-110 29l66 350h388v-110h-297l-28 -149l2 -1q62 40 143 40q108 0 177.5 -65t69.5 -164q0 -106 -73.5 -172t-190.5 -66z" />
    <glyph glyph-name="six" unicode="6" horiz-adv-x="613" 
d="M347 447q105 0 173 -64.5t68 -164.5q0 -104 -72 -168.5t-183 -64.5q-140 0 -219 92t-79 253q0 158 82.5 257.5t213.5 99.5q94 0 160 -47t86 -129l-115 -30q-29 95 -129 95q-70 0 -116.5 -54t-54.5 -150h1q60 75 184 75zM332 96q59 0 97.5 33t38.5 92q0 58 -39.5 93.5
t-100.5 35.5q-62 0 -102 -35.5t-40 -93.5q0 -56 39 -90.5t107 -34.5z" />
    <glyph glyph-name="seven" unicode="7" horiz-adv-x="519" 
d="M92 0l269 560v2h-349v110h483v-102l-268 -570h-135z" />
    <glyph glyph-name="eight" unicode="8" horiz-adv-x="587" 
d="M294 -15q-124 0 -200 57.5t-76 148.5q0 60 34.5 106.5t91.5 69.5v2q-88 46 -88 134q0 79 66.5 131.5t171.5 52.5q104 0 170.5 -52.5t66.5 -131.5q0 -87 -87 -134v-2q57 -23 91 -69.5t34 -106.5q0 -91 -76 -148.5t-199 -57.5zM294 410q53 0 85 23.5t32 62.5
q0 38 -32.5 62.5t-84.5 24.5t-84.5 -24.5t-32.5 -62.5q0 -39 32 -62.5t85 -23.5zM294 101q68 0 106.5 27t38.5 76q0 47 -39 76t-106 29t-106.5 -29t-39.5 -76q0 -49 38.5 -76t107.5 -27z" />
    <glyph glyph-name="nine" unicode="9" horiz-adv-x="596" 
d="M282 687q130 0 204.5 -84.5t74.5 -236.5q0 -196 -64.5 -288.5t-201.5 -92.5q-91 0 -153.5 46t-86.5 126l114 35q31 -96 126 -96q66 0 100.5 45.5t39.5 142.5h-1q-59 -59 -163 -59q-111 0 -178.5 63t-67.5 166q0 102 72.5 167.5t184.5 65.5zM147 454q0 -58 37 -91t102 -33
q62 0 99.5 33.5t37.5 89.5q0 55 -38 89t-99 34q-64 0 -101.5 -33t-37.5 -89z" />
    <glyph glyph-name="colon" unicode=":" horiz-adv-x="312" 
d="M83 328v141h145v-141h-145zM83 0v141h145v-141h-145z" />
    <glyph glyph-name="semicolon" unicode=";" horiz-adv-x="316" 
d="M86 328v141h145v-141h-145zM89 -133v64q28 7 39.5 23t11.5 46h-57v136h150v-120q0 -134 -144 -149z" />
    <glyph glyph-name="less" unicode="&#x3c;" horiz-adv-x="552" 
d="M442 78l-389 234v77l389 234l57 -89l-311 -183l311 -183z" />
    <glyph glyph-name="equal" unicode="=" horiz-adv-x="562" 
d="M53 397v100h455v-100h-455zM53 203v100h455v-100h-455z" />
    <glyph glyph-name="greater" unicode="&#x3e;" horiz-adv-x="552" 
d="M110 78l-57 90l311 183l-311 183l57 89l389 -234v-77z" />
    <glyph glyph-name="question" unicode="?" horiz-adv-x="616" 
d="M229 212v58q0 46 23 79t75 64q51 30 70.5 53.5t19.5 54.5q0 36 -27.5 57.5t-71.5 21.5q-60 0 -93 -34.5t-38 -98.5l-124 9q3 108 72.5 173.5t182.5 65.5q95 0 159.5 -54.5t64.5 -137.5q0 -55 -29 -95.5t-93 -79.5q-45 -28 -60 -46.5t-15 -46.5v-43h-116zM217 0v141h145
v-141h-145z" />
    <glyph glyph-name="at" unicode="@" horiz-adv-x="793" 
d="M395 -75q-159 0 -250.5 97.5t-91.5 268.5q0 157 98.5 260.5t247.5 103.5q153 0 247 -96.5t94 -250.5q0 -223 -147 -223q-73 0 -98 48h-2q-40 -49 -116 -49q-60 0 -96 30.5t-36 83.5q0 48 28 76.5t91 45.5q55 15 72.5 25.5t17.5 29.5q0 15 -13.5 25t-34.5 10
q-60 0 -72 -63l-88 18q11 60 53.5 94t106.5 34t104 -38.5t40 -106.5v-123q0 -35 10.5 -49t35.5 -14q60 0 60 146q0 123 -69.5 196.5t-187.5 73.5q-113 0 -187.5 -81.5t-74.5 -205.5q0 -138 67.5 -213.5t190.5 -75.5q93 0 176 41l31 -72q-93 -46 -207 -46zM387 167
q30 0 49 16t19 41v64h-2q-5 -15 -68 -36q-44 -15 -44 -46q0 -39 46 -39z" />
    <glyph glyph-name="A" unicode="A" horiz-adv-x="614" 
d="M490 0l-41 120h-284l-41 -120h-126l252 700h115l251 -700h-126zM203 230h208l-103 297h-2z" />
    <glyph glyph-name="B" unicode="B" horiz-adv-x="634" 
d="M75 0v700h292q91 0 148.5 -52t57.5 -134q0 -95 -75 -135v-2q47 -20 74 -63t27 -100q0 -214 -259 -214h-265zM200 415h148q100 0 100 86t-100 86h-148v-172zM200 113h155q62 0 90.5 24.5t28.5 77.5q0 98 -118 98h-156v-200z" />
    <glyph glyph-name="C" unicode="C" horiz-adv-x="640" 
d="M339 -15q-139 0 -221.5 99.5t-82.5 265.5q0 165 83 265t221 100q110 0 185 -68t89 -180l-123 -20q-13 74 -51.5 113.5t-99.5 39.5q-84 0 -131.5 -66.5t-47.5 -183.5t47.5 -183.5t131.5 -66.5q64 0 103 42t49 124l124 -20q-12 -120 -86.5 -190.5t-189.5 -70.5z" />
    <glyph glyph-name="D" unicode="D" horiz-adv-x="648" 
d="M75 0v700h233q140 0 222.5 -94t82.5 -256q0 -167 -82.5 -258.5t-224.5 -91.5h-231zM200 115h105q87 0 135 58.5t48 176.5q0 114 -48 174.5t-133 60.5h-107v-470z" />
    <glyph glyph-name="E" unicode="E" horiz-adv-x="560" 
d="M75 0v700h440v-115h-315v-171h287v-111h-287v-188h315v-115h-440z" />
    <glyph glyph-name="F" unicode="F" horiz-adv-x="553" 
d="M75 0v700h440v-115h-315v-198h292v-111h-292v-276h-125z" />
    <glyph glyph-name="G" unicode="G" horiz-adv-x="646" 
d="M339 -15q-139 0 -221.5 99t-82.5 266q0 166 82.5 265.5t221.5 99.5q108 0 183 -65.5t89 -171.5l-123 -20q-13 68 -51.5 105t-97.5 37q-84 0 -131.5 -66.5t-47.5 -183.5t47.5 -183.5t131.5 -66.5q71 0 111 41.5t40 114.5h-142v106h261v-87q0 -132 -73.5 -211t-196.5 -79z
" />
    <glyph glyph-name="H" unicode="H" horiz-adv-x="657" 
d="M75 0v700h125v-284h257v284h125v-700h-125v302h-257v-302h-125z" />
    <glyph glyph-name="I" unicode="I" horiz-adv-x="275" 
d="M75 0v700h125v-700h-125z" />
    <glyph glyph-name="J" unicode="J" horiz-adv-x="540" 
d="M248 -15q-101 0 -159.5 55.5t-65.5 161.5l120 16q6 -63 30.5 -90.5t74.5 -27.5q97 0 97 129v471h125v-483q0 -106 -62 -169t-160 -63z" />
    <glyph glyph-name="K" unicode="K" horiz-adv-x="627" 
d="M75 0v700h125v-312h2l257 312h147l-257 -309l280 -391h-150l-207 297h-2l-70 -85v-212h-125z" />
    <glyph glyph-name="L" unicode="L" horiz-adv-x="531" 
d="M75 0v700h125v-585h303v-115h-428z" />
    <glyph glyph-name="M" unicode="M" horiz-adv-x="855" 
d="M75 0v700h144l207 -500h2l208 500h144v-700h-123v478h-2l-201 -478h-53l-201 478h-2v-478h-123z" />
    <glyph glyph-name="N" unicode="N" horiz-adv-x="674" 
d="M75 0v700h133l264 -489h2v489h125v-700h-133l-264 489h-2v-489h-125z" />
    <glyph glyph-name="O" unicode="O" horiz-adv-x="677" 
d="M339 -15q-138 0 -221 100t-83 265t83 265t221 100q137 0 220 -100t83 -265t-83 -265t-220 -100zM339 100q83 0 130.5 67t47.5 183t-47.5 183t-130.5 67t-131 -67t-48 -183q0 -117 47.5 -183.5t131.5 -66.5z" />
    <glyph glyph-name="P" unicode="P" horiz-adv-x="614" 
d="M75 0v700h281q111 0 175.5 -60.5t64.5 -164.5q0 -106 -64 -165t-177 -59h-155v-251h-125zM200 366h153q56 0 87 28.5t31 80.5q0 110 -118 110h-153v-219z" />
    <glyph glyph-name="Q" unicode="Q" horiz-adv-x="683" 
d="M647 47l-66 -62l-60 62q-76 -62 -182 -62q-138 0 -221 100t-83 265t83 265t221 100q137 0 220 -100t83 -265q0 -140 -61 -235zM339 100q57 0 98 32l-136 140l67 61l124 -127q25 61 25 144q0 116 -47.5 183t-130.5 67t-131 -67t-48 -183q0 -117 47.5 -183.5t131.5 -66.5z
" />
    <glyph glyph-name="R" unicode="R" horiz-adv-x="617" 
d="M435 272v-1l147 -271h-137l-139 260h-106v-260h-125v700h274q110 0 173.5 -58.5t63.5 -160.5q0 -79 -39.5 -133.5t-111.5 -75.5zM200 375h135q126 0 126 106q0 104 -126 104h-135v-210z" />
    <glyph glyph-name="S" unicode="S" horiz-adv-x="595" 
d="M318 -15q-127 0 -201.5 63t-91.5 183l123 25q13 -83 53 -120t119 -37q58 0 91.5 22.5t33.5 61.5q0 42 -34.5 69t-128.5 58q-124 41 -174 88.5t-50 123.5q0 85 64.5 139t167.5 54q101 0 172.5 -56t88.5 -149l-122 -26q-31 117 -139 117q-49 0 -78.5 -21.5t-29.5 -57.5
q0 -31 30 -52.5t113 -48.5q133 -45 189 -99t56 -138q0 -89 -69.5 -144t-182.5 -55z" />
    <glyph glyph-name="T" unicode="T" horiz-adv-x="597" 
d="M236 0v585h-208v115h541v-115h-208v-585h-125z" />
    <glyph glyph-name="U" unicode="U" horiz-adv-x="664" 
d="M331 -15q-124 0 -192.5 64.5t-68.5 180.5v470h125v-462q0 -138 136 -138q138 0 138 136v464h125v-470q0 -116 -69 -180.5t-194 -64.5z" />
    <glyph glyph-name="V" unicode="V" horiz-adv-x="629" 
d="M251 0l-253 700h133l183 -526h2l183 526h132l-253 -700h-127z" />
    <glyph glyph-name="W" unicode="W" horiz-adv-x="885" 
d="M156 0l-143 700h129l97 -499h2l143 499h117l143 -499h2l98 499h127l-141 -700h-138l-149 511h-2l-148 -511h-137z" />
    <glyph glyph-name="X" unicode="X" horiz-adv-x="592" 
d="M3 0l219 355l-213 345h142l144 -252h2l144 252h142l-214 -345l219 -355h-141l-150 262h-2l-150 -262h-142z" />
    <glyph glyph-name="Y" unicode="Y" horiz-adv-x="587" 
d="M231 0v287l-238 413h136l163 -301h2l163 301h136l-237 -413v-287h-125z" />
    <glyph glyph-name="Z" unicode="Z" horiz-adv-x="585" 
d="M38 0v104l354 479v2h-341v115h496v-104l-354 -479v-2h350v-115h-505z" />
    <glyph glyph-name="bracketleft" unicode="[" horiz-adv-x="317" 
d="M75 -182v912h228v-102h-121v-707h121v-103h-228z" />
    <glyph glyph-name="backslash" unicode="\" horiz-adv-x="456" 
d="M371 -48l-362 763l76 35l363 -765z" />
    <glyph glyph-name="bracketright" unicode="]" horiz-adv-x="317" 
d="M242 -182h-228v103h121v707h-121v102h228v-912z" />
    <glyph glyph-name="asciicircum" unicode="^" horiz-adv-x="595" 
d="M531 325h-115l-118 270l-119 -270h-116l175 375h119z" />
    <glyph glyph-name="underscore" unicode="_" horiz-adv-x="604" 
d="M43 -167v94h518v-94h-518z" />
    <glyph glyph-name="grave" unicode="`" horiz-adv-x="322" 
d="M168 590l-115 130h130l85 -130h-100z" />
    <glyph glyph-name="a" unicode="a" horiz-adv-x="518" 
d="M213 -15q-79 0 -126.5 42.5t-47.5 113.5q0 67 43.5 106t145.5 63q67 17 92 32t25 40q0 28 -22.5 44t-62.5 16q-45 0 -74.5 -25t-37.5 -69l-113 24q13 78 74.5 125.5t150.5 47.5q96 0 152 -51.5t56 -140.5v-353h-109v46h-2q-42 -61 -144 -61zM233 89q52 0 84.5 25t32.5 65
v91h-2q-14 -27 -92 -49q-55 -14 -78 -30.5t-23 -41.5q0 -60 78 -60z" />
    <glyph glyph-name="b" unicode="b" horiz-adv-x="592" 
d="M320 -15q-99 0 -151 64h-2v-49h-112v730h120v-239h2q54 54 142 54q104 0 171 -78.5t67 -201.5t-66.5 -201.5t-170.5 -78.5zM300 95q64 0 100.5 45.5t36.5 124.5t-36 124.5t-99 45.5q-55 0 -91 -36.5t-36 -90.5v-85q0 -55 36 -91.5t89 -36.5z" />
    <glyph glyph-name="c" unicode="c" horiz-adv-x="554" 
d="M288 -15q-112 0 -182.5 77.5t-70.5 202.5t70.5 202.5t182.5 77.5q94 0 157.5 -52.5t78.5 -141.5l-115 -22q-9 51 -40.5 78.5t-80.5 27.5q-61 0 -97 -46t-36 -124t36 -124t97 -46q102 0 121 106l115 -22q-15 -89 -78.5 -141.5t-157.5 -52.5z" />
    <glyph glyph-name="d" unicode="d" horiz-adv-x="592" 
d="M272 -15q-104 0 -170.5 78.5t-66.5 201.5t67 201.5t171 78.5q88 0 142 -54h2v239h120v-730h-112v49h-2q-52 -64 -151 -64zM292 95q53 0 89 36.5t36 91.5v85q0 54 -36 90.5t-91 36.5q-63 0 -99 -45.5t-36 -124.5t36.5 -124.5t100.5 -45.5z" />
    <glyph glyph-name="e" unicode="e" horiz-adv-x="562" 
d="M284 -15q-111 0 -180 77.5t-69 202.5q0 124 68.5 202t178.5 78t177.5 -75.5t67.5 -198.5v-41h-371q3 -64 37.5 -102.5t90.5 -38.5q44 0 76.5 20.5t62.5 66.5l88 -64q-73 -127 -227 -127zM157 318h251q-3 56 -36 89.5t-89 33.5q-52 0 -87.5 -35t-38.5 -88z" />
    <glyph glyph-name="f" unicode="f" horiz-adv-x="377" 
d="M109 0v423h-99v107h99v55q0 64 38.5 100.5t109.5 36.5h92v-108h-78q-42 0 -42 -41v-43h139v-107h-139v-423h-120z" />
    <glyph glyph-name="g" unicode="g" horiz-adv-x="587" 
d="M298 -240q-76 0 -137.5 35t-94.5 96l95 64q29 -47 60.5 -67t77.5 -20q57 0 89 35t32 95v48h-2q-20 -28 -60 -44.5t-86 -16.5q-103 0 -170 79t-67 201q0 120 67 198.5t171 78.5q93 0 145 -58h2v46h117v-537q0 -107 -65 -170t-174 -63zM292 95q53 0 89 37t36 91v81
q0 55 -36 91t-91 36q-63 0 -99 -44.5t-36 -121.5q0 -79 36.5 -124.5t100.5 -45.5z" />
    <glyph glyph-name="h" unicode="h" horiz-adv-x="566" 
d="M55 0v730h120v-247h2q23 29 60.5 45.5t80.5 16.5q89 0 143.5 -54.5t54.5 -143.5v-347h-120v321q0 53 -28.5 82.5t-80.5 29.5t-82 -30.5t-30 -81.5v-321h-120z" />
    <glyph glyph-name="i" unicode="i" horiz-adv-x="230" 
d="M52 620v121h126v-121h-126zM55 0v530h120v-530h-120z" />
    <glyph glyph-name="j" unicode="j" horiz-adv-x="246" 
d="M68 620v121h126v-121h-126zM-27 -192v111h51q26 0 36.5 8.5t10.5 29.5v573h120v-577q0 -77 -38 -111t-121 -34h-59z" />
    <glyph glyph-name="k" unicode="k" horiz-adv-x="544" 
d="M55 0v730h120v-413h2l188 213h157l-193 -210l201 -320h-136l-143 239h-2l-74 -83v-156h-120z" />
    <glyph glyph-name="l" unicode="l" horiz-adv-x="230" 
d="M55 0v730h120v-730h-120z" />
    <glyph glyph-name="m" unicode="m" horiz-adv-x="830" 
d="M55 0v530h113v-45h2q46 60 135 60q41 0 78 -18t59 -48h2q55 66 143 66q85 0 139 -53.5t54 -134.5v-357h-117v336q0 46 -25.5 72.5t-68.5 26.5t-69 -28.5t-26 -75.5v-331h-113v336q0 46 -25.5 72.5t-68.5 26.5t-69 -28.5t-26 -75.5v-331h-117z" />
    <glyph glyph-name="n" unicode="n" horiz-adv-x="566" 
d="M55 0v530h115v-47h2q23 28 63 45t83 17q90 0 144 -56t54 -149v-340h-120v321q0 53 -28.5 82.5t-80.5 29.5t-82 -30.5t-30 -81.5v-321h-120z" />
    <glyph glyph-name="o" unicode="o" horiz-adv-x="585" 
d="M292 -15q-115 0 -186 77.5t-71 202.5t71 202.5t186 77.5t186.5 -77.5t71.5 -202.5t-71.5 -202.5t-186.5 -77.5zM292 95q65 0 101.5 45.5t36.5 124.5t-36.5 124.5t-101.5 45.5q-64 0 -100.5 -45t-36.5 -125t36.5 -125t100.5 -45z" />
    <glyph glyph-name="p" unicode="p" horiz-adv-x="592" 
d="M55 -225v755h117v-42h2q55 57 145 57q104 0 171 -78.5t67 -201.5t-66.5 -201.5t-170.5 -78.5q-93 0 -143 57h-2v-267h-120zM300 95q64 0 100.5 45.5t36.5 124.5t-36 124.5t-99 45.5q-55 0 -91 -36.5t-36 -90.5v-85q0 -55 36 -91.5t89 -36.5z" />
    <glyph glyph-name="q" unicode="q" horiz-adv-x="592" 
d="M537 -225h-120v267h-2q-50 -57 -143 -57q-104 0 -170.5 78.5t-66.5 201.5t67 201.5t171 78.5q90 0 145 -57h2v42h117v-755zM292 95q53 0 89 36.5t36 91.5v85q0 54 -36 90.5t-91 36.5q-63 0 -99 -45.5t-36 -124.5t36.5 -124.5t100.5 -45.5z" />
    <glyph glyph-name="r" unicode="r" horiz-adv-x="356" 
d="M55 0v530h113v-46h2q36 56 112 56q36 0 64 -9l-21 -117q-33 9 -57 9q-93 0 -93 -126v-297h-120z" />
    <glyph glyph-name="s" unicode="s" horiz-adv-x="500" 
d="M268 -15q-101 0 -164.5 49t-78.5 140l109 28q13 -60 44.5 -87.5t89.5 -27.5q43 0 68 14.5t25 39.5q0 31 -29.5 49.5t-96.5 38.5q-91 26 -137 59.5t-46 99.5q0 68 55.5 112.5t139.5 44.5q80 0 140 -43t78 -113l-110 -31q-27 85 -108 85q-37 0 -59 -14.5t-22 -38.5
q0 -21 25 -34.5t81 -29.5q47 -14 78.5 -26.5t62.5 -33t46.5 -50.5t15.5 -70q0 -73 -56.5 -117t-150.5 -44z" />
    <glyph glyph-name="t" unicode="t" horiz-adv-x="371" 
d="M348 423h-131v-263q0 -26 12 -35.5t44 -9.5h53v-115h-64q-89 0 -127 35t-38 119v269h-87v107h87v129h120v-129h131v-107z" />
    <glyph glyph-name="u" unicode="u" horiz-adv-x="554" 
d="M235 -15q-90 0 -140 52t-50 146v347h120v-322q0 -113 106 -113q49 0 78.5 31t29.5 82v322h120v-530h-116v47h-2q-51 -62 -146 -62z" />
    <glyph glyph-name="v" unicode="v" horiz-adv-x="561" 
d="M225 0l-222 530h128l148 -371h2l148 371h128l-222 -530h-110z" />
    <glyph glyph-name="w" unicode="w" horiz-adv-x="782" 
d="M140 0l-122 530h119l77 -364h2l122 364h106l122 -364h2l77 364h119l-122 -530h-118l-132 388h-2l-132 -388h-118z" />
    <glyph glyph-name="x" unicode="x" horiz-adv-x="512" 
d="M-2 0l185 269l-180 261h141l111 -173h2l110 173h142l-181 -261l185 -269h-141l-115 180h-2l-115 -180h-142z" />
    <glyph glyph-name="y" unicode="y" horiz-adv-x="536" 
d="M101 -225l106 258l-204 497h125l139 -357h2l140 357h124l-309 -755h-123z" />
    <glyph glyph-name="z" unicode="z" horiz-adv-x="522" 
d="M27 0v99l293 320v2h-284v109h448v-99l-293 -320v-2h304v-109h-468z" />
    <glyph glyph-name="braceleft" unicode="{" horiz-adv-x="377" 
d="M286 -182q-80 0 -115.5 36t-35.5 117v187q0 34 -11.5 46.5t-42.5 12.5h-28v135h28q32 0 43 12.5t11 46.5v166q0 82 35.5 117.5t115.5 35.5h77v-107h-60q-34 0 -47.5 -17t-13.5 -59v-163q0 -45 -23 -72t-57 -27v-2q34 0 57 -26.5t23 -71.5v-183q0 -42 13.5 -59t47.5 -17
h60v-108h-77z" />
    <glyph glyph-name="bar" unicode="|" horiz-adv-x="270" 
d="M93 -300v1075h84v-1075h-84z" />
    <glyph glyph-name="braceright" unicode="}" horiz-adv-x="377" 
d="M91 -182h-77v108h60q34 0 47.5 17t13.5 59v183q0 45 23 71.5t57 26.5v2q-34 0 -57 27t-23 72v163q0 42 -13.5 59t-47.5 17h-60v107h77q80 0 115.5 -35.5t35.5 -117.5v-166q0 -34 11 -46.5t43 -12.5h28v-135h-28q-31 0 -42.5 -12.5t-11.5 -46.5v-187q0 -81 -35.5 -117
t-115.5 -36z" />
    <glyph glyph-name="asciitilde" unicode="~" horiz-adv-x="685" 
d="M164 253l-111 39q43 159 179 159q32 0 67 -12.5t58.5 -27t49.5 -27t44 -12.5q46 0 70 79l111 -39q-43 -159 -178 -159q-33 0 -67.5 12.5t-58.5 27t-50 27t-44 12.5q-46 0 -70 -79z" />
    <glyph glyph-name="uni00A0" unicode="&#xa0;" horiz-adv-x="260" 
 />
    <glyph glyph-name="exclamdown" unicode="&#xa1;" horiz-adv-x="315" 
d="M85 530h145v-141h-145v141zM95 302h125v-472h-125v472z" />
    <glyph glyph-name="cent" unicode="&#xa2;" horiz-adv-x="618" 
d="M354 96q94 14 111 105l113 -22q-14 -81 -74.5 -132.5t-149.5 -59.5v-97h-60v96q-111 9 -180 85t-69 194t69 194t180 85v87h60v-88q89 -8 149.5 -59.5t74.5 -132.5l-113 -22q-19 91 -111 105v-338zM162 265q0 -71 35.5 -116.5t96.5 -53.5v340q-61 -8 -96.5 -53.5
t-35.5 -116.5z" />
    <glyph glyph-name="sterling" unicode="&#xa3;" horiz-adv-x="624" 
d="M287 118v-2h289v-116h-513v116h46q48 0 75.5 27t27.5 71q0 35 -20 73h-129v102h65q-47 67 -47 126q0 91 67.5 145.5t180.5 54.5q112 0 184 -55.5t82 -150.5l-123 -20q-16 111 -142 111q-55 0 -87 -24.5t-32 -66.5q0 -47 51 -120h213v-102h-162q13 -34 13 -65
q0 -65 -39 -104z" />
    <glyph glyph-name="currency" unicode="&#xa4;" horiz-adv-x="583" 
d="M525 330q0 -84 -45 -148l68 -66l-44 -43l-65 65q-63 -52 -148 -52q-84 0 -148 51l-64 -64l-44 42l67 67q-45 62 -45 148q0 82 43 146l-65 66l44 43l62 -63q64 53 150 53t150 -54l64 64l43 -43l-66 -66q43 -64 43 -146zM292 196q53 0 83 35t30 98q0 64 -30 100t-83 36
q-55 0 -85 -35.5t-30 -100.5q0 -64 30 -98.5t85 -34.5z" />
    <glyph glyph-name="yen" unicode="&#xa5;" horiz-adv-x="607" 
d="M603 700l-203 -353h159v-95h-193v-55h193v-95h-193v-102h-125v102h-197v95h197v55h-197v95h162l-203 353h136l163 -301h2l163 301h136z" />
    <glyph glyph-name="brokenbar" unicode="&#xa6;" horiz-adv-x="270" 
d="M93 350v425h84v-425h-84zM93 -300v425h84v-425h-84z" />
    <glyph glyph-name="section" unicode="&#xa7;" horiz-adv-x="649" 
d="M491 107q50 -50 50 -117q0 -78 -58 -130t-148 -52q-94 0 -153 52.5t-67 136.5l121 14q13 -89 97 -89q39 0 61 19t22 49q0 29 -22.5 48.5t-81.5 43.5l-99 40q-77 31 -108.5 68.5t-31.5 89.5q0 74 85 136q-50 50 -50 117q0 78 58 130t148 52q94 0 153 -52t67 -136l-121 -15
q-13 90 -97 90q-38 0 -60.5 -19t-22.5 -50q0 -29 22.5 -48.5t81.5 -43.5l99 -40q77 -31 108.5 -68t31.5 -90q0 -75 -85 -136zM278 216l109 -44l20 -9q50 36 50 74q0 19 -18.5 34.5t-67.5 35.5l-108 44l-21 9q-50 -36 -50 -74q0 -19 18 -34t68 -36z" />
    <glyph glyph-name="dieresis" unicode="&#xa8;" horiz-adv-x="423" 
d="M53 580v116h118v-116h-118zM251 580v116h118v-116h-118z" />
    <glyph glyph-name="copyright" unicode="&#xa9;" horiz-adv-x="702" 
d="M351 16q-133 0 -220.5 88t-87.5 219t87.5 219.5t220.5 88.5t220.5 -88.5t87.5 -219.5t-87.5 -219t-220.5 -88zM351 80q103 0 170.5 71t67.5 172q0 103 -67.5 173.5t-170.5 70.5t-170.5 -70.5t-67.5 -173.5q0 -102 67.5 -172.5t170.5 -70.5zM356 144q-70 0 -114.5 50.5
t-44.5 129.5t44.5 129t114.5 50q59 0 100.5 -35t48.5 -91l-74 -15q-12 68 -75 68q-36 0 -57 -28.5t-21 -77.5t21 -77.5t57 -28.5q63 0 75 67l74 -15q-7 -56 -48.5 -91t-100.5 -35z" />
    <glyph glyph-name="ordfeminine" unicode="&#xaa;" horiz-adv-x="281" 
d="M108 417q-43 0 -68.5 21.5t-25.5 57.5q0 37 25 58t82 33q33 7 45 13.5t12 17.5q0 26 -40 26q-46 0 -55 -44l-71 13q6 41 40.5 67.5t83.5 26.5q54 0 86 -28.5t32 -75.5v-179h-66v24h-1q-23 -31 -79 -31zM124 480q24 0 40 13t16 32v31h-1q-5 -11 -42 -21q-27 -7 -37.5 -14
t-10.5 -18q0 -23 35 -23z" />
    <glyph glyph-name="guillemotleft" unicode="&#xab;" horiz-adv-x="516" 
d="M175 86l-112 191l112 191h107l-114 -191l114 -191h-107zM356 86l-112 191l112 191h107l-114 -191l114 -191h-107z" />
    <glyph glyph-name="logicalnot" unicode="&#xac;" horiz-adv-x="647" 
d="M469 157v178h-416v115h541v-293h-125z" />
    <glyph glyph-name="uni00AD" unicode="&#xad;" horiz-adv-x="358" 
d="M43 239v111h271v-111h-271z" />
    <glyph glyph-name="registered" unicode="&#xae;" horiz-adv-x="702" 
d="M351 631q133 0 220.5 -88.5t87.5 -219.5t-87.5 -219t-220.5 -88t-220.5 88t-87.5 219t87.5 219.5t220.5 88.5zM351 80q103 0 170.5 71t67.5 172q0 103 -67.5 173.5t-170.5 70.5t-170.5 -70.5t-67.5 -173.5q0 -102 67.5 -172.5t170.5 -70.5zM502 388q0 -38 -19 -66
t-54 -40l68 -131h-86l-59 123h-39v-123h-78v345h141q61 0 93.5 -29t32.5 -79zM314 432v-94h57q24 0 37.5 13.5t13.5 36.5q0 44 -51 44h-57z" />
    <glyph glyph-name="macron" unicode="&#xaf;" horiz-adv-x="406" 
d="M53 590v78h299v-78h-299z" />
    <glyph glyph-name="degree" unicode="&#xb0;" horiz-adv-x="449" 
d="M225 340q-83 0 -137.5 52t-54.5 131t54.5 130.5t137.5 51.5q82 0 136.5 -51.5t54.5 -130.5t-54.5 -131t-136.5 -52zM225 432q41 0 66.5 25t25.5 66q0 40 -25.5 65t-66.5 25t-67 -25t-26 -65t26 -65.5t67 -25.5z" />
    <glyph glyph-name="plusminus" unicode="&#xb1;" horiz-adv-x="603" 
d="M250 212v184h-197v98h197v184h104v-184h195v-98h-195v-184h-104zM54 153h496v-101h-496v101z" />
    <glyph glyph-name="acute" unicode="&#xb4;" horiz-adv-x="322" 
d="M53 590l85 130h130l-115 -130h-100z" />
    <glyph glyph-name="paragraph" unicode="&#xb6;" horiz-adv-x="648" 
d="M175 -136v525q-64 2 -108 45t-44 110q0 73 44 114.5t112 41.5h385v-836h-125v719h-139v-719h-125z" />
    <glyph glyph-name="periodcentered" unicode="&#xb7;" horiz-adv-x="252" 
d="M53 307v141h145v-141h-145z" />
    <glyph glyph-name="cedilla" unicode="&#xb8;" horiz-adv-x="330" 
d="M176 -37q43 0 71.5 -26.5t28.5 -67.5q0 -47 -31 -75t-83 -28q-61 0 -109 40l42 56q34 -28 64 -28q20 0 32.5 11t12.5 28q0 16 -12 25.5t-32 9.5q-30 0 -51 -24l-51 23l68 124l53 -23l-29 -48q12 3 26 3z" />
    <glyph glyph-name="ordmasculine" unicode="&#xba;" horiz-adv-x="310" 
d="M155 417q-63 0 -103 41t-40 104t40 104t103 41t103 -41t40 -104t-40 -104t-103 -41zM155 488q30 0 47.5 20t17.5 54t-17.5 54t-47.5 20t-47.5 -20t-17.5 -54t17.5 -54t47.5 -20z" />
    <glyph glyph-name="guillemotright" unicode="&#xbb;" horiz-adv-x="516" 
d="M160 86h-107l114 191l-114 191h107l112 -191zM341 86h-107l114 191l-114 191h107l112 -191z" />
    <glyph glyph-name="onequarter" unicode="&#xbc;" horiz-adv-x="852" 
d="M184 -78l-78 44l487 808l77 -46zM125 280v325l-103 -60v92l109 63h86v-420h-92zM696 0v68h-223v85l167 267h148v-268h53v-84h-53v-68h-92zM567 152h129v206h-1z" />
    <glyph glyph-name="onehalf" unicode="&#xbd;" horiz-adv-x="867" 
d="M593 774l77 -46l-486 -806l-78 44zM125 280v325l-103 -60v92l109 63h86v-420h-92zM632 113q-10 -10 -11 -29h216v-84h-313v62q0 59 26 89q27 34 108 68q54 24 72 40t18 40q0 22 -17 35.5t-45 13.5q-34 0 -54 -19.5t-22 -55.5l-90 6q3 69 48 109.5t118 40.5
q68 0 111 -36.5t43 -93.5q0 -47 -28 -79t-96 -62q-71 -31 -84 -45z" />
    <glyph glyph-name="threequarters" unicode="&#xbe;" horiz-adv-x="941" 
d="M273 -78l-78 44l487 808l77 -46zM193 271q-72 0 -117.5 39.5t-53.5 109.5l88 17q12 -84 83 -84q29 0 45.5 14.5t16.5 39.5q0 53 -65 53h-42v73h35q61 0 61 46q0 22 -16 35t-42 13q-59 0 -70 -59l-89 15q9 57 52 91.5t107 34.5t105.5 -34t41.5 -87t-49 -83v-1
q62 -33 62 -103q0 -56 -42.5 -93t-110.5 -37zM785 0v68h-223v85l167 267h148v-268h53v-84h-53v-68h-92zM656 152h129v206h-1z" />
    <glyph glyph-name="questiondown" unicode="&#xbf;" horiz-adv-x="616" 
d="M399 530v-141h-145v141h145zM387 318v-58q0 -46 -23 -79t-75 -64q-51 -30 -70.5 -53.5t-19.5 -54.5q0 -36 27.5 -57.5t71.5 -21.5q60 0 93 34.5t38 98.5l124 -9q-3 -108 -72.5 -173.5t-182.5 -65.5q-95 0 -159.5 54.5t-64.5 137.5q0 55 29 95.5t93 79.5q45 28 60 46.5
t15 46.5v43h116z" />
    <glyph glyph-name="Agrave" unicode="&#xc0;" horiz-adv-x="614" 
d="M369 760h-100l-115 130h130zM490 0l-41 120h-284l-41 -120h-126l252 700h115l251 -700h-126zM203 230h208l-103 297h-2z" />
    <glyph glyph-name="Aacute" unicode="&#xc1;" horiz-adv-x="614" 
d="M460 890l-115 -130h-100l85 130h130zM490 0l-41 120h-284l-41 -120h-126l252 700h115l251 -700h-126zM203 230h208l-103 297h-2z" />
    <glyph glyph-name="Acircumflex" unicode="&#xc2;" horiz-adv-x="614" 
d="M308 829l-71 -89l-65 51l69 87h134l68 -87l-65 -51zM490 0l-41 120h-284l-41 -120h-126l252 700h115l251 -700h-126zM203 230h208l-103 297h-2z" />
    <glyph glyph-name="Atilde" unicode="&#xc3;" horiz-adv-x="614" 
d="M246 794q-28 0 -35 -34h-62q2 51 28 80t67 29q29 0 69.5 -19.5t55.5 -19.5q28 0 35 34h62q-2 -52 -27.5 -80.5t-66.5 -28.5q-29 0 -70 19.5t-56 19.5zM490 0l-41 120h-284l-41 -120h-126l252 700h115l251 -700h-126zM203 230h208l-103 297h-2z" />
    <glyph glyph-name="Adieresis" unicode="&#xc4;" horiz-adv-x="614" 
d="M268 866v-116h-118v116h118zM466 866v-116h-118v116h118zM490 0l-41 120h-284l-41 -120h-126l252 700h115l251 -700h-126zM203 230h208l-103 297h-2z" />
    <glyph glyph-name="Aring" unicode="&#xc5;" horiz-adv-x="614" 
d="M490 0l-41 120h-284l-41 -120h-126l237 657q-67 36 -67 110q0 55 39.5 91t100.5 36t101 -36t40 -91q0 -75 -68 -110l235 -657h-126zM308 834q-30 0 -48.5 -19t-18.5 -48t18.5 -48t48.5 -19t49 19t19 48t-19 48t-49 19zM203 230h208l-103 297h-2z" />
    <glyph glyph-name="AE" unicode="&#xc6;" horiz-adv-x="863" 
d="M560 109h258v-109h-377v126h-255l-52 -126h-136l299 700h520v-110h-257v-179h230v-106h-230v-196zM230 233h211v357h-63z" />
    <glyph glyph-name="Ccedilla" unicode="&#xc7;" horiz-adv-x="640" 
d="M615 246q-11 -112 -78 -182t-171 -78l-25 -41q12 3 26 3q43 0 71.5 -26.5t28.5 -67.5q0 -47 -31 -75t-83 -28q-61 0 -109 40l42 56q34 -28 64 -28q20 0 32.5 11t12.5 28q0 16 -12 25.5t-32 9.5q-30 0 -51 -24l-51 23l52 95q-123 14 -194.5 111.5t-71.5 251.5
q0 165 83 265t221 100q110 0 185 -68t89 -180l-123 -20q-13 74 -51.5 113.5t-99.5 39.5q-84 0 -131.5 -66.5t-47.5 -183.5t47.5 -183.5t131.5 -66.5q64 0 103 42t49 124z" />
    <glyph glyph-name="Egrave" unicode="&#xc8;" horiz-adv-x="560" 
d="M265 760l-115 130h130l85 -130h-100zM75 0v700h440v-115h-315v-171h287v-111h-287v-188h315v-115h-440z" />
    <glyph glyph-name="Eacute" unicode="&#xc9;" horiz-adv-x="560" 
d="M241 760l85 130h130l-115 -130h-100zM75 0v700h440v-115h-315v-171h287v-111h-287v-188h315v-115h-440z" />
    <glyph glyph-name="Ecircumflex" unicode="&#xca;" horiz-adv-x="560" 
d="M304 829l-71 -89l-65 51l69 87h134l68 -87l-65 -51zM515 585h-315v-171h287v-111h-287v-188h315v-115h-440v700h440v-115z" />
    <glyph glyph-name="Edieresis" unicode="&#xcb;" horiz-adv-x="560" 
d="M146 750v116h118v-116h-118zM344 750v116h118v-116h-118zM75 0v700h440v-115h-315v-171h287v-111h-287v-188h315v-115h-440z" />
    <glyph glyph-name="Igrave" unicode="&#xcc;" horiz-adv-x="275" 
d="M99 760l-115 130h130l85 -130h-100zM75 0v700h125v-700h-125z" />
    <glyph glyph-name="Iacute" unicode="&#xcd;" horiz-adv-x="275" 
d="M75 760l85 130h130l-115 -130h-100zM75 0v700h125v-700h-125z" />
    <glyph glyph-name="Icircumflex" unicode="&#xce;" horiz-adv-x="275" 
d="M205 878l68 -87l-65 -51l-70 89l-71 -89l-65 51l69 87h134zM75 0v700h125v-700h-125z" />
    <glyph glyph-name="Idieresis" unicode="&#xcf;" horiz-adv-x="275" 
d="M-20 750v116h118v-116h-118zM178 750v116h118v-116h-118zM75 0v700h125v-700h-125z" />
    <glyph glyph-name="Eth" unicode="&#xd0;" horiz-adv-x="648" 
d="M308 700q140 0 222.5 -94t82.5 -256q0 -167 -82.5 -258.5t-224.5 -91.5h-231v300h-85v101h85v299h233zM305 115q87 0 135 58.5t48 176.5q0 114 -48 174.5t-133 60.5h-107v-184h154v-101h-154v-185h105z" />
    <glyph glyph-name="Ntilde" unicode="&#xd1;" horiz-adv-x="674" 
d="M401 755q-29 0 -70 19.5t-56 19.5q-28 0 -35 -34h-62q2 51 28 80t67 29q29 0 69.5 -19.5t55.5 -19.5q28 0 35 34h62q-2 -52 -27.5 -80.5t-66.5 -28.5zM75 0v700h133l264 -489h2v489h125v-700h-133l-264 489h-2v-489h-125z" />
    <glyph glyph-name="Ograve" unicode="&#xd2;" horiz-adv-x="677" 
d="M300 775l-115 130h130l85 -130h-100zM339 -15q-138 0 -221 100t-83 265t83 265t221 100q137 0 220 -100t83 -265t-83 -265t-220 -100zM339 100q83 0 130.5 67t47.5 183t-47.5 183t-130.5 67t-131 -67t-48 -183q0 -117 47.5 -183.5t131.5 -66.5z" />
    <glyph glyph-name="Oacute" unicode="&#xd3;" horiz-adv-x="677" 
d="M276 775l85 130h130l-115 -130h-100zM339 -15q-138 0 -221 100t-83 265t83 265t221 100q137 0 220 -100t83 -265t-83 -265t-220 -100zM339 100q83 0 130.5 67t47.5 183t-47.5 183t-130.5 67t-131 -67t-48 -183q0 -117 47.5 -183.5t131.5 -66.5z" />
    <glyph glyph-name="Ocircumflex" unicode="&#xd4;" horiz-adv-x="677" 
d="M339 844l-71 -89l-65 51l69 87h134l68 -87l-65 -51zM339 715q137 0 220 -100t83 -265t-83 -265t-220 -100q-138 0 -221 100t-83 265t83 265t221 100zM339 100q83 0 130.5 67t47.5 183t-47.5 183t-130.5 67t-131 -67t-48 -183q0 -117 47.5 -183.5t131.5 -66.5z" />
    <glyph glyph-name="Otilde" unicode="&#xd5;" horiz-adv-x="677" 
d="M403 770q-29 0 -70 19.5t-56 19.5q-28 0 -35 -34h-62q2 51 28 80t67 29q29 0 69.5 -19.5t55.5 -19.5q28 0 35 34h62q-2 -52 -27.5 -80.5t-66.5 -28.5zM339 -15q-138 0 -221 100t-83 265t83 265t221 100q137 0 220 -100t83 -265t-83 -265t-220 -100zM339 100
q83 0 130.5 67t47.5 183t-47.5 183t-130.5 67t-131 -67t-48 -183q0 -117 47.5 -183.5t131.5 -66.5z" />
    <glyph glyph-name="Odieresis" unicode="&#xd6;" horiz-adv-x="677" 
d="M181 765v116h118v-116h-118zM379 765v116h118v-116h-118zM339 -15q-138 0 -221 100t-83 265t83 265t221 100q137 0 220 -100t83 -265t-83 -265t-220 -100zM339 100q83 0 130.5 67t47.5 183t-47.5 183t-130.5 67t-131 -67t-48 -183q0 -117 47.5 -183.5t131.5 -66.5z" />
    <glyph glyph-name="multiply" unicode="&#xd7;" horiz-adv-x="559" 
d="M123 114l-70 68l160 158l-160 158l70 67l156 -159l158 159l68 -67l-159 -158l159 -158l-68 -68l-158 159z" />
    <glyph glyph-name="Oslash" unicode="&#xd8;" horiz-adv-x="677" 
d="M538 637q104 -99 104 -287q0 -165 -83 -265t-220 -100q-78 0 -141 34l-30 -54l-64 35l35 63q-104 101 -104 287q0 165 83 265t221 100q78 0 141 -34l30 54l63 -35zM158 350q0 -109 42 -176l224 406q-37 23 -85 23q-84 0 -132.5 -67.5t-48.5 -185.5zM339 97q84 0 132 67.5
t48 185.5q0 109 -42 176l-224 -406q38 -23 86 -23z" />
    <glyph glyph-name="Ugrave" unicode="&#xd9;" horiz-adv-x="664" 
d="M293 760l-115 130h130l85 -130h-100zM331 -15q-124 0 -192.5 64.5t-68.5 180.5v470h125v-462q0 -138 136 -138q138 0 138 136v464h125v-470q0 -116 -69 -180.5t-194 -64.5z" />
    <glyph glyph-name="Uacute" unicode="&#xda;" horiz-adv-x="664" 
d="M269 760l85 130h130l-115 -130h-100zM331 -15q-124 0 -192.5 64.5t-68.5 180.5v470h125v-462q0 -138 136 -138q138 0 138 136v464h125v-470q0 -116 -69 -180.5t-194 -64.5z" />
    <glyph glyph-name="Ucircumflex" unicode="&#xdb;" horiz-adv-x="664" 
d="M332 829l-71 -89l-65 51l69 87h134l68 -87l-65 -51zM469 700h125v-470q0 -116 -69 -180.5t-194 -64.5q-124 0 -192.5 64.5t-68.5 180.5v470h125v-462q0 -138 136 -138q138 0 138 136v464z" />
    <glyph glyph-name="Udieresis" unicode="&#xdc;" horiz-adv-x="664" 
d="M174 750v116h118v-116h-118zM372 750v116h118v-116h-118zM331 -15q-124 0 -192.5 64.5t-68.5 180.5v470h125v-462q0 -138 136 -138q138 0 138 136v464h125v-470q0 -116 -69 -180.5t-194 -64.5z" />
    <glyph glyph-name="Yacute" unicode="&#xdd;" horiz-adv-x="587" 
d="M231 760l85 130h130l-115 -130h-100zM231 0v287l-238 413h136l163 -301h2l163 301h136l-237 -413v-287h-125z" />
    <glyph glyph-name="Thorn" unicode="&#xde;" horiz-adv-x="614" 
d="M356 577q111 0 175.5 -60t64.5 -165t-64 -164.5t-177 -59.5h-155v-128h-125v700h125v-123h156zM353 244q56 0 87 28.5t31 80.5q0 109 -118 109h-153v-218h153z" />
    <glyph glyph-name="germandbls" unicode="&#xdf;" horiz-adv-x="561" 
d="M55 0v492q0 104 62 163.5t165 59.5q94 0 154 -51.5t60 -133.5q0 -45 -22.5 -81.5t-61.5 -57.5v-2q53 -19 83.5 -65.5t30.5 -108.5q0 -103 -64 -159t-181 -56h-42v108h32q135 0 135 113q0 49 -30 76.5t-83 27.5h-54v100h35q50 0 78 24t28 67q0 41 -27.5 66t-71.5 25
q-52 0 -79 -30t-27 -86v-491h-120z" />
    <glyph glyph-name="agrave" unicode="&#xe0;" horiz-adv-x="518" 
d="M221 605l-115 130h130l85 -130h-100zM213 -15q-79 0 -126.5 42.5t-47.5 113.5q0 67 43.5 106t145.5 63q67 17 92 32t25 40q0 28 -22.5 44t-62.5 16q-45 0 -74.5 -25t-37.5 -69l-113 24q13 78 74.5 125.5t150.5 47.5q96 0 152 -51.5t56 -140.5v-353h-109v46h-2
q-42 -61 -144 -61zM233 89q52 0 84.5 25t32.5 65v91h-2q-14 -27 -92 -49q-55 -14 -78 -30.5t-23 -41.5q0 -60 78 -60z" />
    <glyph glyph-name="aacute" unicode="&#xe1;" horiz-adv-x="518" 
d="M197 605l85 130h130l-115 -130h-100zM213 -15q-79 0 -126.5 42.5t-47.5 113.5q0 67 43.5 106t145.5 63q67 17 92 32t25 40q0 28 -22.5 44t-62.5 16q-45 0 -74.5 -25t-37.5 -69l-113 24q13 78 74.5 125.5t150.5 47.5q96 0 152 -51.5t56 -140.5v-353h-109v46h-2
q-42 -61 -144 -61zM233 89q52 0 84.5 25t32.5 65v91h-2q-14 -27 -92 -49q-55 -14 -78 -30.5t-23 -41.5q0 -60 78 -60z" />
    <glyph glyph-name="acircumflex" unicode="&#xe2;" horiz-adv-x="518" 
d="M260 674l-71 -89l-65 51l69 87h134l68 -87l-65 -51zM260 545q96 0 152 -51.5t56 -140.5v-353h-109v46h-2q-42 -61 -144 -61q-79 0 -126.5 42.5t-47.5 113.5q0 67 43.5 106t145.5 63q67 17 92 32t25 40q0 28 -22.5 44t-62.5 16q-45 0 -74.5 -25t-37.5 -69l-113 24
q13 78 74.5 125.5t150.5 47.5zM350 179v91h-2q-14 -27 -92 -49q-55 -14 -78 -30.5t-23 -41.5q0 -60 78 -60q52 0 84.5 25t32.5 65z" />
    <glyph glyph-name="atilde" unicode="&#xe3;" horiz-adv-x="518" 
d="M324 600q-29 0 -70 19.5t-56 19.5q-28 0 -35 -34h-62q2 51 28 80t67 29q29 0 69.5 -19.5t55.5 -19.5q28 0 35 34h62q-2 -52 -27.5 -80.5t-66.5 -28.5zM213 -15q-79 0 -126.5 42.5t-47.5 113.5q0 67 43.5 106t145.5 63q67 17 92 32t25 40q0 28 -22.5 44t-62.5 16
q-45 0 -74.5 -25t-37.5 -69l-113 24q13 78 74.5 125.5t150.5 47.5q96 0 152 -51.5t56 -140.5v-353h-109v46h-2q-42 -61 -144 -61zM233 89q52 0 84.5 25t32.5 65v91h-2q-14 -27 -92 -49q-55 -14 -78 -30.5t-23 -41.5q0 -60 78 -60z" />
    <glyph glyph-name="adieresis" unicode="&#xe4;" horiz-adv-x="518" 
d="M102 595v116h118v-116h-118zM300 595v116h118v-116h-118zM213 -15q-79 0 -126.5 42.5t-47.5 113.5q0 67 43.5 106t145.5 63q67 17 92 32t25 40q0 28 -22.5 44t-62.5 16q-45 0 -74.5 -25t-37.5 -69l-113 24q13 78 74.5 125.5t150.5 47.5q96 0 152 -51.5t56 -140.5v-353
h-109v46h-2q-42 -61 -144 -61zM233 89q52 0 84.5 25t32.5 65v91h-2q-14 -27 -92 -49q-55 -14 -78 -30.5t-23 -41.5q0 -60 78 -60z" />
    <glyph glyph-name="aring" unicode="&#xe5;" horiz-adv-x="518" 
d="M259 565q-55 0 -90.5 32.5t-35.5 81.5q0 50 35.5 82.5t90.5 32.5t91 -32.5t36 -82.5q0 -49 -36 -81.5t-91 -32.5zM259 619q27 0 44 17t17 43t-17 43.5t-44 17.5t-43.5 -17t-16.5 -44q0 -26 16.5 -43t43.5 -17zM213 -15q-79 0 -126.5 42.5t-47.5 113.5q0 67 43.5 106
t145.5 63q67 17 92 32t25 40q0 28 -22.5 44t-62.5 16q-45 0 -74.5 -25t-37.5 -69l-113 24q13 78 74.5 125.5t150.5 47.5q96 0 152 -51.5t56 -140.5v-353h-109v46h-2q-42 -61 -144 -61zM233 89q52 0 84.5 25t32.5 65v91h-2q-14 -27 -92 -49q-55 -14 -78 -30.5t-23 -41.5
q0 -60 78 -60z" />
    <glyph glyph-name="ae" unicode="&#xe6;" horiz-adv-x="868" 
d="M833 271v-41h-365q2 -66 36.5 -104t91.5 -38q44 0 75.5 20t63.5 69l83 -69q-75 -123 -222 -123q-118 0 -184 88q-61 -88 -195 -88q-79 0 -128 41.5t-49 111.5q0 49 23 83.5t57 50t74 28.5t74 20.5t57 23t23 39.5q0 29 -23.5 46t-64.5 17q-45 0 -76 -25t-40 -72l-109 24
q14 78 75 125t149 47q118 0 167 -73q62 73 168 73t172.5 -76t66.5 -198zM469 318h247q-3 58 -36 91.5t-86 33.5q-51 0 -86.5 -35t-38.5 -90zM353 178v94h-2q-9 -19 -42.5 -32.5t-67.5 -21t-61 -25.5t-27 -45q0 -62 81 -62q53 0 86 26t33 66z" />
    <glyph glyph-name="ccedilla" unicode="&#xe7;" horiz-adv-x="554" 
d="M288 95q102 0 121 106l115 -22q-14 -82 -69.5 -134t-139.5 -59l-25 -41q12 3 26 3q43 0 71.5 -26.5t28.5 -67.5q0 -47 -31 -75t-83 -28q-61 0 -109 40l42 56q34 -28 64 -28q20 0 32.5 11t12.5 28q0 16 -12 25.5t-32 9.5q-30 0 -51 -24l-51 23l52 96q-97 13 -156 88
t-59 189q0 125 70.5 202.5t182.5 77.5q94 0 157.5 -52.5t78.5 -141.5l-115 -22q-9 51 -40.5 78.5t-80.5 27.5q-61 0 -97 -46t-36 -124t36 -124t97 -46z" />
    <glyph glyph-name="egrave" unicode="&#xe8;" horiz-adv-x="562" 
d="M243 605l-115 130h130l85 -130h-100zM284 -15q-111 0 -180 77.5t-69 202.5q0 124 68.5 202t178.5 78t177.5 -75.5t67.5 -198.5v-41h-371q3 -64 37.5 -102.5t90.5 -38.5q44 0 76.5 20.5t62.5 66.5l88 -64q-73 -127 -227 -127zM157 318h251q-3 56 -36 89.5t-89 33.5
q-52 0 -87.5 -35t-38.5 -88z" />
    <glyph glyph-name="eacute" unicode="&#xe9;" horiz-adv-x="562" 
d="M219 605l85 130h130l-115 -130h-100zM284 -15q-111 0 -180 77.5t-69 202.5q0 124 68.5 202t178.5 78t177.5 -75.5t67.5 -198.5v-41h-371q3 -64 37.5 -102.5t90.5 -38.5q44 0 76.5 20.5t62.5 66.5l88 -64q-73 -127 -227 -127zM157 318h251q-3 56 -36 89.5t-89 33.5
q-52 0 -87.5 -35t-38.5 -88z" />
    <glyph glyph-name="ecircumflex" unicode="&#xea;" horiz-adv-x="562" 
d="M282 674l-71 -89l-65 51l69 87h134l68 -87l-65 -51zM527 271v-41h-371q3 -64 37.5 -102.5t90.5 -38.5q44 0 76.5 20.5t62.5 66.5l88 -64q-73 -127 -227 -127q-111 0 -180 77.5t-69 202.5q0 124 68.5 202t178.5 78t177.5 -75.5t67.5 -198.5zM157 318h251q-3 56 -36 89.5
t-89 33.5q-52 0 -87.5 -35t-38.5 -88z" />
    <glyph glyph-name="edieresis" unicode="&#xeb;" horiz-adv-x="562" 
d="M124 595v116h118v-116h-118zM322 595v116h118v-116h-118zM284 -15q-111 0 -180 77.5t-69 202.5q0 124 68.5 202t178.5 78t177.5 -75.5t67.5 -198.5v-41h-371q3 -64 37.5 -102.5t90.5 -38.5q44 0 76.5 20.5t62.5 66.5l88 -64q-73 -127 -227 -127zM157 318h251
q-3 56 -36 89.5t-89 33.5q-52 0 -87.5 -35t-38.5 -88z" />
    <glyph glyph-name="igrave" unicode="&#xec;" horiz-adv-x="230" 
d="M76 590l-115 130h130l85 -130h-100zM55 0v530h120v-530h-120z" />
    <glyph glyph-name="iacute" unicode="&#xed;" horiz-adv-x="230" 
d="M52 590l85 130h130l-115 -130h-100zM55 0v530h120v-530h-120z" />
    <glyph glyph-name="icircumflex" unicode="&#xee;" horiz-adv-x="230" 
d="M182 708l68 -87l-65 -51l-70 89l-71 -89l-65 51l69 87h134zM55 0v530h120v-530h-120z" />
    <glyph glyph-name="idieresis" unicode="&#xef;" horiz-adv-x="227" 
d="M-37 580v116h119v-116h-119zM145 580v116h118v-116h-118zM55 0v530h120v-530h-120z" />
    <glyph glyph-name="eth" unicode="&#xf0;" horiz-adv-x="585" 
d="M420 658q130 -192 130 -384q0 -132 -70 -210.5t-187 -78.5q-115 0 -186.5 77.5t-71.5 202.5q0 123 68.5 201.5t175.5 78.5q76 0 123 -39h2q-30 73 -71 125l-138 -41l-16 53l117 35q-33 40 -90 95v2h119q42 -46 61 -71l138 41l16 -51zM292 95q65 0 101.5 45.5t36.5 124.5
t-36.5 124.5t-101.5 45.5q-64 0 -100.5 -45.5t-36.5 -124.5t36.5 -124.5t100.5 -45.5z" />
    <glyph glyph-name="ntilde" unicode="&#xf1;" horiz-adv-x="566" 
d="M369 600q-29 0 -70 19.5t-56 19.5q-28 0 -35 -34h-62q2 51 28 80t67 29q29 0 69.5 -19.5t55.5 -19.5q28 0 35 34h62q-2 -52 -27.5 -80.5t-66.5 -28.5zM55 0v530h115v-47h2q23 28 63 45t83 17q90 0 144 -56t54 -149v-340h-120v321q0 53 -28.5 82.5t-80.5 29.5t-82 -30.5
t-30 -81.5v-321h-120z" />
    <glyph glyph-name="ograve" unicode="&#xf2;" horiz-adv-x="585" 
d="M253 605l-115 130h130l85 -130h-100zM292 -15q-115 0 -186 77.5t-71 202.5t71 202.5t186 77.5t186.5 -77.5t71.5 -202.5t-71.5 -202.5t-186.5 -77.5zM292 95q65 0 101.5 45.5t36.5 124.5t-36.5 124.5t-101.5 45.5q-64 0 -100.5 -45t-36.5 -125t36.5 -125t100.5 -45z" />
    <glyph glyph-name="oacute" unicode="&#xf3;" horiz-adv-x="585" 
d="M229 605l85 130h130l-115 -130h-100zM292 -15q-115 0 -186 77.5t-71 202.5t71 202.5t186 77.5t186.5 -77.5t71.5 -202.5t-71.5 -202.5t-186.5 -77.5zM292 95q65 0 101.5 45.5t36.5 124.5t-36.5 124.5t-101.5 45.5q-64 0 -100.5 -45t-36.5 -125t36.5 -125t100.5 -45z" />
    <glyph glyph-name="ocircumflex" unicode="&#xf4;" horiz-adv-x="585" 
d="M292 674l-71 -89l-65 51l69 87h134l68 -87l-65 -51zM292 545q115 0 186.5 -77.5t71.5 -202.5t-71.5 -202.5t-186.5 -77.5t-186 77.5t-71 202.5t71 202.5t186 77.5zM292 95q65 0 101.5 45.5t36.5 124.5t-36.5 124.5t-101.5 45.5q-64 0 -100.5 -45t-36.5 -125t36.5 -125
t100.5 -45z" />
    <glyph glyph-name="otilde" unicode="&#xf5;" horiz-adv-x="585" 
d="M356 600q-29 0 -70 19.5t-56 19.5q-28 0 -35 -34h-62q2 51 28 80t67 29q29 0 69.5 -19.5t55.5 -19.5q28 0 35 34h62q-2 -52 -27.5 -80.5t-66.5 -28.5zM292 -15q-115 0 -186 77.5t-71 202.5t71 202.5t186 77.5t186.5 -77.5t71.5 -202.5t-71.5 -202.5t-186.5 -77.5zM292 95
q65 0 101.5 45.5t36.5 124.5t-36.5 124.5t-101.5 45.5q-64 0 -100.5 -45t-36.5 -125t36.5 -125t100.5 -45z" />
    <glyph glyph-name="odieresis" unicode="&#xf6;" horiz-adv-x="585" 
d="M134 595v116h118v-116h-118zM332 595v116h118v-116h-118zM292 -15q-115 0 -186 77.5t-71 202.5t71 202.5t186 77.5t186.5 -77.5t71.5 -202.5t-71.5 -202.5t-186.5 -77.5zM292 95q65 0 101.5 45.5t36.5 124.5t-36.5 124.5t-101.5 45.5q-64 0 -100.5 -45t-36.5 -125
t36.5 -125t100.5 -45z" />
    <glyph glyph-name="divide" unicode="&#xf7;" horiz-adv-x="553" 
d="M276 488q-37 0 -62.5 25.5t-25.5 62.5t25.5 62.5t62.5 25.5q38 0 63 -25t25 -63q0 -37 -25.5 -62.5t-62.5 -25.5zM53 316v98h446v-98h-446zM276 62q-37 0 -62.5 25t-25.5 62t25.5 63t62.5 26t62.5 -25.5t25.5 -63.5q0 -37 -25.5 -62t-62.5 -25z" />
    <glyph glyph-name="oslash" unicode="&#xf8;" horiz-adv-x="585" 
d="M484 462q66 -77 66 -197q0 -125 -71 -202.5t-186 -77.5q-86 0 -147 43l-32 -40l-46 36l34 43q-67 76 -67 198q0 125 71.5 202.5t186.5 77.5q84 0 147 -44l37 47l46 -37zM151 265q0 -62 23 -105l199 255q-33 24 -80 24q-66 0 -104 -46.5t-38 -127.5zM293 91q66 0 103 46.5
t37 127.5q0 63 -22 103l-198 -253q33 -24 80 -24z" />
    <glyph glyph-name="ugrave" unicode="&#xf9;" horiz-adv-x="554" 
d="M233 590l-115 130h130l85 -130h-100zM235 -15q-90 0 -140 52t-50 146v347h120v-322q0 -113 106 -113q49 0 78.5 31t29.5 82v322h120v-530h-116v47h-2q-51 -62 -146 -62z" />
    <glyph glyph-name="uacute" unicode="&#xfa;" horiz-adv-x="554" 
d="M209 590l85 130h130l-115 -130h-100zM235 -15q-90 0 -140 52t-50 146v347h120v-322q0 -113 106 -113q49 0 78.5 31t29.5 82v322h120v-530h-116v47h-2q-51 -62 -146 -62z" />
    <glyph glyph-name="ucircumflex" unicode="&#xfb;" horiz-adv-x="554" 
d="M272 659l-71 -89l-65 51l69 87h134l68 -87l-65 -51zM379 530h120v-530h-116v47h-2q-51 -62 -146 -62q-90 0 -140 52t-50 146v347h120v-322q0 -113 106 -113q49 0 78.5 31t29.5 82v322z" />
    <glyph glyph-name="udieresis" unicode="&#xfc;" horiz-adv-x="554" 
d="M114 580v116h118v-116h-118zM312 580v116h118v-116h-118zM235 -15q-90 0 -140 52t-50 146v347h120v-322q0 -113 106 -113q49 0 78.5 31t29.5 82v322h120v-530h-116v47h-2q-51 -62 -146 -62z" />
    <glyph glyph-name="yacute" unicode="&#xfd;" horiz-adv-x="536" 
d="M205 590l85 130h130l-115 -130h-100zM101 -225l106 258l-204 497h125l139 -357h2l140 357h124l-309 -755h-123z" />
    <glyph glyph-name="thorn" unicode="&#xfe;" horiz-adv-x="592" 
d="M319 545q104 0 171 -78.5t67 -201.5t-66.5 -201.5t-170.5 -78.5q-93 0 -143 57h-2v-267h-120v955h120v-241q56 56 144 56zM300 95q64 0 100.5 45.5t36.5 124.5t-36 124.5t-99 45.5q-55 0 -91 -36.5t-36 -90.5v-85q0 -55 36 -91.5t89 -36.5z" />
    <glyph glyph-name="ydieresis" unicode="&#xff;" horiz-adv-x="536" 
d="M110 580v116h118v-116h-118zM308 580v116h118v-116h-118zM101 -225l106 258l-204 497h125l139 -357h2l140 357h124l-309 -755h-123z" />
    <glyph glyph-name="Amacron" unicode="&#x100;" horiz-adv-x="614" 
d="M457 838v-78h-299v78h299zM490 0l-41 120h-284l-41 -120h-126l252 700h115l251 -700h-126zM203 230h208l-103 297h-2z" />
    <glyph glyph-name="amacron" unicode="&#x101;" horiz-adv-x="518" 
d="M110 605v78h299v-78h-299zM213 -15q-79 0 -126.5 42.5t-47.5 113.5q0 67 43.5 106t145.5 63q67 17 92 32t25 40q0 28 -22.5 44t-62.5 16q-45 0 -74.5 -25t-37.5 -69l-113 24q13 78 74.5 125.5t150.5 47.5q96 0 152 -51.5t56 -140.5v-353h-109v46h-2q-42 -61 -144 -61z
M233 89q52 0 84.5 25t32.5 65v91h-2q-14 -27 -92 -49q-55 -14 -78 -30.5t-23 -41.5q0 -60 78 -60z" />
    <glyph glyph-name="Abreve" unicode="&#x102;" horiz-adv-x="614" 
d="M309 750q-62 0 -100 35.5t-41 96.5h65q13 -52 76 -52q62 0 75 52h65q-3 -61 -41 -96.5t-99 -35.5zM490 0l-41 120h-284l-41 -120h-126l252 700h115l251 -700h-126zM203 230h208l-103 297h-2z" />
    <glyph glyph-name="abreve" unicode="&#x103;" horiz-adv-x="518" 
d="M261 595q-62 0 -100 35.5t-41 96.5h65q13 -52 76 -52q62 0 75 52h65q-3 -61 -41 -96.5t-99 -35.5zM213 -15q-79 0 -126.5 42.5t-47.5 113.5q0 67 43.5 106t145.5 63q67 17 92 32t25 40q0 28 -22.5 44t-62.5 16q-45 0 -74.5 -25t-37.5 -69l-113 24q13 78 74.5 125.5
t150.5 47.5q96 0 152 -51.5t56 -140.5v-353h-109v46h-2q-42 -61 -144 -61zM233 89q52 0 84.5 25t32.5 65v91h-2q-14 -27 -92 -49q-55 -14 -78 -30.5t-23 -41.5q0 -60 78 -60z" />
    <glyph glyph-name="Aogonek" unicode="&#x104;" horiz-adv-x="614" 
d="M603 -108l33 -74q-50 -26 -103 -26q-48 0 -75 23t-26 65q1 67 82 120h-24l-41 120h-284l-41 -120h-126l252 700h115l251 -700h-24q-75 -45 -75 -96q0 -30 31 -30q24 0 55 18zM203 230h208l-103 297h-2z" />
    <glyph glyph-name="aogonek" unicode="&#x105;" horiz-adv-x="518" 
d="M466 -108l33 -74q-50 -26 -103 -26q-48 0 -75 23t-26 65q1 67 82 120h-18v46h-2q-42 -61 -144 -61q-79 0 -126.5 42.5t-47.5 113.5q0 67 43.5 106t145.5 63q67 17 92 32t25 40q0 28 -22.5 44t-62.5 16q-45 0 -74.5 -25t-37.5 -69l-113 24q13 78 74.5 125.5t150.5 47.5
q96 0 152 -51.5t56 -140.5v-353h-13q-75 -45 -75 -96q0 -30 31 -30q24 0 55 18zM350 179v91h-2q-14 -27 -92 -49q-55 -14 -78 -30.5t-23 -41.5q0 -60 78 -60q52 0 84.5 25t32.5 65z" />
    <glyph glyph-name="Cacute" unicode="&#x106;" horiz-adv-x="640" 
d="M276 775l85 130h130l-115 -130h-100zM339 -15q-139 0 -221.5 99.5t-82.5 265.5q0 165 83 265t221 100q110 0 185 -68t89 -180l-123 -20q-13 74 -51.5 113.5t-99.5 39.5q-84 0 -131.5 -66.5t-47.5 -183.5t47.5 -183.5t131.5 -66.5q64 0 103 42t49 124l124 -20
q-12 -120 -86.5 -190.5t-189.5 -70.5z" />
    <glyph glyph-name="cacute" unicode="&#x107;" horiz-adv-x="554" 
d="M225 605l85 130h130l-115 -130h-100zM288 -15q-112 0 -182.5 77.5t-70.5 202.5t70.5 202.5t182.5 77.5q94 0 157.5 -52.5t78.5 -141.5l-115 -22q-9 51 -40.5 78.5t-80.5 27.5q-61 0 -97 -46t-36 -124t36 -124t97 -46q102 0 121 106l115 -22q-15 -89 -78.5 -141.5
t-157.5 -52.5z" />
    <glyph glyph-name="Ccircumflex" unicode="&#x108;" horiz-adv-x="640" 
d="M339 844l-71 -89l-65 51l69 87h134l68 -87l-65 -51zM491 266l124 -20q-12 -120 -86.5 -190.5t-189.5 -70.5q-139 0 -221.5 99.5t-82.5 265.5q0 165 83 265t221 100q110 0 185 -68t89 -180l-123 -20q-13 74 -51.5 113.5t-99.5 39.5q-84 0 -131.5 -66.5t-47.5 -183.5
t47.5 -183.5t131.5 -66.5q64 0 103 42t49 124z" />
    <glyph glyph-name="ccircumflex" unicode="&#x109;" horiz-adv-x="554" 
d="M288 674l-71 -89l-65 51l69 87h134l68 -87l-65 -51zM288 95q102 0 121 106l115 -22q-15 -89 -78.5 -141.5t-157.5 -52.5q-112 0 -182.5 77.5t-70.5 202.5t70.5 202.5t182.5 77.5q94 0 157.5 -52.5t78.5 -141.5l-115 -22q-9 51 -40.5 78.5t-80.5 27.5q-61 0 -97 -46
t-36 -124t36 -124t97 -46z" />
    <glyph glyph-name="Cdotaccent" unicode="&#x10a;" horiz-adv-x="640" 
d="M279 775v116h118v-116h-118zM339 -15q-139 0 -221.5 99.5t-82.5 265.5q0 165 83 265t221 100q110 0 185 -68t89 -180l-123 -20q-13 74 -51.5 113.5t-99.5 39.5q-84 0 -131.5 -66.5t-47.5 -183.5t47.5 -183.5t131.5 -66.5q64 0 103 42t49 124l124 -20
q-12 -120 -86.5 -190.5t-189.5 -70.5z" />
    <glyph glyph-name="cdotaccent" unicode="&#x10b;" horiz-adv-x="554" 
d="M228 605v116h118v-116h-118zM288 -15q-112 0 -182.5 77.5t-70.5 202.5t70.5 202.5t182.5 77.5q94 0 157.5 -52.5t78.5 -141.5l-115 -22q-9 51 -40.5 78.5t-80.5 27.5q-61 0 -97 -46t-36 -124t36 -124t97 -46q102 0 121 106l115 -22q-15 -89 -78.5 -141.5t-157.5 -52.5z
" />
    <glyph glyph-name="Ccaron" unicode="&#x10c;" horiz-adv-x="640" 
d="M406 765h-134l-69 87l65 51l71 -89l70 89l65 -51zM491 266l124 -20q-12 -120 -86.5 -190.5t-189.5 -70.5q-139 0 -221.5 99.5t-82.5 265.5q0 165 83 265t221 100q110 0 185 -68t89 -180l-123 -20q-13 74 -51.5 113.5t-99.5 39.5q-84 0 -131.5 -66.5t-47.5 -183.5
t47.5 -183.5t131.5 -66.5q64 0 103 42t49 124z" />
    <glyph glyph-name="ccaron" unicode="&#x10d;" horiz-adv-x="554" 
d="M355 595h-134l-69 87l65 51l71 -89l70 89l65 -51zM288 95q102 0 121 106l115 -22q-15 -89 -78.5 -141.5t-157.5 -52.5q-112 0 -182.5 77.5t-70.5 202.5t70.5 202.5t182.5 77.5q94 0 157.5 -52.5t78.5 -141.5l-115 -22q-9 51 -40.5 78.5t-80.5 27.5q-61 0 -97 -46
t-36 -124t36 -124t97 -46z" />
    <glyph glyph-name="Dcaron" unicode="&#x10e;" horiz-adv-x="648" 
d="M360 750h-134l-69 87l65 51l71 -89l70 89l65 -51zM308 700q140 0 222.5 -94t82.5 -256q0 -167 -82.5 -258.5t-224.5 -91.5h-231v700h233zM305 115q87 0 135 58.5t48 176.5q0 114 -48 174.5t-133 60.5h-107v-470h105z" />
    <glyph glyph-name="dcaron" unicode="&#x10f;" horiz-adv-x="703" 
d="M272 -15q-104 0 -170.5 78.5t-66.5 201.5t67 201.5t171 78.5q88 0 142 -54h2v239h120v-730h-112v49h-2q-52 -64 -151 -64zM590 511v52q23 6 32.5 19t9.5 37h-47v110h122v-97q0 -109 -117 -121zM292 95q53 0 89 36.5t36 91.5v85q0 54 -36 90.5t-91 36.5q-63 0 -99 -45.5
t-36 -124.5t36.5 -124.5t100.5 -45.5z" />
    <glyph glyph-name="Dcroat" unicode="&#x110;" horiz-adv-x="648" 
d="M308 700q140 0 222.5 -94t82.5 -256q0 -167 -82.5 -258.5t-224.5 -91.5h-231v300h-85v101h85v299h233zM305 115q87 0 135 58.5t48 176.5q0 114 -48 174.5t-133 60.5h-107v-184h154v-101h-154v-185h105z" />
    <glyph glyph-name="dcroat" unicode="&#x111;" horiz-adv-x="592" 
d="M592 669v-84h-55v-585h-112v49h-2q-52 -64 -151 -64q-104 0 -170.5 78.5t-66.5 201.5t67 201.5t171 78.5q88 0 142 -54h2v94h-163v84h163v61h120v-61h55zM417 223v85q0 54 -36 90.5t-91 36.5q-63 0 -99 -45.5t-36 -124.5t36.5 -124.5t100.5 -45.5q53 0 89 36.5t36 91.5z
" />
    <glyph glyph-name="Emacron" unicode="&#x112;" horiz-adv-x="560" 
d="M154 760v78h299v-78h-299zM75 0v700h440v-115h-315v-171h287v-111h-287v-188h315v-115h-440z" />
    <glyph glyph-name="emacron" unicode="&#x113;" horiz-adv-x="562" 
d="M132 605v78h299v-78h-299zM284 -15q-111 0 -180 77.5t-69 202.5q0 124 68.5 202t178.5 78t177.5 -75.5t67.5 -198.5v-41h-371q3 -64 37.5 -102.5t90.5 -38.5q44 0 76.5 20.5t62.5 66.5l88 -64q-73 -127 -227 -127zM157 318h251q-3 56 -36 89.5t-89 33.5q-52 0 -87.5 -35
t-38.5 -88z" />
    <glyph glyph-name="Ebreve" unicode="&#x114;" horiz-adv-x="560" 
d="M305 750q-62 0 -100 35.5t-41 96.5h65q13 -52 76 -52q62 0 75 52h65q-3 -61 -41 -96.5t-99 -35.5zM75 0v700h440v-115h-315v-171h287v-111h-287v-188h315v-115h-440z" />
    <glyph glyph-name="ebreve" unicode="&#x115;" horiz-adv-x="562" 
d="M283 595q-62 0 -100 35.5t-41 96.5h65q13 -52 76 -52q62 0 75 52h65q-3 -61 -41 -96.5t-99 -35.5zM284 -15q-111 0 -180 77.5t-69 202.5q0 124 68.5 202t178.5 78t177.5 -75.5t67.5 -198.5v-41h-371q3 -64 37.5 -102.5t90.5 -38.5q44 0 76.5 20.5t62.5 66.5l88 -64
q-73 -127 -227 -127zM157 318h251q-3 56 -36 89.5t-89 33.5q-52 0 -87.5 -35t-38.5 -88z" />
    <glyph glyph-name="Edotaccent" unicode="&#x116;" horiz-adv-x="560" 
d="M244 760v116h118v-116h-118zM75 0v700h440v-115h-315v-171h287v-111h-287v-188h315v-115h-440z" />
    <glyph glyph-name="edotaccent" unicode="&#x117;" horiz-adv-x="562" 
d="M222 605v116h118v-116h-118zM284 -15q-111 0 -180 77.5t-69 202.5q0 124 68.5 202t178.5 78t177.5 -75.5t67.5 -198.5v-41h-371q3 -64 37.5 -102.5t90.5 -38.5q44 0 76.5 20.5t62.5 66.5l88 -64q-73 -127 -227 -127zM157 318h251q-3 56 -36 89.5t-89 33.5
q-52 0 -87.5 -35t-38.5 -88z" />
    <glyph glyph-name="Eogonek" unicode="&#x118;" horiz-adv-x="560" 
d="M515 585h-315v-171h287v-111h-287v-188h315v-115h-51q-75 -45 -75 -96q0 -30 31 -30q24 0 55 18l33 -74q-50 -26 -103 -26q-48 0 -75 23t-26 65q1 67 82 120h-311v700h440v-115z" />
    <glyph glyph-name="eogonek" unicode="&#x119;" horiz-adv-x="562" 
d="M527 271v-41h-371q3 -64 37.5 -102.5t90.5 -38.5q44 0 76.5 20.5t62.5 66.5l88 -64q-49 -84 -132 -112q-75 -45 -75 -96q0 -30 31 -30q24 0 55 18l33 -74q-50 -26 -103 -26q-48 0 -75 23t-26 65q1 57 62 105q-110 2 -178 79t-68 201t68.5 202t178.5 78t177.5 -75.5
t67.5 -198.5zM157 318h251q-3 56 -36 89.5t-89 33.5q-52 0 -87.5 -35t-38.5 -88z" />
    <glyph glyph-name="Ecaron" unicode="&#x11a;" horiz-adv-x="560" 
d="M371 750h-134l-69 87l65 51l71 -89l70 89l65 -51zM515 585h-315v-171h287v-111h-287v-188h315v-115h-440v700h440v-115z" />
    <glyph glyph-name="ecaron" unicode="&#x11b;" horiz-adv-x="562" 
d="M349 595h-134l-69 87l65 51l71 -89l70 89l65 -51zM527 271v-41h-371q3 -64 37.5 -102.5t90.5 -38.5q44 0 76.5 20.5t62.5 66.5l88 -64q-73 -127 -227 -127q-111 0 -180 77.5t-69 202.5q0 124 68.5 202t178.5 78t177.5 -75.5t67.5 -198.5zM157 318h251q-3 56 -36 89.5
t-89 33.5q-52 0 -87.5 -35t-38.5 -88z" />
    <glyph glyph-name="Gcircumflex" unicode="&#x11c;" horiz-adv-x="646" 
d="M339 844l-71 -89l-65 51l69 87h134l68 -87l-65 -51zM348 256v106h261v-87q0 -132 -73.5 -211t-196.5 -79q-139 0 -221.5 99t-82.5 266q0 166 82.5 265.5t221.5 99.5q108 0 183 -65.5t89 -171.5l-123 -20q-13 68 -51.5 105t-97.5 37q-84 0 -131.5 -66.5t-47.5 -183.5
t47.5 -183.5t131.5 -66.5q71 0 111 41.5t40 114.5h-142z" />
    <glyph glyph-name="gcircumflex" unicode="&#x11d;" horiz-adv-x="587" 
d="M279 671l-71 -89l-65 51l69 87h134l68 -87l-65 -51zM420 530h117v-537q0 -107 -65 -170t-174 -63q-76 0 -137.5 35t-94.5 96l95 64q29 -47 60.5 -67t77.5 -20q57 0 89 35t32 95v48h-2q-20 -28 -60 -44.5t-86 -16.5q-103 0 -170 79t-67 201q0 120 67 198.5t171 78.5
q93 0 145 -58h2v46zM417 223v81q0 55 -36 91t-91 36q-63 0 -99 -44.5t-36 -121.5q0 -79 36.5 -124.5t100.5 -45.5q53 0 89 37t36 91z" />
    <glyph glyph-name="Gbreve" unicode="&#x11e;" horiz-adv-x="646" 
d="M340 765q-62 0 -100 35.5t-41 96.5h65q13 -52 76 -52q62 0 75 52h65q-3 -61 -41 -96.5t-99 -35.5zM339 -15q-139 0 -221.5 99t-82.5 266q0 166 82.5 265.5t221.5 99.5q108 0 183 -65.5t89 -171.5l-123 -20q-13 68 -51.5 105t-97.5 37q-84 0 -131.5 -66.5t-47.5 -183.5
t47.5 -183.5t131.5 -66.5q71 0 111 41.5t40 114.5h-142v106h261v-87q0 -132 -73.5 -211t-196.5 -79z" />
    <glyph glyph-name="gbreve" unicode="&#x11f;" horiz-adv-x="587" 
d="M280 592q-62 0 -100 35.5t-41 96.5h65q13 -52 76 -52q62 0 75 52h65q-3 -61 -41 -96.5t-99 -35.5zM298 -240q-76 0 -137.5 35t-94.5 96l95 64q29 -47 60.5 -67t77.5 -20q57 0 89 35t32 95v48h-2q-20 -28 -60 -44.5t-86 -16.5q-103 0 -170 79t-67 201q0 120 67 198.5
t171 78.5q93 0 145 -58h2v46h117v-537q0 -107 -65 -170t-174 -63zM292 95q53 0 89 37t36 91v81q0 55 -36 91t-91 36q-63 0 -99 -44.5t-36 -121.5q0 -79 36.5 -124.5t100.5 -45.5z" />
    <glyph glyph-name="Gdotaccent" unicode="&#x120;" horiz-adv-x="646" 
d="M279 775v116h118v-116h-118zM339 -15q-139 0 -221.5 99t-82.5 266q0 166 82.5 265.5t221.5 99.5q108 0 183 -65.5t89 -171.5l-123 -20q-13 68 -51.5 105t-97.5 37q-84 0 -131.5 -66.5t-47.5 -183.5t47.5 -183.5t131.5 -66.5q71 0 111 41.5t40 114.5h-142v106h261v-87
q0 -132 -73.5 -211t-196.5 -79z" />
    <glyph glyph-name="gdotaccent" unicode="&#x121;" horiz-adv-x="587" 
d="M219 602v116h118v-116h-118zM298 -240q-76 0 -137.5 35t-94.5 96l95 64q29 -47 60.5 -67t77.5 -20q57 0 89 35t32 95v48h-2q-20 -28 -60 -44.5t-86 -16.5q-103 0 -170 79t-67 201q0 120 67 198.5t171 78.5q93 0 145 -58h2v46h117v-537q0 -107 -65 -170t-174 -63zM292 95
q53 0 89 37t36 91v81q0 55 -36 91t-91 36q-63 0 -99 -44.5t-36 -121.5q0 -79 36.5 -124.5t100.5 -45.5z" />
    <glyph glyph-name="Gcommaaccent" unicode="&#x122;" horiz-adv-x="646" 
d="M339 -15q-139 0 -221.5 99t-82.5 266q0 166 82.5 265.5t221.5 99.5q108 0 183 -65.5t89 -171.5l-123 -20q-13 68 -51.5 105t-97.5 37q-84 0 -131.5 -66.5t-47.5 -183.5t47.5 -183.5t131.5 -66.5q71 0 111 41.5t40 114.5h-142v106h261v-87q0 -132 -73.5 -211t-196.5 -79z
M282 -284v52q23 6 32.5 19t9.5 37h-47v110h122v-97q0 -109 -117 -121z" />
    <glyph glyph-name="gcommaaccent" unicode="&#x123;" horiz-adv-x="587" 
d="M340 820v-52q-25 -6 -35 -19t-10 -37h51v-110h-134v97q0 109 128 121zM298 -240q-76 0 -137.5 35t-94.5 96l95 64q29 -47 60.5 -67t77.5 -20q57 0 89 35t32 95v48h-2q-20 -28 -60 -44.5t-86 -16.5q-103 0 -170 79t-67 201q0 120 67 198.5t171 78.5q93 0 145 -58h2v46h117
v-537q0 -107 -65 -170t-174 -63zM292 95q53 0 89 37t36 91v81q0 55 -36 91t-91 36q-63 0 -99 -44.5t-36 -121.5q0 -79 36.5 -124.5t100.5 -45.5z" />
    <glyph glyph-name="Hcircumflex" unicode="&#x124;" horiz-adv-x="657" 
d="M329 829l-71 -89l-65 51l69 87h134l68 -87l-65 -51zM457 700h125v-700h-125v302h-257v-302h-125v700h125v-284h257v284z" />
    <glyph glyph-name="hcircumflex" unicode="&#x125;" horiz-adv-x="566" 
d="M300 829l-71 -89l-65 51l69 87h134l68 -87l-65 -51zM318 545q89 0 143.5 -54.5t54.5 -143.5v-347h-120v321q0 53 -28.5 82.5t-80.5 29.5t-82 -30.5t-30 -81.5v-321h-120v730h120v-247h2q23 29 60.5 45.5t80.5 16.5z" />
    <glyph glyph-name="Hbar" unicode="&#x126;" horiz-adv-x="653" 
d="M653 601v-97h-72v-504h-124v305h-260v-305h-124v504h-73v97h73v99h124v-99h260v99h124v-99h72zM457 412v92h-260v-92h260z" />
    <glyph glyph-name="hbar" unicode="&#x127;" horiz-adv-x="566" 
d="M318 545q89 0 143.5 -54.5t54.5 -143.5v-347h-120v321q0 53 -28.5 82.5t-80.5 29.5t-82 -30.5t-30 -81.5v-321h-120v585h-57v84h57v61h120v-61h161v-84h-161v-102h2q23 29 60.5 45.5t80.5 16.5z" />
    <glyph glyph-name="Itilde" unicode="&#x128;" horiz-adv-x="275" 
d="M202 755q-29 0 -70 19.5t-56 19.5q-28 0 -35 -34h-62q2 51 28 80t67 29q29 0 69.5 -19.5t55.5 -19.5q28 0 35 34h62q-2 -52 -27.5 -80.5t-66.5 -28.5zM75 0v700h125v-700h-125z" />
    <glyph glyph-name="itilde" unicode="&#x129;" horiz-adv-x="230" 
d="M179 585q-29 0 -70 19.5t-56 19.5q-28 0 -35 -34h-62q2 51 28 80t67 29q29 0 69.5 -19.5t55.5 -19.5q28 0 35 34h62q-2 -52 -27.5 -80.5t-66.5 -28.5zM55 0v530h120v-530h-120z" />
    <glyph glyph-name="Imacron" unicode="&#x12a;" horiz-adv-x="275" 
d="M-12 760v78h299v-78h-299zM75 0v700h125v-700h-125z" />
    <glyph glyph-name="imacron" unicode="&#x12b;" horiz-adv-x="230" 
d="M-35 590v78h299v-78h-299zM55 0v530h120v-530h-120z" />
    <glyph glyph-name="Ibreve" unicode="&#x12c;" horiz-adv-x="275" 
d="M139 750q-62 0 -100 35.5t-41 96.5h65q13 -52 76 -52q62 0 75 52h65q-3 -61 -41 -96.5t-99 -35.5zM75 0v700h125v-700h-125z" />
    <glyph glyph-name="ibreve" unicode="&#x12d;" horiz-adv-x="230" 
d="M116 580q-62 0 -100 35.5t-41 96.5h65q13 -52 76 -52q62 0 75 52h65q-3 -61 -41 -96.5t-99 -35.5zM55 0v530h120v-530h-120z" />
    <glyph glyph-name="Iogonek" unicode="&#x12e;" horiz-adv-x="275" 
d="M192 -108l33 -74q-50 -26 -103 -26q-48 0 -75 23t-26 65q1 67 82 120h-28v700h125v-700h-19q-75 -45 -75 -96q0 -30 31 -30q24 0 55 18z" />
    <glyph glyph-name="iogonek" unicode="&#x12f;" horiz-adv-x="230" 
d="M178 741v-121h-126v121h126zM165 -108l33 -74q-50 -26 -103 -26q-48 0 -75 23t-26 65q1 67 82 120h-21v530h120v-530h-21q-75 -45 -75 -96q0 -30 31 -30q24 0 55 18z" />
    <glyph glyph-name="Idotaccent" unicode="&#x130;" horiz-adv-x="275" 
d="M78 760v116h118v-116h-118zM75 0v700h125v-700h-125z" />
    <glyph glyph-name="dotlessi" unicode="&#x131;" horiz-adv-x="230" 
d="M55 0v530h120v-530h-120z" />
    <glyph glyph-name="Jcircumflex" unicode="&#x134;" horiz-adv-x="540" 
d="M475 878l68 -87l-65 -51l-70 89l-71 -89l-65 51l69 87h134zM345 229v471h125v-483q0 -106 -62 -169t-160 -63q-101 0 -159.5 55.5t-65.5 161.5l120 16q6 -63 30.5 -90.5t74.5 -27.5q97 0 97 129z" />
    <glyph glyph-name="jcircumflex" unicode="&#x135;" horiz-adv-x="246" 
d="M198 708l68 -87l-65 -51l-70 89l-71 -89l-65 51l69 87h134zM71 -43v573h120v-577q0 -77 -38 -111t-121 -34h-59v111h51q26 0 36.5 8.5t10.5 29.5z" />
    <glyph glyph-name="Kcommaaccent" unicode="&#x136;" horiz-adv-x="627" 
d="M75 0v700h125v-312h2l257 312h147l-257 -309l280 -391h-150l-207 297h-2l-70 -85v-212h-125zM282 -269v52q23 6 32.5 19t9.5 37h-47v110h122v-97q0 -109 -117 -121z" />
    <glyph glyph-name="kcommaaccent" unicode="&#x137;" horiz-adv-x="544" 
d="M55 0v730h120v-413h2l188 213h157l-193 -210l201 -320h-136l-143 239h-2l-74 -83v-156h-120zM226 -269v52q23 6 32.5 19t9.5 37h-47v110h122v-97q0 -109 -117 -121z" />
    <glyph glyph-name="kgreenlandic" unicode="&#x138;" horiz-adv-x="558" 
d="M55 0v530h120v-213h2l200 213h158l-202 -210l212 -320h-135l-154 239h-2l-79 -83v-156h-120z" />
    <glyph glyph-name="Lacute" unicode="&#x139;" horiz-adv-x="531" 
d="M75 760l85 130h130l-115 -130h-100zM75 0v700h125v-585h303v-115h-428z" />
    <glyph glyph-name="lacute" unicode="&#x13a;" horiz-adv-x="230" 
d="M52 790l85 130h130l-115 -130h-100zM55 0v730h120v-730h-120z" />
    <glyph glyph-name="Lcommaaccent" unicode="&#x13b;" horiz-adv-x="531" 
d="M75 0v700h125v-585h303v-115h-428zM232 -269v52q23 6 32.5 19t9.5 37h-47v110h122v-97q0 -109 -117 -121z" />
    <glyph glyph-name="lcommaaccent" unicode="&#x13c;" horiz-adv-x="230" 
d="M55 0v730h120v-730h-120zM58 -269v52q23 6 32.5 19t9.5 37h-47v110h122v-97q0 -109 -117 -121z" />
    <glyph glyph-name="Lcaron" unicode="&#x13d;" horiz-adv-x="522" 
d="M75 0v700h125v-585h303v-115h-428zM402 481v52q23 6 32.5 19t9.5 37h-47v110h122v-97q0 -109 -117 -121z" />
    <glyph glyph-name="lcaron" unicode="&#x13e;" horiz-adv-x="341" 
d="M55 0v730h120v-730h-120zM227 511v52q23 6 32.5 19t9.5 37h-47v110h122v-97q0 -109 -117 -121z" />
    <glyph glyph-name="Ldot" unicode="&#x13f;" horiz-adv-x="531" 
d="M75 0v700h125v-585h303v-115h-428zM325 330v141h145v-141h-145z" />
    <glyph glyph-name="ldot" unicode="&#x140;" horiz-adv-x="373" 
d="M55 0v730h120v-730h-120zM221 307v141h145v-141h-145z" />
    <glyph glyph-name="Lslash" unicode="&#x141;" horiz-adv-x="591" 
d="M273 115h303v-115h-428v231l-105 -96l-43 47l148 136v382h125v-277l132 122l47 -52l-179 -165v-213z" />
    <glyph glyph-name="lslash" unicode="&#x142;" horiz-adv-x="337" 
d="M356 519l-128 -118v-401h-120v314l-83 -77l-43 46l126 117v330h120v-243l85 79z" />
    <glyph glyph-name="Nacute" unicode="&#x143;" horiz-adv-x="674" 
d="M274 760l85 130h130l-115 -130h-100zM75 0v700h133l264 -489h2v489h125v-700h-133l-264 489h-2v-489h-125z" />
    <glyph glyph-name="nacute" unicode="&#x144;" horiz-adv-x="566" 
d="M242 605l85 130h130l-115 -130h-100zM55 0v530h115v-47h2q23 28 63 45t83 17q90 0 144 -56t54 -149v-340h-120v321q0 53 -28.5 82.5t-80.5 29.5t-82 -30.5t-30 -81.5v-321h-120z" />
    <glyph glyph-name="Ncommaaccent" unicode="&#x145;" horiz-adv-x="674" 
d="M75 0v700h133l264 -489h2v489h125v-700h-133l-264 489h-2v-489h-125zM290 -269v52q23 6 32.5 19t9.5 37h-47v110h122v-97q0 -109 -117 -121z" />
    <glyph glyph-name="ncommaaccent" unicode="&#x146;" horiz-adv-x="566" 
d="M55 0v530h115v-47h2q23 28 63 45t83 17q90 0 144 -56t54 -149v-340h-120v321q0 53 -28.5 82.5t-80.5 29.5t-82 -30.5t-30 -81.5v-321h-120zM228 -269v52q23 6 32.5 19t9.5 37h-47v110h122v-97q0 -109 -117 -121z" />
    <glyph glyph-name="Ncaron" unicode="&#x147;" horiz-adv-x="674" 
d="M404 750h-134l-69 87l65 51l71 -89l70 89l65 -51zM474 700h125v-700h-133l-264 489h-2v-489h-125v700h133l264 -489h2v489z" />
    <glyph glyph-name="ncaron" unicode="&#x148;" horiz-adv-x="566" 
d="M372 595h-134l-69 87l65 51l71 -89l70 89l65 -51zM318 545q90 0 144 -56t54 -149v-340h-120v321q0 53 -28.5 82.5t-80.5 29.5t-82 -30.5t-30 -81.5v-321h-120v530h115v-47h2q23 28 63 45t83 17z" />
    <glyph glyph-name="Eng" unicode="&#x14a;" horiz-adv-x="673" 
d="M473 700h125v-751q0 -76 -38 -108.5t-121 -32.5h-45v111h46q40 0 40 38v43l-278 479h-2v-479h-125v700h122l274 -474h2v474z" />
    <glyph glyph-name="eng" unicode="&#x14b;" horiz-adv-x="566" 
d="M318 545q90 0 144 -56t54 -149v-391q0 -76 -38 -108.5t-122 -32.5h-44v111h44q21 0 30.5 9t9.5 31v362q0 53 -28.5 82.5t-80.5 29.5t-82 -30.5t-30 -81.5v-321h-120v530h115v-47h2q23 28 63 45t83 17z" />
    <glyph glyph-name="Omacron" unicode="&#x14c;" horiz-adv-x="677" 
d="M189 775v78h299v-78h-299zM339 -15q-138 0 -221 100t-83 265t83 265t221 100q137 0 220 -100t83 -265t-83 -265t-220 -100zM339 100q83 0 130.5 67t47.5 183t-47.5 183t-130.5 67t-131 -67t-48 -183q0 -117 47.5 -183.5t131.5 -66.5z" />
    <glyph glyph-name="omacron" unicode="&#x14d;" horiz-adv-x="585" 
d="M142 605v78h299v-78h-299zM292 -15q-115 0 -186 77.5t-71 202.5t71 202.5t186 77.5t186.5 -77.5t71.5 -202.5t-71.5 -202.5t-186.5 -77.5zM292 95q65 0 101.5 45.5t36.5 124.5t-36.5 124.5t-101.5 45.5q-64 0 -100.5 -45t-36.5 -125t36.5 -125t100.5 -45z" />
    <glyph glyph-name="Obreve" unicode="&#x14e;" horiz-adv-x="677" 
d="M340 765q-62 0 -100 35.5t-41 96.5h65q13 -52 76 -52q62 0 75 52h65q-3 -61 -41 -96.5t-99 -35.5zM339 -15q-138 0 -221 100t-83 265t83 265t221 100q137 0 220 -100t83 -265t-83 -265t-220 -100zM339 100q83 0 130.5 67t47.5 183t-47.5 183t-130.5 67t-131 -67t-48 -183
q0 -117 47.5 -183.5t131.5 -66.5z" />
    <glyph glyph-name="obreve" unicode="&#x14f;" horiz-adv-x="585" 
d="M293 595q-62 0 -100 35.5t-41 96.5h65q13 -52 76 -52q62 0 75 52h65q-3 -61 -41 -96.5t-99 -35.5zM292 -15q-115 0 -186 77.5t-71 202.5t71 202.5t186 77.5t186.5 -77.5t71.5 -202.5t-71.5 -202.5t-186.5 -77.5zM292 95q65 0 101.5 45.5t36.5 124.5t-36.5 124.5
t-101.5 45.5q-64 0 -100.5 -45t-36.5 -125t36.5 -125t100.5 -45z" />
    <glyph glyph-name="Ohungarumlaut" unicode="&#x150;" horiz-adv-x="677" 
d="M179 775l85 130h127l-115 -130h-97zM361 775l85 130h127l-115 -130h-97zM339 -15q-138 0 -221 100t-83 265t83 265t221 100q137 0 220 -100t83 -265t-83 -265t-220 -100zM339 100q83 0 130.5 67t47.5 183t-47.5 183t-130.5 67t-131 -67t-48 -183q0 -117 47.5 -183.5
t131.5 -66.5z" />
    <glyph glyph-name="ohungarumlaut" unicode="&#x151;" horiz-adv-x="585" 
d="M132 605l85 130h127l-115 -130h-97zM314 605l85 130h127l-115 -130h-97zM292 -15q-115 0 -186 77.5t-71 202.5t71 202.5t186 77.5t186.5 -77.5t71.5 -202.5t-71.5 -202.5t-186.5 -77.5zM292 95q65 0 101.5 45.5t36.5 124.5t-36.5 124.5t-101.5 45.5q-64 0 -100.5 -45
t-36.5 -125t36.5 -125t100.5 -45z" />
    <glyph glyph-name="OE" unicode="&#x152;" horiz-adv-x="938" 
d="M332 -15q-133 0 -215 100t-82 265t82 265t215 100q89 0 151 -41h2v26h407v-113h-284v-174h257v-110h-257v-190h285v-113h-408v27h-2q-61 -42 -151 -42zM338 98q97 0 147 77v348q-50 79 -147 79q-83 0 -131.5 -67.5t-48.5 -184.5q0 -118 48 -185t132 -67z" />
    <glyph glyph-name="oe" unicode="&#x153;" horiz-adv-x="956" 
d="M921 271v-41h-372q2 -63 37 -101.5t91 -38.5q45 0 77 20t62 67l89 -65q-76 -127 -227 -127q-122 0 -190 92q-68 -92 -194 -92q-115 0 -187 77.5t-72 202.5t72 202.5t187 77.5q125 0 195 -92q65 92 186 92q110 0 178 -76t68 -198zM550 318h252q-3 56 -36.5 89.5
t-89.5 33.5q-51 0 -87 -35.5t-39 -87.5zM294 94q64 0 100.5 45.5t36.5 125.5t-36.5 125.5t-100.5 45.5t-101 -45.5t-37 -125.5t37 -125.5t101 -45.5z" />
    <glyph glyph-name="Racute" unicode="&#x154;" horiz-adv-x="617" 
d="M456 890l-115 -130h-100l85 130h130zM435 272v-1l147 -271h-137l-139 260h-106v-260h-125v700h274q110 0 173.5 -58.5t63.5 -160.5q0 -79 -39.5 -133.5t-111.5 -75.5zM200 375h135q126 0 126 106q0 104 -126 104h-135v-210z" />
    <glyph glyph-name="racute" unicode="&#x155;" horiz-adv-x="356" 
d="M110 590l85 130h130l-115 -130h-100zM55 0v530h113v-46h2q36 56 112 56q36 0 64 -9l-21 -117q-33 9 -57 9q-93 0 -93 -126v-297h-120z" />
    <glyph glyph-name="Rcommaaccent" unicode="&#x156;" horiz-adv-x="617" 
d="M435 272v-1l147 -271h-137l-139 260h-106v-260h-125v700h274q110 0 173.5 -58.5t63.5 -160.5q0 -79 -39.5 -133.5t-111.5 -75.5zM200 375h135q126 0 126 106q0 104 -126 104h-135v-210zM252 -161v110h122v-97q0 -109 -117 -121v52q23 6 32.5 19t9.5 37h-47z" />
    <glyph glyph-name="rcommaaccent" unicode="&#x157;" horiz-adv-x="356" 
d="M55 0v530h113v-46h2q36 56 112 56q36 0 64 -9l-21 -117q-33 9 -57 9q-93 0 -93 -126v-297h-120zM58 -269v52q23 6 32.5 19t9.5 37h-47v110h122v-97q0 -109 -117 -121z" />
    <glyph glyph-name="Rcaron" unicode="&#x158;" horiz-adv-x="617" 
d="M371 750h-134l-69 87l65 51l71 -89l70 89l65 -51zM435 272v-1l147 -271h-137l-139 260h-106v-260h-125v700h274q110 0 173.5 -58.5t63.5 -160.5q0 -79 -39.5 -133.5t-111.5 -75.5zM200 375h135q126 0 126 106q0 104 -126 104h-135v-210z" />
    <glyph glyph-name="rcaron" unicode="&#x159;" horiz-adv-x="356" 
d="M240 580h-134l-69 87l65 51l71 -89l70 89l65 -51zM282 540q36 0 64 -9l-21 -117q-33 9 -57 9q-93 0 -93 -126v-297h-120v530h113v-46h2q36 56 112 56z" />
    <glyph glyph-name="Sacute" unicode="&#x15a;" horiz-adv-x="595" 
d="M227 775l85 130h130l-115 -130h-100zM318 -15q-127 0 -201.5 63t-91.5 183l123 25q13 -83 53 -120t119 -37q58 0 91.5 22.5t33.5 61.5q0 42 -34.5 69t-128.5 58q-124 41 -174 88.5t-50 123.5q0 85 64.5 139t167.5 54q101 0 172.5 -56t88.5 -149l-122 -26
q-31 117 -139 117q-49 0 -78.5 -21.5t-29.5 -57.5q0 -31 30 -52.5t113 -48.5q133 -45 189 -99t56 -138q0 -89 -69.5 -144t-182.5 -55z" />
    <glyph glyph-name="sacute" unicode="&#x15b;" horiz-adv-x="500" 
d="M184 605l85 130h130l-115 -130h-100zM268 -15q-101 0 -164.5 49t-78.5 140l109 28q13 -60 44.5 -87.5t89.5 -27.5q43 0 68 14.5t25 39.5q0 31 -29.5 49.5t-96.5 38.5q-91 26 -137 59.5t-46 99.5q0 68 55.5 112.5t139.5 44.5q80 0 140 -43t78 -113l-110 -31
q-27 85 -108 85q-37 0 -59 -14.5t-22 -38.5q0 -21 25 -34.5t81 -29.5q47 -14 78.5 -26.5t62.5 -33t46.5 -50.5t15.5 -70q0 -73 -56.5 -117t-150.5 -44z" />
    <glyph glyph-name="Scircumflex" unicode="&#x15c;" horiz-adv-x="595" 
d="M290 844l-71 -89l-65 51l69 87h134l68 -87l-65 -51zM325 421q133 -45 189 -99t56 -138q0 -89 -69.5 -144t-182.5 -55q-127 0 -201.5 63t-91.5 183l123 25q13 -83 53 -120t119 -37q58 0 91.5 22.5t33.5 61.5q0 42 -34.5 69t-128.5 58q-124 41 -174 88.5t-50 123.5
q0 85 64.5 139t167.5 54q101 0 172.5 -56t88.5 -149l-122 -26q-31 117 -139 117q-49 0 -78.5 -21.5t-29.5 -57.5q0 -31 30 -52.5t113 -48.5z" />
    <glyph glyph-name="scircumflex" unicode="&#x15d;" horiz-adv-x="500" 
d="M247 674l-71 -89l-65 51l69 87h134l68 -87l-65 -51zM272 326q47 -14 78.5 -26.5t62.5 -33t46.5 -50.5t15.5 -70q0 -73 -56.5 -117t-150.5 -44q-101 0 -164.5 49t-78.5 140l109 28q13 -60 44.5 -87.5t89.5 -27.5q43 0 68 14.5t25 39.5q0 31 -29.5 49.5t-96.5 38.5
q-91 26 -137 59.5t-46 99.5q0 68 55.5 112.5t139.5 44.5q80 0 140 -43t78 -113l-110 -31q-27 85 -108 85q-37 0 -59 -14.5t-22 -38.5q0 -21 25 -34.5t81 -29.5z" />
    <glyph glyph-name="Scedilla" unicode="&#x15e;" horiz-adv-x="595" 
d="M570 184q0 -84 -61.5 -137.5t-163.5 -60.5l-25 -41q12 3 26 3q43 0 71.5 -26.5t28.5 -67.5q0 -47 -31 -75t-83 -28q-61 0 -109 40l42 56q34 -28 64 -28q20 0 32.5 11t12.5 28q0 16 -12 25.5t-32 9.5q-30 0 -51 -24l-51 23l52 95q-110 9 -175 71t-80 173l123 25
q13 -83 53 -120t119 -37q58 0 91.5 22.5t33.5 61.5q0 42 -34.5 69t-128.5 58q-124 41 -174 88.5t-50 123.5q0 85 64.5 139t167.5 54q101 0 172.5 -56t88.5 -149l-122 -26q-31 117 -139 117q-49 0 -78.5 -21.5t-29.5 -57.5q0 -31 30 -52.5t113 -48.5q133 -45 189 -99t56 -138
z" />
    <glyph glyph-name="scedilla" unicode="&#x15f;" horiz-adv-x="500" 
d="M475 146q0 -67 -48.5 -110t-131.5 -50l-25 -41q12 3 26 3q43 0 71.5 -26.5t28.5 -67.5q0 -47 -31 -75t-83 -28q-61 0 -109 40l42 56q34 -28 64 -28q20 0 32.5 11t12.5 28q0 16 -12 25.5t-32 9.5q-30 0 -51 -24l-51 23l52 95q-85 9 -138.5 57.5t-66.5 129.5l109 28
q13 -60 44.5 -87.5t89.5 -27.5q43 0 68 14.5t25 39.5q0 31 -29.5 49.5t-96.5 38.5q-91 26 -137 59.5t-46 99.5q0 68 55.5 112.5t139.5 44.5q80 0 140 -43t78 -113l-110 -31q-27 85 -108 85q-37 0 -59 -14.5t-22 -38.5q0 -21 25 -34.5t81 -29.5q47 -14 78.5 -26.5t62.5 -33
t46.5 -50.5t15.5 -70z" />
    <glyph glyph-name="Scaron" unicode="&#x160;" horiz-adv-x="595" 
d="M357 765h-134l-69 87l65 51l71 -89l70 89l65 -51zM325 421q133 -45 189 -99t56 -138q0 -89 -69.5 -144t-182.5 -55q-127 0 -201.5 63t-91.5 183l123 25q13 -83 53 -120t119 -37q58 0 91.5 22.5t33.5 61.5q0 42 -34.5 69t-128.5 58q-124 41 -174 88.5t-50 123.5
q0 85 64.5 139t167.5 54q101 0 172.5 -56t88.5 -149l-122 -26q-31 117 -139 117q-49 0 -78.5 -21.5t-29.5 -57.5q0 -31 30 -52.5t113 -48.5z" />
    <glyph glyph-name="scaron" unicode="&#x161;" horiz-adv-x="500" 
d="M314 595h-134l-69 87l65 51l71 -89l70 89l65 -51zM272 326q47 -14 78.5 -26.5t62.5 -33t46.5 -50.5t15.5 -70q0 -73 -56.5 -117t-150.5 -44q-101 0 -164.5 49t-78.5 140l109 28q13 -60 44.5 -87.5t89.5 -27.5q43 0 68 14.5t25 39.5q0 31 -29.5 49.5t-96.5 38.5
q-91 26 -137 59.5t-46 99.5q0 68 55.5 112.5t139.5 44.5q80 0 140 -43t78 -113l-110 -31q-27 85 -108 85q-37 0 -59 -14.5t-22 -38.5q0 -21 25 -34.5t81 -29.5z" />
    <glyph glyph-name="uni0162" unicode="&#x162;" horiz-adv-x="597" 
d="M361 0h-36l-24 -40q12 3 26 3q43 0 71.5 -26.5t28.5 -67.5q0 -47 -31 -75t-83 -28q-61 0 -109 40l42 56q34 -28 64 -28q20 0 32.5 11t12.5 28q0 16 -12 25.5t-32 9.5q-30 0 -51 -24l-51 23l51 93h-24v585h-208v115h541v-115h-208v-585z" />
    <glyph glyph-name="uni0163" unicode="&#x163;" horiz-adv-x="371" 
d="M348 423h-131v-263q0 -26 12 -35.5t44 -9.5h53v-115h-64q-18 0 -26 1l-25 -41q12 3 26 3q43 0 71.5 -26.5t28.5 -67.5q0 -47 -31 -75t-83 -28q-61 0 -109 40l42 56q34 -28 64 -28q20 0 32.5 11t12.5 28q0 16 -12 25.5t-32 9.5q-30 0 -51 -24l-51 23l57 104
q-42 14 -60.5 48.5t-18.5 94.5v269h-87v107h87v129h120v-129h131v-107z" />
    <glyph glyph-name="Tcaron" unicode="&#x164;" horiz-adv-x="597" 
d="M366 750h-134l-69 87l65 51l71 -89l70 89l65 -51zM28 700h541v-115h-208v-585h-125v585h-208v115z" />
    <glyph glyph-name="tcaron" unicode="&#x165;" horiz-adv-x="371" 
d="M265 796h122v-97q0 -109 -117 -121v52q23 6 32.5 19t9.5 37h-47v110zM217 659v-129h131v-107h-131v-263q0 -26 12 -35.5t44 -9.5h53v-115h-64q-89 0 -127 35t-38 119v269h-87v107h87v129h120z" />
    <glyph glyph-name="Tbar" unicode="&#x166;" horiz-adv-x="597" 
d="M569 585h-208v-197h120v-101h-120v-287h-125v287h-119v101h119v197h-208v115h541v-115z" />
    <glyph glyph-name="tbar" unicode="&#x167;" horiz-adv-x="371" 
d="M348 423h-131v-105h131v-84h-131v-74q0 -26 12 -35.5t44 -9.5h53v-115h-64q-89 0 -127 35t-38 119v80h-87v84h87v105h-87v107h87v129h120v-129h131v-107z" />
    <glyph glyph-name="Utilde" unicode="&#x168;" horiz-adv-x="664" 
d="M396 755q-29 0 -70 19.5t-56 19.5q-28 0 -35 -34h-62q2 51 28 80t67 29q29 0 69.5 -19.5t55.5 -19.5q28 0 35 34h62q-2 -52 -27.5 -80.5t-66.5 -28.5zM331 -15q-124 0 -192.5 64.5t-68.5 180.5v470h125v-462q0 -138 136 -138q138 0 138 136v464h125v-470
q0 -116 -69 -180.5t-194 -64.5z" />
    <glyph glyph-name="utilde" unicode="&#x169;" horiz-adv-x="554" 
d="M336 585q-29 0 -70 19.5t-56 19.5q-28 0 -35 -34h-62q2 51 28 80t67 29q29 0 69.5 -19.5t55.5 -19.5q28 0 35 34h62q-2 -52 -27.5 -80.5t-66.5 -28.5zM235 -15q-90 0 -140 52t-50 146v347h120v-322q0 -113 106 -113q49 0 78.5 31t29.5 82v322h120v-530h-116v47h-2
q-51 -62 -146 -62z" />
    <glyph glyph-name="Umacron" unicode="&#x16a;" horiz-adv-x="664" 
d="M182 760v78h299v-78h-299zM331 -15q-124 0 -192.5 64.5t-68.5 180.5v470h125v-462q0 -138 136 -138q138 0 138 136v464h125v-470q0 -116 -69 -180.5t-194 -64.5z" />
    <glyph glyph-name="umacron" unicode="&#x16b;" horiz-adv-x="554" 
d="M122 590v78h299v-78h-299zM235 -15q-90 0 -140 52t-50 146v347h120v-322q0 -113 106 -113q49 0 78.5 31t29.5 82v322h120v-530h-116v47h-2q-51 -62 -146 -62z" />
    <glyph glyph-name="Ubreve" unicode="&#x16c;" horiz-adv-x="664" 
d="M333 750q-62 0 -100 35.5t-41 96.5h65q13 -52 76 -52q62 0 75 52h65q-3 -61 -41 -96.5t-99 -35.5zM331 -15q-124 0 -192.5 64.5t-68.5 180.5v470h125v-462q0 -138 136 -138q138 0 138 136v464h125v-470q0 -116 -69 -180.5t-194 -64.5z" />
    <glyph glyph-name="ubreve" unicode="&#x16d;" horiz-adv-x="554" 
d="M273 580q-62 0 -100 35.5t-41 96.5h65q13 -52 76 -52q62 0 75 52h65q-3 -61 -41 -96.5t-99 -35.5zM235 -15q-90 0 -140 52t-50 146v347h120v-322q0 -113 106 -113q49 0 78.5 31t29.5 82v322h120v-530h-116v47h-2q-51 -62 -146 -62z" />
    <glyph glyph-name="Uring" unicode="&#x16e;" horiz-adv-x="664" 
d="M332 640q-61 0 -100.5 36t-39.5 91t39.5 91t100.5 36t101 -36t40 -91t-40 -91t-101 -36zM332 700q30 0 49 19t19 48t-19 48t-49 19t-48.5 -19t-18.5 -48t18.5 -48t48.5 -19zM331 -15q-124 0 -192.5 64.5t-68.5 180.5v470h125v-462q0 -138 136 -138q138 0 138 136v464h125
v-470q0 -116 -69 -180.5t-194 -64.5z" />
    <glyph glyph-name="uring" unicode="&#x16f;" horiz-adv-x="554" 
d="M280 533q-61 0 -100.5 36t-39.5 91t39.5 91t100.5 36t101 -36t40 -91t-40 -91t-101 -36zM280 593q30 0 49 19t19 48t-19 48t-49 19t-48.5 -19t-18.5 -48t18.5 -48t48.5 -19zM235 -15q-90 0 -140 52t-50 146v347h120v-322q0 -113 106 -113q49 0 78.5 31t29.5 82v322h120
v-530h-116v47h-2q-51 -62 -146 -62z" />
    <glyph glyph-name="Uhungarumlaut" unicode="&#x170;" horiz-adv-x="664" 
d="M172 760l85 130h127l-115 -130h-97zM354 760l85 130h127l-115 -130h-97zM331 -15q-124 0 -192.5 64.5t-68.5 180.5v470h125v-462q0 -138 136 -138q138 0 138 136v464h125v-470q0 -116 -69 -180.5t-194 -64.5z" />
    <glyph glyph-name="uhungarumlaut" unicode="&#x171;" horiz-adv-x="554" 
d="M112 590l85 130h127l-115 -130h-97zM294 590l85 130h127l-115 -130h-97zM235 -15q-90 0 -140 52t-50 146v347h120v-322q0 -113 106 -113q49 0 78.5 31t29.5 82v322h120v-530h-116v47h-2q-51 -62 -146 -62z" />
    <glyph glyph-name="Uogonek" unicode="&#x172;" horiz-adv-x="664" 
d="M469 700h125v-470q0 -89 -41 -148t-117 -82q-74 -45 -74 -96q0 -30 31 -30q24 0 55 18l33 -74q-50 -26 -103 -26q-48 0 -75 23t-26 65q1 57 62 105h-8q-124 0 -192.5 64.5t-68.5 180.5v470h125v-462q0 -138 136 -138q138 0 138 136v464z" />
    <glyph glyph-name="uogonek" unicode="&#x173;" horiz-adv-x="554" 
d="M493 -108l33 -74q-50 -26 -103 -26q-48 0 -75 23t-26 65q1 67 82 120h-21v47h-2q-51 -62 -146 -62q-90 0 -140 52t-50 146v347h120v-322q0 -113 106 -113q49 0 78.5 31t29.5 82v322h120v-530h-17q-75 -45 -75 -96q0 -30 31 -30q24 0 55 18z" />
    <glyph glyph-name="Wcircumflex" unicode="&#x174;" horiz-adv-x="885" 
d="M442 829l-71 -89l-65 51l69 87h134l68 -87l-65 -51zM744 700h127l-141 -700h-138l-149 511h-2l-148 -511h-137l-143 700h129l97 -499h2l143 499h117l143 -499h2z" />
    <glyph glyph-name="wcircumflex" unicode="&#x175;" horiz-adv-x="782" 
d="M391 659l-71 -89l-65 51l69 87h134l68 -87l-65 -51zM645 530h119l-122 -530h-118l-132 388h-2l-132 -388h-118l-122 530h119l77 -364h2l122 364h106l122 -364h2z" />
    <glyph glyph-name="Ycircumflex" unicode="&#x176;" horiz-adv-x="587" 
d="M294 829l-71 -89l-65 51l69 87h134l68 -87l-65 -51zM457 700h136l-237 -413v-287h-125v287l-238 413h136l163 -301h2z" />
    <glyph glyph-name="ycircumflex" unicode="&#x177;" horiz-adv-x="536" 
d="M268 659l-71 -89l-65 51l69 87h134l68 -87l-65 -51zM409 530h124l-309 -755h-123l106 258l-204 497h125l139 -357h2z" />
    <glyph glyph-name="Ydieresis" unicode="&#x178;" horiz-adv-x="587" 
d="M136 750v116h118v-116h-118zM334 750v116h118v-116h-118zM231 0v287l-238 413h136l163 -301h2l163 301h136l-237 -413v-287h-125z" />
    <glyph glyph-name="Zacute" unicode="&#x179;" horiz-adv-x="585" 
d="M236 760l85 130h130l-115 -130h-100zM38 0v104l354 479v2h-341v115h496v-104l-354 -479v-2h350v-115h-505z" />
    <glyph glyph-name="zacute" unicode="&#x17a;" horiz-adv-x="522" 
d="M198 590l85 130h130l-115 -130h-100zM27 0v99l293 320v2h-284v109h448v-99l-293 -320v-2h304v-109h-468z" />
    <glyph glyph-name="Zdotaccent" unicode="&#x17b;" horiz-adv-x="585" 
d="M239 760v116h118v-116h-118zM38 0v104l354 479v2h-341v115h496v-104l-354 -479v-2h350v-115h-505z" />
    <glyph glyph-name="zdotaccent" unicode="&#x17c;" horiz-adv-x="522" 
d="M198 620v121h126v-121h-126zM27 0v99l293 320v2h-284v109h448v-99l-293 -320v-2h304v-109h-468z" />
    <glyph glyph-name="Zcaron" unicode="&#x17d;" horiz-adv-x="585" 
d="M366 750h-134l-69 87l65 51l71 -89l70 89l65 -51zM547 596l-354 -479v-2h350v-115h-505v104l354 479v2h-341v115h496v-104z" />
    <glyph glyph-name="zcaron" unicode="&#x17e;" horiz-adv-x="522" 
d="M328 580h-134l-69 87l65 51l71 -89l70 89l65 -51zM191 109h304v-109h-468v99l293 320v2h-284v109h448v-99l-293 -320v-2z" />
    <glyph glyph-name="longs" unicode="&#x17f;" horiz-adv-x="308" 
d="M99 0v422h-89v108h89v60q0 64 38.5 100.5t109.5 36.5h92v-108h-78q-42 0 -42 -41v-578h-120z" />
    <glyph glyph-name="uni018E" unicode="&#x18e;" horiz-adv-x="560" 
d="M485 0h-440v115h315v188h-287v111h287v171h-315v115h440v-700z" />
    <glyph glyph-name="uni018F" unicode="&#x18f;" horiz-adv-x="665" 
d="M332 -15q-139 0 -218 97t-79 268v46h468q-5 95 -51 149.5t-120 54.5q-116 0 -160 -124l-117 41q36 95 108 146.5t169 51.5q137 0 217.5 -99t80.5 -268q0 -167 -80.5 -265t-217.5 -98zM332 100q72 0 117 50.5t54 140.5h-338q4 -90 48.5 -140.5t118.5 -50.5z" />
    <glyph glyph-name="florin" unicode="&#x192;" horiz-adv-x="460" 
d="M347 619q-46 0 -54 -46l-8 -43h130v-108h-148l-75 -417h1l-12 -64q-23 -133 -167 -133h-67v109h64q25 0 37.5 10t16.5 35l82 460h-115v108h133l12 65q23 132 167 132h88v-108h-85z" />
    <glyph glyph-name="uni01CD" unicode="&#x1cd;" horiz-adv-x="614" 
d="M375 750h-134l-69 87l65 51l71 -89l70 89l65 -51zM490 0l-41 120h-284l-41 -120h-126l252 700h115l251 -700h-126zM203 230h208l-103 297h-2z" />
    <glyph glyph-name="uni01CE" unicode="&#x1ce;" horiz-adv-x="518" 
d="M327 595h-134l-69 87l65 51l71 -89l70 89l65 -51zM260 545q96 0 152 -51.5t56 -140.5v-353h-109v46h-2q-42 -61 -144 -61q-79 0 -126.5 42.5t-47.5 113.5q0 67 43.5 106t145.5 63q67 17 92 32t25 40q0 28 -22.5 44t-62.5 16q-45 0 -74.5 -25t-37.5 -69l-113 24
q13 78 74.5 125.5t150.5 47.5zM350 179v91h-2q-14 -27 -92 -49q-55 -14 -78 -30.5t-23 -41.5q0 -60 78 -60q52 0 84.5 25t32.5 65z" />
    <glyph glyph-name="uni01CF" unicode="&#x1cf;" horiz-adv-x="275" 
d="M208 888l65 -51l-68 -87h-134l-69 87l65 51l71 -89zM75 0v700h125v-700h-125z" />
    <glyph glyph-name="uni01D0" unicode="&#x1d0;" horiz-adv-x="230" 
d="M185 718l65 -51l-68 -87h-134l-69 87l65 51l71 -89zM55 0v530h120v-530h-120z" />
    <glyph glyph-name="uni01D1" unicode="&#x1d1;" horiz-adv-x="677" 
d="M406 765h-134l-69 87l65 51l71 -89l70 89l65 -51zM339 715q137 0 220 -100t83 -265t-83 -265t-220 -100q-138 0 -221 100t-83 265t83 265t221 100zM339 100q83 0 130.5 67t47.5 183t-47.5 183t-130.5 67t-131 -67t-48 -183q0 -117 47.5 -183.5t131.5 -66.5z" />
    <glyph glyph-name="uni01D2" unicode="&#x1d2;" horiz-adv-x="585" 
d="M359 595h-134l-69 87l65 51l71 -89l70 89l65 -51zM292 545q115 0 186.5 -77.5t71.5 -202.5t-71.5 -202.5t-186.5 -77.5t-186 77.5t-71 202.5t71 202.5t186 77.5zM292 95q65 0 101.5 45.5t36.5 124.5t-36.5 124.5t-101.5 45.5q-64 0 -100.5 -45t-36.5 -125t36.5 -125
t100.5 -45z" />
    <glyph glyph-name="uni01D3" unicode="&#x1d3;" horiz-adv-x="664" 
d="M399 750h-134l-69 87l65 51l71 -89l70 89l65 -51zM469 700h125v-470q0 -116 -69 -180.5t-194 -64.5q-124 0 -192.5 64.5t-68.5 180.5v470h125v-462q0 -138 136 -138q138 0 138 136v464z" />
    <glyph glyph-name="uni01D4" unicode="&#x1d4;" horiz-adv-x="554" 
d="M339 580h-134l-69 87l65 51l71 -89l70 89l65 -51zM379 530h120v-530h-116v47h-2q-51 -62 -146 -62q-90 0 -140 52t-50 146v347h120v-322q0 -113 106 -113q49 0 78.5 31t29.5 82v322z" />
    <glyph glyph-name="uni01D5" unicode="&#x1d5;" horiz-adv-x="664" 
d="M182 906v78h299v-78h-299zM174 750v116h118v-116h-118zM372 750v116h118v-116h-118zM331 -15q-124 0 -192.5 64.5t-68.5 180.5v470h125v-462q0 -138 136 -138q138 0 138 136v464h125v-470q0 -116 -69 -180.5t-194 -64.5z" />
    <glyph glyph-name="uni01D6" unicode="&#x1d6;" horiz-adv-x="554" 
d="M122 736v78h299v-78h-299zM114 580v116h118v-116h-118zM312 580v116h118v-116h-118zM235 -15q-90 0 -140 52t-50 146v347h120v-322q0 -113 106 -113q49 0 78.5 31t29.5 82v322h120v-530h-116v47h-2q-51 -62 -146 -62z" />
    <glyph glyph-name="uni01D7" unicode="&#x1d7;" horiz-adv-x="664" 
d="M269 906l85 130h130l-115 -130h-100zM174 750v116h118v-116h-118zM372 750v116h118v-116h-118zM331 -15q-124 0 -192.5 64.5t-68.5 180.5v470h125v-462q0 -138 136 -138q138 0 138 136v464h125v-470q0 -116 -69 -180.5t-194 -64.5z" />
    <glyph glyph-name="uni01D8" unicode="&#x1d8;" horiz-adv-x="554" 
d="M209 736l85 130h130l-115 -130h-100zM114 580v116h118v-116h-118zM312 580v116h118v-116h-118zM235 -15q-90 0 -140 52t-50 146v347h120v-322q0 -113 106 -113q49 0 78.5 31t29.5 82v322h120v-530h-116v47h-2q-51 -62 -146 -62z" />
    <glyph glyph-name="uni01D9" unicode="&#x1d9;" horiz-adv-x="664" 
d="M399 896h-134l-69 87l65 51l71 -89l70 89l65 -51zM292 866v-116h-118v116h118zM372 750v116h118v-116h-118zM469 700h125v-470q0 -116 -69 -180.5t-194 -64.5q-124 0 -192.5 64.5t-68.5 180.5v470h125v-462q0 -138 136 -138q138 0 138 136v464z" />
    <glyph glyph-name="uni01DA" unicode="&#x1da;" horiz-adv-x="554" 
d="M339 726h-134l-69 87l65 51l71 -89l70 89l65 -51zM232 696v-116h-118v116h118zM312 580v116h118v-116h-118zM379 530h120v-530h-116v47h-2q-51 -62 -146 -62q-90 0 -140 52t-50 146v347h120v-322q0 -113 106 -113q49 0 78.5 31t29.5 82v322z" />
    <glyph glyph-name="uni01DB" unicode="&#x1db;" horiz-adv-x="664" 
d="M293 906l-115 130h130l85 -130h-100zM174 750v116h118v-116h-118zM372 750v116h118v-116h-118zM331 -15q-124 0 -192.5 64.5t-68.5 180.5v470h125v-462q0 -138 136 -138q138 0 138 136v464h125v-470q0 -116 -69 -180.5t-194 -64.5z" />
    <glyph glyph-name="uni01DC" unicode="&#x1dc;" horiz-adv-x="554" 
d="M233 736l-115 130h130l85 -130h-100zM114 580v116h118v-116h-118zM312 580v116h118v-116h-118zM235 -15q-90 0 -140 52t-50 146v347h120v-322q0 -113 106 -113q49 0 78.5 31t29.5 82v322h120v-530h-116v47h-2q-51 -62 -146 -62z" />
    <glyph glyph-name="uni01DE" unicode="&#x1de;" horiz-adv-x="614" 
d="M457 984v-78h-299v78h299zM268 866v-116h-118v116h118zM348 750v116h118v-116h-118zM490 0l-41 120h-284l-41 -120h-126l252 700h115l251 -700h-126zM203 230h208l-103 297h-2z" />
    <glyph glyph-name="uni01DF" unicode="&#x1df;" horiz-adv-x="518" 
d="M110 751v78h299v-78h-299zM102 595v116h118v-116h-118zM300 595v116h118v-116h-118zM213 -15q-79 0 -126.5 42.5t-47.5 113.5q0 67 43.5 106t145.5 63q67 17 92 32t25 40q0 28 -22.5 44t-62.5 16q-45 0 -74.5 -25t-37.5 -69l-113 24q13 78 74.5 125.5t150.5 47.5
q96 0 152 -51.5t56 -140.5v-353h-109v46h-2q-42 -61 -144 -61zM233 89q52 0 84.5 25t32.5 65v91h-2q-14 -27 -92 -49q-55 -14 -78 -30.5t-23 -41.5q0 -60 78 -60z" />
    <glyph glyph-name="Aringacute" unicode="&#x1fa;" horiz-adv-x="614" 
d="M490 0l-41 120h-284l-41 -120h-126l237 657q-67 36 -67 110q0 40 22 71t59 45l81 124h130l-106 -119q43 -13 69 -45.5t26 -75.5q0 -75 -68 -110l235 -657h-126zM308 834q-30 0 -48.5 -19t-18.5 -48t18.5 -48t48.5 -19t49 19t19 48t-19 48t-49 19zM203 230h208l-103 297
h-2z" />
    <glyph glyph-name="aringacute" unicode="&#x1fb;" horiz-adv-x="525" 
d="M259 575q-55 0 -90.5 32.5t-35.5 81.5q0 37 21 66t57 41l76 117h130l-105 -119q34 -13 54 -41t20 -64q0 -49 -36 -81.5t-91 -32.5zM259 750q-27 0 -43.5 -17t-16.5 -44q0 -26 16.5 -43t43.5 -17t44 17t17 43t-17 43.5t-44 17.5zM260 545q96 0 152 -51.5t56 -140.5v-353
h-109v46h-2q-42 -61 -144 -61q-79 0 -126.5 42.5t-47.5 113.5q0 67 43.5 106t145.5 63q67 17 92 32t25 40q0 28 -22.5 44t-62.5 16q-45 0 -74.5 -25t-37.5 -69l-113 24q13 78 74.5 125.5t150.5 47.5zM350 179v91h-2q-14 -27 -92 -49q-55 -14 -78 -30.5t-23 -41.5
q0 -60 78 -60q52 0 84.5 25t32.5 65z" />
    <glyph glyph-name="AEacute" unicode="&#x1fc;" horiz-adv-x="863" 
d="M589 890l-115 -130h-100l85 130h130zM560 109h258v-109h-377v126h-255l-52 -126h-136l299 700h520v-110h-257v-179h230v-106h-230v-196zM230 233h211v357h-63z" />
    <glyph glyph-name="aeacute" unicode="&#x1fd;" horiz-adv-x="868" 
d="M586 720l-115 -130h-100l85 130h130zM833 271v-41h-365q2 -66 36.5 -104t91.5 -38q44 0 75.5 20t63.5 69l83 -69q-75 -123 -222 -123q-118 0 -184 88q-61 -88 -195 -88q-79 0 -128 41.5t-49 111.5q0 49 23 83.5t57 50t74 28.5t74 20.5t57 23t23 39.5q0 29 -23.5 46
t-64.5 17q-45 0 -76 -25t-40 -72l-109 24q14 78 75 125t149 47q118 0 167 -73q62 73 168 73t172.5 -76t66.5 -198zM469 318h247q-3 58 -36 91.5t-86 33.5q-51 0 -86.5 -35t-38.5 -90zM353 178v94h-2q-9 -19 -42.5 -32.5t-67.5 -21t-61 -25.5t-27 -45q0 -62 81 -62
q53 0 86 26t33 66z" />
    <glyph glyph-name="Oslashacute" unicode="&#x1fe;" horiz-adv-x="677" 
d="M491 905l-115 -130h-100l85 130h130zM538 637q104 -99 104 -287q0 -165 -83 -265t-220 -100q-78 0 -141 34l-30 -54l-64 35l35 63q-104 101 -104 287q0 165 83 265t221 100q78 0 141 -34l30 54l63 -35zM158 350q0 -109 42 -176l224 406q-37 23 -85 23q-84 0 -132.5 -67.5
t-48.5 -185.5zM339 97q84 0 132 67.5t48 185.5q0 109 -42 176l-224 -406q38 -23 86 -23z" />
    <glyph glyph-name="oslashacute" unicode="&#x1ff;" horiz-adv-x="585" 
d="M445 735l-115 -130h-100l85 130h130zM484 462q66 -77 66 -197q0 -125 -71 -202.5t-186 -77.5q-86 0 -147 43l-32 -40l-46 36l34 43q-67 76 -67 198q0 125 71.5 202.5t186.5 77.5q84 0 147 -44l37 47l46 -37zM151 265q0 -62 23 -105l199 255q-33 24 -80 24
q-66 0 -104 -46.5t-38 -127.5zM293 91q66 0 103 46.5t37 127.5q0 63 -22 103l-198 -253q33 -24 80 -24z" />
    <glyph glyph-name="Scommaaccent" unicode="&#x218;" horiz-adv-x="595" 
d="M318 -15q-127 0 -201.5 63t-91.5 183l123 25q13 -83 53 -120t119 -37q58 0 91.5 22.5t33.5 61.5q0 42 -34.5 69t-128.5 58q-124 41 -174 88.5t-50 123.5q0 85 64.5 139t167.5 54q101 0 172.5 -56t88.5 -149l-122 -26q-31 117 -139 117q-49 0 -78.5 -21.5t-29.5 -57.5
q0 -31 30 -52.5t113 -48.5q133 -45 189 -99t56 -138q0 -89 -69.5 -144t-182.5 -55zM261 -284v52q23 6 32.5 19t9.5 37h-47v110h122v-97q0 -109 -117 -121z" />
    <glyph glyph-name="scommaaccent" unicode="&#x219;" horiz-adv-x="500" 
d="M268 -15q-101 0 -164.5 49t-78.5 140l109 28q13 -60 44.5 -87.5t89.5 -27.5q43 0 68 14.5t25 39.5q0 31 -29.5 49.5t-96.5 38.5q-91 26 -137 59.5t-46 99.5q0 68 55.5 112.5t139.5 44.5q80 0 140 -43t78 -113l-110 -31q-27 85 -108 85q-37 0 -59 -14.5t-22 -38.5
q0 -21 25 -34.5t81 -29.5q47 -14 78.5 -26.5t62.5 -33t46.5 -50.5t15.5 -70q0 -73 -56.5 -117t-150.5 -44zM211 -284v52q23 6 32.5 19t9.5 37h-47v110h122v-97q0 -109 -117 -121z" />
    <glyph glyph-name="uni021A" unicode="&#x21a;" horiz-adv-x="597" 
d="M236 0v585h-208v115h541v-115h-208v-585h-125zM242 -269v52q23 6 32.5 19t9.5 37h-47v110h122v-97q0 -109 -117 -121z" />
    <glyph glyph-name="uni021B" unicode="&#x21b;" horiz-adv-x="371" 
d="M348 423h-131v-263q0 -26 12 -35.5t44 -9.5h53v-115h-64q-89 0 -127 35t-38 119v269h-87v107h87v129h120v-129h131v-107zM147 -161v110h122v-97q0 -109 -117 -121v52q23 6 32.5 19t9.5 37h-47z" />
    <glyph glyph-name="uni0228" unicode="&#x228;" horiz-adv-x="560" 
d="M515 585h-315v-171h287v-111h-287v-188h315v-115h-194l-24 -40q12 3 26 3q43 0 71.5 -26.5t28.5 -67.5q0 -47 -31 -75t-83 -28q-61 0 -109 40l42 56q34 -28 64 -28q20 0 32.5 11t12.5 28q0 16 -12 25.5t-32 9.5q-30 0 -51 -24l-51 23l51 93h-181v700h440v-115z" />
    <glyph glyph-name="uni0229" unicode="&#x229;" horiz-adv-x="562" 
d="M527 271v-41h-371q3 -64 37.5 -102.5t90.5 -38.5q44 0 76.5 20.5t62.5 66.5l88 -64q-67 -115 -200 -126l-25 -41q12 3 26 3q43 0 71.5 -26.5t28.5 -67.5q0 -47 -31 -75t-83 -28q-61 0 -109 40l42 56q34 -28 64 -28q20 0 32.5 11t12.5 28q0 16 -12 25.5t-32 9.5
q-30 0 -51 -24l-51 23l52 96q-96 13 -153.5 88t-57.5 189q0 124 68.5 202t178.5 78t177.5 -75.5t67.5 -198.5zM157 318h251q-3 56 -36 89.5t-89 33.5q-52 0 -87.5 -35t-38.5 -88z" />
    <glyph glyph-name="uni0237" unicode="&#x237;" horiz-adv-x="246" 
d="M-27 -192v111h51q26 0 36.5 8.5t10.5 29.5v573h120v-577q0 -77 -38 -111t-121 -34h-59z" />
    <glyph glyph-name="uni0258" unicode="&#x258;" horiz-adv-x="562" 
d="M278 -15q-154 0 -227 127l88 64q30 -46 62.5 -66.5t76.5 -20.5q56 0 90.5 38.5t37.5 102.5h-371v41q0 123 67.5 198.5t177.5 75.5t178.5 -78t68.5 -202q0 -125 -69 -202.5t-180 -77.5zM405 318q-3 53 -38.5 88t-87.5 35q-56 0 -89 -33.5t-36 -89.5h251z" />
    <glyph glyph-name="uni0259" unicode="&#x259;" horiz-adv-x="562" 
d="M279 -15q-109 0 -176.5 76t-67.5 198v41h370q-2 64 -36.5 102.5t-90.5 38.5q-44 0 -76.5 -20.5t-62.5 -66.5l-91 61q77 130 229 130q112 0 181 -77.5t69 -202.5q0 -124 -69 -202t-179 -78zM279 89q52 0 87.5 35t38.5 88h-252q4 -56 37.5 -89.5t88.5 -33.5z" />
    <glyph glyph-name="circumflex" unicode="&#x2c6;" horiz-adv-x="378" 
d="M324 621l-65 -51l-70 89l-71 -89l-65 51l69 87h134z" />
    <glyph glyph-name="caron" unicode="&#x2c7;" horiz-adv-x="378" 
d="M259 718l65 -51l-68 -87h-134l-69 87l65 51l71 -89z" />
    <glyph glyph-name="breve" unicode="&#x2d8;" horiz-adv-x="375" 
d="M194 580q-62 0 -100 35.5t-41 96.5h65q13 -52 76 -52q62 0 75 52h65q-3 -61 -41 -96.5t-99 -35.5z" />
    <glyph glyph-name="dotaccent" unicode="&#x2d9;" horiz-adv-x="225" 
d="M53 590v116h118v-116h-118z" />
    <glyph glyph-name="ring" unicode="&#x2da;" horiz-adv-x="387" 
d="M193 470q-61 0 -100.5 36t-39.5 91t39.5 91t100.5 36t101 -36t40 -91t-40 -91t-101 -36zM193 530q30 0 49 19t19 48t-19 48t-49 19t-48.5 -19t-18.5 -48t18.5 -48t48.5 -19z" />
    <glyph glyph-name="ogonek" unicode="&#x2db;" horiz-adv-x="311" 
d="M152 -208q-48 0 -75 23t-26 65q1 75 107 135l53 -15q-75 -45 -75 -96q0 -30 31 -30q24 0 55 18l33 -74q-50 -26 -103 -26z" />
    <glyph glyph-name="tilde" unicode="&#x2dc;" horiz-adv-x="424" 
d="M276 585q-29 0 -70 19.5t-56 19.5q-28 0 -35 -34h-62q2 51 28 80t67 29q29 0 69.5 -19.5t55.5 -19.5q28 0 35 34h62q-2 -52 -27.5 -80.5t-66.5 -28.5z" />
    <glyph glyph-name="hungarumlaut" unicode="&#x2dd;" horiz-adv-x="504" 
d="M53 590l85 130h127l-115 -130h-97zM235 590l85 130h127l-115 -130h-97z" />
    <glyph glyph-name="gravecomb" unicode="&#x300;" horiz-adv-x="0" 
d="M-100 590l-115 130h130l85 -130h-100z" />
    <glyph glyph-name="acutecomb" unicode="&#x301;" horiz-adv-x="0" 
d="M-215 590l85 130h130l-115 -130h-100z" />
    <glyph glyph-name="uni0302" unicode="&#x302;" horiz-adv-x="0" 
d="M0 621l-65 -51l-70 89l-71 -89l-65 51l69 87h134z" />
    <glyph glyph-name="tildecomb" unicode="&#x303;" horiz-adv-x="0" 
d="M-94 585q-29 0 -70 19.5t-56 19.5q-28 0 -35 -34h-62q2 51 28 80t67 29q29 0 69.5 -19.5t55.5 -19.5q28 0 35 34h62q-2 -52 -27.5 -80.5t-66.5 -28.5z" />
    <glyph glyph-name="uni0304" unicode="&#x304;" horiz-adv-x="0" 
d="M-299 590v78h299v-78h-299z" />
    <glyph glyph-name="uni0306" unicode="&#x306;" horiz-adv-x="0" 
d="M-140 580q-62 0 -100 35.5t-41 96.5h65q13 -52 76 -52q62 0 75 52h65q-3 -61 -41 -96.5t-99 -35.5z" />
    <glyph glyph-name="uni0307" unicode="&#x307;" horiz-adv-x="0" 
d="M-118 590v116h118v-116h-118z" />
    <glyph glyph-name="uni0308" unicode="&#x308;" horiz-adv-x="0" 
d="M-316 580v116h118v-116h-118zM-118 580v116h118v-116h-118z" />
    <glyph glyph-name="uni030A" unicode="&#x30a;" horiz-adv-x="0" 
d="M-141 470q-61 0 -100.5 36t-39.5 91t39.5 91t100.5 36t101 -36t40 -91t-40 -91t-101 -36zM-141 530q30 0 49 19t19 48t-19 48t-49 19t-48.5 -19t-18.5 -48t18.5 -48t48.5 -19z" />
    <glyph glyph-name="uni030B" unicode="&#x30b;" horiz-adv-x="0" 
d="M-394 590l85 130h127l-115 -130h-97zM-212 590l85 130h127l-115 -130h-97z" />
    <glyph glyph-name="uni030C" unicode="&#x30c;" horiz-adv-x="0" 
d="M-65 718l65 -51l-68 -87h-134l-69 87l65 51l71 -89z" />
    <glyph glyph-name="uni0312" unicode="&#x312;" horiz-adv-x="0" 
d="M-5 808v-52q-25 -6 -35 -19t-10 -37h51v-110h-134v97q0 109 128 121z" />
    <glyph glyph-name="dotbelowcomb" unicode="&#x323;" horiz-adv-x="0" 
d="M-118 -166v116h118v-116h-118z" />
    <glyph glyph-name="uni0326" unicode="&#x326;" horiz-adv-x="0" 
d="M-117 -269v52q23 6 32.5 19t9.5 37h-47v110h122v-97q0 -109 -117 -121z" />
    <glyph glyph-name="uni0327" unicode="&#x327;" horiz-adv-x="0" 
d="M-100 -37q43 0 71.5 -26.5t28.5 -67.5q0 -47 -31 -75t-83 -28q-61 0 -109 40l42 56q34 -28 64 -28q20 0 32.5 11t12.5 28q0 16 -12 25.5t-32 9.5q-30 0 -51 -24l-51 23l68 124l53 -23l-29 -48q12 3 26 3z" />
    <glyph glyph-name="uni0328" unicode="&#x328;" horiz-adv-x="0" 
d="M-103 -208q-48 0 -75 23t-26 65q1 75 107 135l53 -15q-75 -45 -75 -96q0 -30 31 -30q24 0 55 18l33 -74q-50 -26 -103 -26z" />
    <glyph glyph-name="uni0335" unicode="&#x335;" horiz-adv-x="0" 
d="M-364 305v101h364v-101h-364z" />
    <glyph glyph-name="uni0336" unicode="&#x336;" horiz-adv-x="0" 
d="M-653 309v97h653v-97h-653z" />
    <glyph glyph-name="uni0337" unicode="&#x337;" horiz-adv-x="0" 
d="M-408 -10l-47 35l409 524l46 -36z" />
    <glyph glyph-name="uni0338" unicode="&#x338;" horiz-adv-x="0" 
d="M-405 -35l-63 35l406 735l62 -35z" />
    <glyph glyph-name="uni0394" unicode="&#x394;" horiz-adv-x="615" 
d="M366 700l251 -700h-619l253 700h115zM163 112h289l-143 415h-2z" />
    <glyph glyph-name="uni03A9" unicode="&#x3a9;" horiz-adv-x="677" 
d="M523 95v-2h106v-93h-252v86q64 13 102 88t38 186q0 110 -48 175t-130 65t-130.5 -65t-48.5 -175q0 -109 38.5 -184t101.5 -90v-86h-252v93h105v2q-56 44 -87 113t-31 152q0 159 84 257t220 98t219.5 -98t83.5 -257q0 -174 -119 -265z" />
    <glyph glyph-name="uni03BC" unicode="&#x3bc;" horiz-adv-x="564" 
d="M389 530h120v-530h-116v47h-2q-38 -62 -123 -62q-54 0 -91 28h-2v-238h-120v755h120v-322q0 -113 106 -113q49 0 78.5 31t29.5 82v322z" />
    <glyph glyph-name="pi" unicode="&#x3c0;" horiz-adv-x="669" 
d="M625 420h-114v-254q0 -30 11.5 -40.5t44.5 -10.5h53v-115h-88q-75 0 -108 33t-33 107v280h-144v-420h-120v420h-117v110h615v-110z" />
    <glyph glyph-name="uni0E3F" unicode="&#xe3f;" horiz-adv-x="654" 
d="M609 214q0 -211 -251 -214v-110h-60v110h-213v700h213v101h60v-101h19q91 0 148.5 -52t57.5 -134q0 -95 -75 -135v-2q47 -20 74 -63t27 -100zM210 587v-172h88v172h-88zM458 501q0 86 -100 86v-172q100 0 100 86zM210 113h88v200h-88v-200zM365 113q62 0 90.5 24.5
t28.5 77.5q0 98 -118 98h-8v-200h7z" />
    <glyph glyph-name="uni1E04" unicode="&#x1e04;" horiz-adv-x="634" 
d="M75 0v700h292q91 0 148.5 -52t57.5 -134q0 -95 -75 -135v-2q47 -20 74 -63t27 -100q0 -214 -259 -214h-265zM200 415h148q100 0 100 86t-100 86h-148v-172zM200 113h155q62 0 90.5 24.5t28.5 77.5q0 98 -118 98h-156v-200zM257 -166v116h118v-116h-118z" />
    <glyph glyph-name="uni1E05" unicode="&#x1e05;" horiz-adv-x="592" 
d="M320 -15q-99 0 -151 64h-2v-49h-112v730h120v-239h2q54 54 142 54q104 0 171 -78.5t67 -201.5t-66.5 -201.5t-170.5 -78.5zM300 95q64 0 100.5 45.5t36.5 124.5t-36 124.5t-99 45.5q-55 0 -91 -36.5t-36 -90.5v-85q0 -55 36 -91.5t89 -36.5zM249 -181v116h118v-116h-118z
" />
    <glyph glyph-name="uni1E0C" unicode="&#x1e0c;" horiz-adv-x="648" 
d="M75 0v700h233q140 0 222.5 -94t82.5 -256q0 -167 -82.5 -258.5t-224.5 -91.5h-231zM200 115h105q87 0 135 58.5t48 176.5q0 114 -48 174.5t-133 60.5h-107v-470zM262 -166v116h118v-116h-118z" />
    <glyph glyph-name="uni1E0D" unicode="&#x1e0d;" horiz-adv-x="592" 
d="M272 -15q-104 0 -170.5 78.5t-66.5 201.5t67 201.5t171 78.5q88 0 142 -54h2v239h120v-730h-112v49h-2q-52 -64 -151 -64zM292 95q53 0 89 36.5t36 91.5v85q0 54 -36 90.5t-91 36.5q-63 0 -99 -45.5t-36 -124.5t36.5 -124.5t100.5 -45.5zM240 -166v116h118v-116h-118z
" />
    <glyph glyph-name="uni1E24" unicode="&#x1e24;" horiz-adv-x="657" 
d="M75 0v700h125v-284h257v284h125v-700h-125v302h-257v-302h-125zM269 -166v116h118v-116h-118z" />
    <glyph glyph-name="uni1E25" unicode="&#x1e25;" horiz-adv-x="566" 
d="M55 0v730h120v-247h2q23 29 60.5 45.5t80.5 16.5q89 0 143.5 -54.5t54.5 -143.5v-347h-120v321q0 53 -28.5 82.5t-80.5 29.5t-82 -30.5t-30 -81.5v-321h-120zM225 -166v116h118v-116h-118z" />
    <glyph glyph-name="uni1E36" unicode="&#x1e36;" horiz-adv-x="531" 
d="M75 0v700h125v-585h303v-115h-428zM229 -166v116h118v-116h-118z" />
    <glyph glyph-name="uni1E37" unicode="&#x1e37;" horiz-adv-x="230" 
d="M55 0v730h120v-730h-120zM55 -166v116h118v-116h-118z" />
    <glyph glyph-name="uni1E44" unicode="&#x1e44;" horiz-adv-x="674" 
d="M277 760v116h118v-116h-118zM75 0v700h133l264 -489h2v489h125v-700h-133l-264 489h-2v-489h-125z" />
    <glyph glyph-name="uni1E45" unicode="&#x1e45;" horiz-adv-x="566" 
d="M245 605v116h118v-116h-118zM55 0v530h115v-47h2q23 28 63 45t83 17q90 0 144 -56t54 -149v-340h-120v321q0 53 -28.5 82.5t-80.5 29.5t-82 -30.5t-30 -81.5v-321h-120z" />
    <glyph glyph-name="uni1E46" unicode="&#x1e46;" horiz-adv-x="674" 
d="M75 0v700h133l264 -489h2v489h125v-700h-133l-264 489h-2v-489h-125zM287 -166v116h118v-116h-118z" />
    <glyph glyph-name="uni1E47" unicode="&#x1e47;" horiz-adv-x="566" 
d="M55 0v530h115v-47h2q23 28 63 45t83 17q90 0 144 -56t54 -149v-340h-120v321q0 53 -28.5 82.5t-80.5 29.5t-82 -30.5t-30 -81.5v-321h-120zM225 -166v116h118v-116h-118z" />
    <glyph glyph-name="uni1E4C" unicode="&#x1e4c;" horiz-adv-x="677" 
d="M276 914l85 130h130l-115 -130h-100zM403 770q-29 0 -70 19.5t-56 19.5q-28 0 -35 -34h-62q2 51 28 80t67 29q29 0 69.5 -19.5t55.5 -19.5q28 0 35 34h62q-2 -52 -27.5 -80.5t-66.5 -28.5zM339 -15q-138 0 -221 100t-83 265t83 265t221 100q137 0 220 -100t83 -265
t-83 -265t-220 -100zM339 100q83 0 130.5 67t47.5 183t-47.5 183t-130.5 67t-131 -67t-48 -183q0 -117 47.5 -183.5t131.5 -66.5z" />
    <glyph glyph-name="uni1E4D" unicode="&#x1e4d;" horiz-adv-x="585" 
d="M229 744l85 130h130l-115 -130h-100zM356 600q-29 0 -70 19.5t-56 19.5q-28 0 -35 -34h-62q2 51 28 80t67 29q29 0 69.5 -19.5t55.5 -19.5q28 0 35 34h62q-2 -52 -27.5 -80.5t-66.5 -28.5zM292 -15q-115 0 -186 77.5t-71 202.5t71 202.5t186 77.5t186.5 -77.5
t71.5 -202.5t-71.5 -202.5t-186.5 -77.5zM292 95q65 0 101.5 45.5t36.5 124.5t-36.5 124.5t-101.5 45.5q-64 0 -100.5 -45t-36.5 -125t36.5 -125t100.5 -45z" />
    <glyph glyph-name="uni1E62" unicode="&#x1e62;" horiz-adv-x="595" 
d="M318 -15q-127 0 -201.5 63t-91.5 183l123 25q13 -83 53 -120t119 -37q58 0 91.5 22.5t33.5 61.5q0 42 -34.5 69t-128.5 58q-124 41 -174 88.5t-50 123.5q0 85 64.5 139t167.5 54q101 0 172.5 -56t88.5 -149l-122 -26q-31 117 -139 117q-49 0 -78.5 -21.5t-29.5 -57.5
q0 -31 30 -52.5t113 -48.5q133 -45 189 -99t56 -138q0 -89 -69.5 -144t-182.5 -55zM258 -181v116h118v-116h-118z" />
    <glyph glyph-name="uni1E63" unicode="&#x1e63;" horiz-adv-x="500" 
d="M268 -15q-101 0 -164.5 49t-78.5 140l109 28q13 -60 44.5 -87.5t89.5 -27.5q43 0 68 14.5t25 39.5q0 31 -29.5 49.5t-96.5 38.5q-91 26 -137 59.5t-46 99.5q0 68 55.5 112.5t139.5 44.5q80 0 140 -43t78 -113l-110 -31q-27 85 -108 85q-37 0 -59 -14.5t-22 -38.5
q0 -21 25 -34.5t81 -29.5q47 -14 78.5 -26.5t62.5 -33t46.5 -50.5t15.5 -70q0 -73 -56.5 -117t-150.5 -44zM208 -181v116h118v-116h-118z" />
    <glyph glyph-name="uni1E6C" unicode="&#x1e6c;" horiz-adv-x="597" 
d="M236 0v585h-208v115h541v-115h-208v-585h-125zM239 -166v116h118v-116h-118z" />
    <glyph glyph-name="uni1E6D" unicode="&#x1e6d;" horiz-adv-x="371" 
d="M348 423h-131v-263q0 -26 12 -35.5t44 -9.5h53v-115h-64q-89 0 -127 35t-38 119v269h-87v107h87v129h120v-129h131v-107zM149 -166v116h118v-116h-118z" />
    <glyph glyph-name="Wgrave" unicode="&#x1e80;" horiz-adv-x="885" 
d="M403 760l-115 130h130l85 -130h-100zM156 0l-143 700h129l97 -499h2l143 499h117l143 -499h2l98 499h127l-141 -700h-138l-149 511h-2l-148 -511h-137z" />
    <glyph glyph-name="wgrave" unicode="&#x1e81;" horiz-adv-x="782" 
d="M352 590l-115 130h130l85 -130h-100zM140 0l-122 530h119l77 -364h2l122 364h106l122 -364h2l77 364h119l-122 -530h-118l-132 388h-2l-132 -388h-118z" />
    <glyph glyph-name="Wacute" unicode="&#x1e82;" horiz-adv-x="885" 
d="M379 760l85 130h130l-115 -130h-100zM156 0l-143 700h129l97 -499h2l143 499h117l143 -499h2l98 499h127l-141 -700h-138l-149 511h-2l-148 -511h-137z" />
    <glyph glyph-name="wacute" unicode="&#x1e83;" horiz-adv-x="782" 
d="M328 590l85 130h130l-115 -130h-100zM140 0l-122 530h119l77 -364h2l122 364h106l122 -364h2l77 364h119l-122 -530h-118l-132 388h-2l-132 -388h-118z" />
    <glyph glyph-name="Wdieresis" unicode="&#x1e84;" horiz-adv-x="885" 
d="M284 750v116h118v-116h-118zM482 750v116h118v-116h-118zM156 0l-143 700h129l97 -499h2l143 499h117l143 -499h2l98 499h127l-141 -700h-138l-149 511h-2l-148 -511h-137z" />
    <glyph glyph-name="wdieresis" unicode="&#x1e85;" horiz-adv-x="782" 
d="M233 580v116h118v-116h-118zM431 580v116h118v-116h-118zM140 0l-122 530h119l77 -364h2l122 364h106l122 -364h2l77 364h119l-122 -530h-118l-132 388h-2l-132 -388h-118z" />
    <glyph glyph-name="uni1E92" unicode="&#x1e92;" horiz-adv-x="585" 
d="M38 0v104l354 479v2h-341v115h496v-104l-354 -479v-2h350v-115h-505zM233 -166v116h118v-116h-118z" />
    <glyph glyph-name="uni1E93" unicode="&#x1e93;" horiz-adv-x="522" 
d="M27 0v99l293 320v2h-284v109h448v-99l-293 -320v-2h304v-109h-468zM201 -166v116h118v-116h-118z" />
    <glyph glyph-name="uni1EA0" unicode="&#x1ea0;" horiz-adv-x="614" 
d="M616 0h-126l-41 120h-284l-41 -120h-126l252 700h115zM203 230h208l-103 297h-2zM248 -166v116h118v-116h-118z" />
    <glyph glyph-name="uni1EA1" unicode="&#x1ea1;" horiz-adv-x="518" 
d="M213 -15q-79 0 -126.5 42.5t-47.5 113.5q0 67 43.5 106t145.5 63q67 17 92 32t25 40q0 28 -22.5 44t-62.5 16q-45 0 -74.5 -25t-37.5 -69l-113 24q13 78 74.5 125.5t150.5 47.5q96 0 152 -51.5t56 -140.5v-353h-109v46h-2q-42 -61 -144 -61zM233 89q52 0 84.5 25t32.5 65
v91h-2q-14 -27 -92 -49q-55 -14 -78 -30.5t-23 -41.5q0 -60 78 -60zM205 -181v116h118v-116h-118z" />
    <glyph glyph-name="uni1EAC" unicode="&#x1eac;" horiz-adv-x="614" 
d="M308 829l-71 -89l-65 51l69 87h134l68 -87l-65 -51zM616 0h-126l-41 120h-284l-41 -120h-126l252 700h115zM203 230h208l-103 297h-2zM248 -166v116h118v-116h-118z" />
    <glyph glyph-name="uni1EAD" unicode="&#x1ead;" horiz-adv-x="518" 
d="M260 674l-71 -89l-65 51l69 87h134l68 -87l-65 -51zM260 545q96 0 152 -51.5t56 -140.5v-353h-109v46h-2q-42 -61 -144 -61q-79 0 -126.5 42.5t-47.5 113.5q0 67 43.5 106t145.5 63q67 17 92 32t25 40q0 28 -22.5 44t-62.5 16q-45 0 -74.5 -25t-37.5 -69l-113 24
q13 78 74.5 125.5t150.5 47.5zM350 179v91h-2q-14 -27 -92 -49q-55 -14 -78 -30.5t-23 -41.5q0 -60 78 -60q52 0 84.5 25t32.5 65zM205 -181v116h118v-116h-118z" />
    <glyph glyph-name="uni1EB8" unicode="&#x1eb8;" horiz-adv-x="560" 
d="M75 0v700h440v-115h-315v-171h287v-111h-287v-188h315v-115h-440zM235 -166v116h118v-116h-118z" />
    <glyph glyph-name="uni1EB9" unicode="&#x1eb9;" horiz-adv-x="562" 
d="M284 -15q-111 0 -180 77.5t-69 202.5q0 124 68.5 202t178.5 78t177.5 -75.5t67.5 -198.5v-41h-371q3 -64 37.5 -102.5t90.5 -38.5q44 0 76.5 20.5t62.5 66.5l88 -64q-73 -127 -227 -127zM157 318h251q-3 56 -36 89.5t-89 33.5q-52 0 -87.5 -35t-38.5 -88zM224 -181v116
h118v-116h-118z" />
    <glyph glyph-name="uni1EBC" unicode="&#x1ebc;" horiz-adv-x="560" 
d="M368 755q-29 0 -70 19.5t-56 19.5q-28 0 -35 -34h-62q2 51 28 80t67 29q29 0 69.5 -19.5t55.5 -19.5q28 0 35 34h62q-2 -52 -27.5 -80.5t-66.5 -28.5zM75 0v700h440v-115h-315v-171h287v-111h-287v-188h315v-115h-440z" />
    <glyph glyph-name="uni1EBD" unicode="&#x1ebd;" horiz-adv-x="562" 
d="M346 600q-29 0 -70 19.5t-56 19.5q-28 0 -35 -34h-62q2 51 28 80t67 29q29 0 69.5 -19.5t55.5 -19.5q28 0 35 34h62q-2 -52 -27.5 -80.5t-66.5 -28.5zM284 -15q-111 0 -180 77.5t-69 202.5q0 124 68.5 202t178.5 78t177.5 -75.5t67.5 -198.5v-41h-371q3 -64 37.5 -102.5
t90.5 -38.5q44 0 76.5 20.5t62.5 66.5l88 -64q-73 -127 -227 -127zM157 318h251q-3 56 -36 89.5t-89 33.5q-52 0 -87.5 -35t-38.5 -88z" />
    <glyph glyph-name="uni1EC6" unicode="&#x1ec6;" horiz-adv-x="560" 
d="M304 829l-71 -89l-65 51l69 87h134l68 -87l-65 -51zM515 585h-315v-171h287v-111h-287v-188h315v-115h-440v700h440v-115zM235 -166v116h118v-116h-118z" />
    <glyph glyph-name="uni1EC7" unicode="&#x1ec7;" horiz-adv-x="562" 
d="M282 674l-71 -89l-65 51l69 87h134l68 -87l-65 -51zM527 271v-41h-371q3 -64 37.5 -102.5t90.5 -38.5q44 0 76.5 20.5t62.5 66.5l88 -64q-73 -127 -227 -127q-111 0 -180 77.5t-69 202.5q0 124 68.5 202t178.5 78t177.5 -75.5t67.5 -198.5zM157 318h251q-3 56 -36 89.5
t-89 33.5q-52 0 -87.5 -35t-38.5 -88zM224 -181v116h118v-116h-118z" />
    <glyph glyph-name="uni1ECA" unicode="&#x1eca;" horiz-adv-x="275" 
d="M75 0v700h125v-700h-125zM78 -166v116h118v-116h-118z" />
    <glyph glyph-name="uni1ECB" unicode="&#x1ecb;" horiz-adv-x="230" 
d="M52 620v121h126v-121h-126zM55 0v530h120v-530h-120zM60 -166v116h118v-116h-118z" />
    <glyph glyph-name="uni1ECC" unicode="&#x1ecc;" horiz-adv-x="677" 
d="M339 -15q-138 0 -221 100t-83 265t83 265t221 100q137 0 220 -100t83 -265t-83 -265t-220 -100zM339 100q83 0 130.5 67t47.5 183t-47.5 183t-130.5 67t-131 -67t-48 -183q0 -117 47.5 -183.5t131.5 -66.5zM279 -181v116h118v-116h-118z" />
    <glyph glyph-name="uni1ECD" unicode="&#x1ecd;" horiz-adv-x="585" 
d="M292 -15q-115 0 -186 77.5t-71 202.5t71 202.5t186 77.5t186.5 -77.5t71.5 -202.5t-71.5 -202.5t-186.5 -77.5zM292 95q65 0 101.5 45.5t36.5 124.5t-36.5 124.5t-101.5 45.5q-64 0 -100.5 -45t-36.5 -125t36.5 -125t100.5 -45zM232 -181v116h118v-116h-118z" />
    <glyph glyph-name="uni1ED8" unicode="&#x1ed8;" horiz-adv-x="677" 
d="M339 844l-71 -89l-65 51l69 87h134l68 -87l-65 -51zM339 715q137 0 220 -100t83 -265t-83 -265t-220 -100q-138 0 -221 100t-83 265t83 265t221 100zM339 100q83 0 130.5 67t47.5 183t-47.5 183t-130.5 67t-131 -67t-48 -183q0 -117 47.5 -183.5t131.5 -66.5zM279 -181
v116h118v-116h-118z" />
    <glyph glyph-name="uni1ED9" unicode="&#x1ed9;" horiz-adv-x="585" 
d="M292 674l-71 -89l-65 51l69 87h134l68 -87l-65 -51zM292 545q115 0 186.5 -77.5t71.5 -202.5t-71.5 -202.5t-186.5 -77.5t-186 77.5t-71 202.5t71 202.5t186 77.5zM292 95q65 0 101.5 45.5t36.5 124.5t-36.5 124.5t-101.5 45.5q-64 0 -100.5 -45t-36.5 -125t36.5 -125
t100.5 -45zM232 -181v116h118v-116h-118z" />
    <glyph glyph-name="uni1EE4" unicode="&#x1ee4;" horiz-adv-x="664" 
d="M331 -15q-124 0 -192.5 64.5t-68.5 180.5v470h125v-462q0 -138 136 -138q138 0 138 136v464h125v-470q0 -116 -69 -180.5t-194 -64.5zM271 -181v116h118v-116h-118z" />
    <glyph glyph-name="uni1EE5" unicode="&#x1ee5;" horiz-adv-x="554" 
d="M235 -15q-90 0 -140 52t-50 146v347h120v-322q0 -113 106 -113q49 0 78.5 31t29.5 82v322h120v-530h-116v47h-2q-51 -62 -146 -62zM192 -181v116h118v-116h-118z" />
    <glyph glyph-name="Ygrave" unicode="&#x1ef2;" horiz-adv-x="587" 
d="M255 760l-115 130h130l85 -130h-100zM231 0v287l-238 413h136l163 -301h2l163 301h136l-237 -413v-287h-125z" />
    <glyph glyph-name="ygrave" unicode="&#x1ef3;" horiz-adv-x="536" 
d="M229 590l-115 130h130l85 -130h-100zM101 -225l106 258l-204 497h125l139 -357h2l140 357h124l-309 -755h-123z" />
    <glyph glyph-name="uni1EF4" unicode="&#x1ef4;" horiz-adv-x="587" 
d="M231 0v287l-238 413h136l163 -301h2l163 301h136l-237 -413v-287h-125zM234 -166v116h118v-116h-118z" />
    <glyph glyph-name="uni1EF5" unicode="&#x1ef5;" horiz-adv-x="536" 
d="M101 -225l106 258l-204 497h125l139 -357h2l140 357h124l-309 -755h-123zM342 -166v116h118v-116h-118z" />
    <glyph glyph-name="uni1EF8" unicode="&#x1ef8;" horiz-adv-x="587" 
d="M358 755q-29 0 -70 19.5t-56 19.5q-28 0 -35 -34h-62q2 51 28 80t67 29q29 0 69.5 -19.5t55.5 -19.5q28 0 35 34h62q-2 -52 -27.5 -80.5t-66.5 -28.5zM231 0v287l-238 413h136l163 -301h2l163 301h136l-237 -413v-287h-125z" />
    <glyph glyph-name="uni1EF9" unicode="&#x1ef9;" horiz-adv-x="536" 
d="M332 585q-29 0 -70 19.5t-56 19.5q-28 0 -35 -34h-62q2 51 28 80t67 29q29 0 69.5 -19.5t55.5 -19.5q28 0 35 34h62q-2 -52 -27.5 -80.5t-66.5 -28.5zM101 -225l106 258l-204 497h125l139 -357h2l140 357h124l-309 -755h-123z" />
    <glyph glyph-name="uni2002" unicode="&#x2002;" horiz-adv-x="700" 
 />
    <glyph glyph-name="uni2003" unicode="&#x2003;" horiz-adv-x="933" 
 />
    <glyph glyph-name="uni2004" unicode="&#x2004;" horiz-adv-x="327" 
 />
    <glyph glyph-name="uni2005" unicode="&#x2005;" horiz-adv-x="233" 
 />
    <glyph glyph-name="uni2007" unicode="&#x2007;" 
 />
    <glyph glyph-name="uni2008" unicode="&#x2008;" horiz-adv-x="312" 
 />
    <glyph glyph-name="uni2009" unicode="&#x2009;" horiz-adv-x="140" 
 />
    <glyph glyph-name="uni200A" unicode="&#x200a;" horiz-adv-x="70" 
 />
    <glyph glyph-name="uni200B" unicode="&#x200b;" horiz-adv-x="0" 
 />
    <glyph glyph-name="endash" unicode="&#x2013;" horiz-adv-x="557" 
d="M43 238v112h470v-112h-470z" />
    <glyph glyph-name="emdash" unicode="&#x2014;" horiz-adv-x="844" 
d="M43 238v112h757v-112h-757z" />
    <glyph glyph-name="quoteleft" unicode="&#x2018;" horiz-adv-x="276" 
d="M207 700v-64q-28 -7 -39.5 -23t-11.5 -46h57v-136h-150v120q0 134 144 149z" />
    <glyph glyph-name="quoteright" unicode="&#x2019;" horiz-adv-x="276" 
d="M69 431v64q28 7 39.5 23t11.5 46h-57v136h150v-120q0 -134 -144 -149z" />
    <glyph glyph-name="quotesinglbase" unicode="&#x201a;" horiz-adv-x="316" 
d="M89 -133v64q28 7 39.5 23t11.5 46h-57v136h150v-120q0 -134 -144 -149z" />
    <glyph glyph-name="quotedblleft" unicode="&#x201c;" horiz-adv-x="517" 
d="M227 700v-64q-28 -7 -39.5 -23t-11.5 -46h57v-136h-150v120q0 134 144 149zM428 700v-64q-28 -7 -39.5 -23t-11.5 -46h57v-136h-150v120q0 134 144 149z" />
    <glyph glyph-name="quotedblright" unicode="&#x201d;" horiz-adv-x="517" 
d="M89 431v64q28 7 39.5 23t11.5 46h-57v136h150v-120q0 -134 -144 -149zM290 431v64q28 7 39.5 23t11.5 46h-57v136h150v-120q0 -134 -144 -149z" />
    <glyph glyph-name="quotedblbase" unicode="&#x201e;" horiz-adv-x="517" 
d="M89 -133v64q28 7 39.5 23t11.5 46h-57v136h150v-120q0 -134 -144 -149zM290 -133v64q28 7 39.5 23t11.5 46h-57v136h150v-120q0 -134 -144 -149z" />
    <glyph glyph-name="dagger" unicode="&#x2020;" horiz-adv-x="651" 
d="M263 -196v609h-220v117h220v229h125v-229h220v-117h-220v-609h-125z" />
    <glyph glyph-name="daggerdbl" unicode="&#x2021;" horiz-adv-x="651" 
d="M263 -196v223h-220v117h220v269h-220v117h220v229h125v-229h220v-117h-220v-269h220v-117h-220v-223h-125z" />
    <glyph glyph-name="bullet" unicode="&#x2022;" horiz-adv-x="393" 
d="M197 258q-51 0 -82.5 32.5t-31.5 82.5t31.5 82.5t82.5 32.5q50 0 81.5 -32.5t31.5 -82.5t-31 -82.5t-82 -32.5z" />
    <glyph glyph-name="ellipsis" unicode="&#x2026;" horiz-adv-x="817" 
d="M83 0v141h145v-141h-145zM336 0v141h145v-141h-145zM588 0v141h145v-141h-145z" />
    <glyph glyph-name="perthousand" unicode="&#x2030;" horiz-adv-x="1453" 
d="M321 -83l-90 51l494 815l90 -53zM235 271q-84 0 -133 59t-49 160t49 160t133 59q85 0 134 -59t49 -160t-49 -160t-134 -59zM235 364q82 0 82 126t-82 126q-39 0 -60 -32.5t-21 -93.5t21 -93.5t60 -32.5zM806 -9q-84 0 -133 59t-49 160t49 160t133 59q85 0 134 -59
t49 -160t-49 -160t-134 -59zM1217 -9q-84 0 -133 59t-49 160t49 160t133 59t133 -59t49 -160t-49 -160t-133 -59zM806 84q40 0 61 32.5t21 93.5t-21 93.5t-61 32.5q-39 0 -60 -32.5t-21 -93.5t21 -93.5t60 -32.5zM1217 84q81 0 81 126t-81 126t-81 -126t81 -126z" />
    <glyph glyph-name="guilsinglleft" unicode="&#x2039;" horiz-adv-x="335" 
d="M175 86l-112 191l112 191h107l-114 -191l114 -191h-107z" />
    <glyph glyph-name="guilsinglright" unicode="&#x203a;" horiz-adv-x="335" 
d="M160 86h-107l114 191l-114 191h107l112 -191z" />
    <glyph glyph-name="fraction" unicode="&#x2044;" horiz-adv-x="210" 
d="M-99 -78l-78 44l487 808l77 -46z" />
    <glyph glyph-name="uni207A" unicode="&#x207a;" horiz-adv-x="431" 
d="M377 246v-74h-122v-129h-80v129h-122v74h122v125h80v-125h122z" />
    <glyph glyph-name="uni207B" unicode="&#x207b;" horiz-adv-x="394" 
d="M53 172v74h288v-74h-288z" />
    <glyph glyph-name="lira" unicode="&#x20a4;" horiz-adv-x="594" 
d="M446 365h125q0 -165 -83.5 -265t-220.5 -100h-125v307l-76 -28l-33 87l109 40v62l-76 -28l-33 87l109 40v133h125v-88l138 50l32 -86l-170 -62v-62l138 50l32 -87l-170 -62v-238q84 0 131.5 66.5t47.5 183.5z" />
    <glyph glyph-name="uni20A8" unicode="&#x20a8;" horiz-adv-x="561" 
d="M527 617h-121v-2q38 -37 51 -92h70v-83h-68q-10 -63 -48.5 -106.5t-100.5 -60.5v-2l147 -271h-137l-139 260h-126v115h155q97 0 120 65h-275v83h275q-23 62 -120 62h-155v115h472v-83z" />
    <glyph glyph-name="uni20A9" unicode="&#x20a9;" horiz-adv-x="944" 
d="M931 438h-87l-13 -68h100v-81h-117l-58 -289h-128l-85 289h-141l-86 -289h-127l-59 289h-117v81h101l-14 68h-87v81h71l-37 181h119l35 -181h164l53 181h109l52 -181h164l36 181h118l-36 -181h70v-81zM472 523l-1 -4h4l-1 4h-2zM217 438l13 -68h92l20 68h-125zM426 370
h93l-20 68h-52zM714 370l14 68h-125l20 -68h91zM268 186l30 103h-52l20 -103h2zM678 186l20 103h-52l30 -103h2z" />
    <glyph glyph-name="Euro" unicode="&#x20ac;" horiz-adv-x="787" 
d="M630 266l122 -20q-13 -120 -94.5 -190.5t-207.5 -70.5q-119 0 -202.5 64t-113.5 177h-109v95h95q-1 10 -1 29q0 17 1 26h-95v95h109q29 114 112.5 179t203.5 65q121 0 203 -68t96 -180l-119 -19q-15 74 -61 114t-119 40q-68 0 -116.5 -34t-71.5 -97h231v-95h-250
q-1 -8 -1 -26q0 -20 1 -29h187v-95h-168q23 -62 71.5 -95t116.5 -33q77 0 123 43t57 125z" />
    <glyph glyph-name="uni20BD" unicode="&#x20bd;" horiz-adv-x="699" 
d="M258 251v-65h180v-85h-180v-101h-125v101h-100v85h100v65h-100v86h100v363h282q111 0 175 -60.5t64 -164.5q0 -106 -64 -165t-177 -59h-155zM258 585v-219h153q56 0 87 28.5t31 80.5q0 110 -117 110h-154z" />
    <glyph glyph-name="uni2116" unicode="&#x2116;" horiz-adv-x="1090" 
d="M860 271q-84 0 -133.5 59.5t-49.5 159.5t49.5 159.5t133.5 59.5t133.5 -59.5t49.5 -159.5t-49.5 -159.5t-133.5 -59.5zM73 0v700h133l264 -489h2v489h125v-700h-132l-265 489h-2v-489h-125zM860 368q83 0 83 122t-83 122q-82 0 -82 -122t82 -122zM677 120v103h365v-103
h-365z" />
    <glyph glyph-name="uni2117" unicode="&#x2117;" horiz-adv-x="702" 
d="M351 16q-133 0 -220.5 88t-87.5 219t87.5 219.5t220.5 88.5t220.5 -88.5t87.5 -219.5t-87.5 -219t-220.5 -88zM351 80q103 0 170.5 71t67.5 172q0 103 -67.5 173.5t-170.5 70.5t-170.5 -70.5t-67.5 -173.5q0 -102 67.5 -172.5t170.5 -70.5zM252 149v344h135
q56 0 87.5 -30t31.5 -86t-31.5 -85.5t-89.5 -29.5h-54v-113h-79zM331 328h43q28 0 40.5 11.5t12.5 37.5q0 50 -51 50h-45v-99z" />
    <glyph glyph-name="trademark" unicode="&#x2122;" horiz-adv-x="810" 
d="M134 361v260h-99v79h284v-79h-99v-260h-86zM363 361v339h103l98 -231h1l99 231h102v-339h-82v207h-1l-91 -207h-55l-91 207h-1v-207h-82z" />
    <glyph glyph-name="oneeighth" unicode="&#x215b;" horiz-adv-x="888" 
d="M184 -78l-78 44l487 808l77 -46zM125 280v325l-103 -60v92l109 63h86v-420h-92zM690 -9q-78 0 -124 35t-46 94q0 37 20.5 66t55.5 43v1q-54 26 -54 86q0 50 41 81.5t107 31.5t107.5 -31.5t41.5 -81.5q0 -60 -54 -86v-1q35 -15 55.5 -43.5t20.5 -65.5q0 -59 -46 -94
t-125 -35zM690 259q29 0 46.5 13.5t17.5 35.5q0 21 -17.5 34t-46.5 13q-28 0 -45.5 -13t-17.5 -34q0 -22 17.5 -35.5t45.5 -13.5zM690 72q37 0 57.5 15.5t20.5 42.5t-21.5 43.5t-56.5 16.5t-56.5 -16.5t-21.5 -43.5t21 -42.5t57 -15.5z" />
    <glyph glyph-name="threeeighths" unicode="&#x215c;" horiz-adv-x="977" 
d="M273 -78l-78 44l487 808l77 -46zM193 271q-72 0 -117.5 39.5t-53.5 109.5l88 17q12 -84 83 -84q29 0 45.5 14.5t16.5 39.5q0 53 -65 53h-42v73h35q61 0 61 46q0 22 -16 35t-42 13q-59 0 -70 -59l-89 15q9 57 52 91.5t107 34.5t105.5 -34t41.5 -87t-49 -83v-1
q62 -33 62 -103q0 -56 -42.5 -93t-110.5 -37zM779 -9q-78 0 -124 35t-46 94q0 37 20.5 66t55.5 43v1q-54 26 -54 86q0 50 41 81.5t107 31.5t107.5 -31.5t41.5 -81.5q0 -60 -54 -86v-1q35 -15 55.5 -43.5t20.5 -65.5q0 -59 -46 -94t-125 -35zM779 259q29 0 46.5 13.5
t17.5 35.5q0 21 -17.5 34t-46.5 13q-28 0 -45.5 -13t-17.5 -34q0 -22 17.5 -35.5t45.5 -13.5zM779 72q37 0 57.5 15.5t20.5 42.5t-21.5 43.5t-56.5 16.5t-56.5 -16.5t-21.5 -43.5t21 -42.5t57 -15.5z" />
    <glyph glyph-name="fiveeighths" unicode="&#x215d;" horiz-adv-x="995" 
d="M291 -78l-78 44l487 808l77 -46zM197 271q-61 0 -107 30t-63 82l83 34q23 -62 85 -62q33 0 54.5 19t21.5 49q0 31 -21 50t-54 19q-46 0 -78 -35l-81 24l39 219h242v-83h-175l-12 -72l1 -1q36 21 79 21q66 0 109 -40t43 -102q0 -64 -46.5 -108t-119.5 -44zM797 -9
q-78 0 -124 35t-46 94q0 37 20.5 66t55.5 43v1q-54 26 -54 86q0 50 41 81.5t107 31.5t107.5 -31.5t41.5 -81.5q0 -60 -54 -86v-1q35 -15 55.5 -43.5t20.5 -65.5q0 -59 -46 -94t-125 -35zM797 259q29 0 46.5 13.5t17.5 35.5q0 21 -17.5 34t-46.5 13q-28 0 -45.5 -13
t-17.5 -34q0 -22 17.5 -35.5t45.5 -13.5zM797 72q37 0 57.5 15.5t20.5 42.5t-21.5 43.5t-56.5 16.5t-56.5 -16.5t-21.5 -43.5t21 -42.5t57 -15.5z" />
    <glyph glyph-name="seveneighths" unicode="&#x215e;" horiz-adv-x="883" 
d="M179 -78l-78 44l487 808l77 -46zM40 280l158 334v1h-198v85h303v-77l-158 -343h-105zM685 -9q-78 0 -124 35t-46 94q0 37 20.5 66t55.5 43v1q-54 26 -54 86q0 50 41 81.5t107 31.5t107.5 -31.5t41.5 -81.5q0 -60 -54 -86v-1q35 -15 55.5 -43.5t20.5 -65.5q0 -59 -46 -94
t-125 -35zM685 259q29 0 46.5 13.5t17.5 35.5q0 21 -17.5 34t-46.5 13q-28 0 -45.5 -13t-17.5 -34q0 -22 17.5 -35.5t45.5 -13.5zM685 72q37 0 57.5 15.5t20.5 42.5t-21.5 43.5t-56.5 16.5t-56.5 -16.5t-21.5 -43.5t21 -42.5t57 -15.5z" />
    <glyph glyph-name="arrowleft" unicode="&#x2190;" horiz-adv-x="732" 
d="M689 401v-109h-435l152 -138l-79 -80l-284 272l284 272l79 -80l-151 -137h434z" />
    <glyph glyph-name="arrowup" unicode="&#x2191;" horiz-adv-x="631" 
d="M587 389l-82 -82l-131 147v-427h-117v428l-131 -148l-83 82l272 284z" />
    <glyph glyph-name="arrowright" unicode="&#x2192;" horiz-adv-x="732" 
d="M405 618l284 -272l-284 -272l-79 80l152 138h-435v109h434l-151 137z" />
    <glyph glyph-name="arrowdown" unicode="&#x2193;" horiz-adv-x="631" 
d="M505 394l82 -82l-272 -284l-272 284l83 82l131 -148v428h117v-427z" />
    <glyph glyph-name="arrowboth" unicode="&#x2194;" horiz-adv-x="924" 
d="M597 617l284 -271l-284 -272l-76 77l157 142h-431l156 -142l-76 -77l-284 272l284 271l76 -76l-156 -142h431l-157 142z" />
    <glyph glyph-name="arrowupdn" unicode="&#x2195;" horiz-adv-x="631" 
d="M369 150l139 153l80 -80l-272 -283l-273 284l81 79l139 -154v402l-139 -154l-80 79l272 283l272 -283l-80 -79l-139 153v-400z" />
    <glyph glyph-name="uni2196" unicode="&#x2196;" horiz-adv-x="583" 
d="M540 183l-80 -82l-310 314l10 -210l-108 -1l-9 392l393 -8l-1 -108l-204 10z" />
    <glyph glyph-name="uni2197" unicode="&#x2197;" horiz-adv-x="583" 
d="M43 183l309 307l-204 -10l-1 108l393 8l-9 -392l-108 1l10 210l-310 -314z" />
    <glyph glyph-name="uni2198" unicode="&#x2198;" horiz-adv-x="583" 
d="M43 515l80 82l310 -314l-10 210l108 1l9 -392l-393 8l1 108l204 -10z" />
    <glyph glyph-name="uni2199" unicode="&#x2199;" horiz-adv-x="583" 
d="M540 518l-309 -307l204 10l1 -108l-393 -8l9 392l108 -1l-10 -210l310 314z" />
    <glyph glyph-name="uni21B3" unicode="&#x21b3;" horiz-adv-x="757" 
d="M431 618l283 -272l-283 -272l-80 80l153 138h-411v406h115v-297h295l-152 137z" />
    <glyph glyph-name="partialdiff" unicode="&#x2202;" horiz-adv-x="581" 
d="M293 788q119 0 186 -99.5t67 -276.5q0 -212 -69.5 -320t-206.5 -108q-107 0 -171 66.5t-64 178.5q0 126 60.5 199.5t166.5 73.5q75 0 155 -31q-13 202 -126 202q-48 0 -97 -51l-77 82q81 84 176 84zM271 100q133 0 147 258q-78 33 -137 33q-121 0 -121 -164q0 -61 29 -94
t82 -33z" />
    <glyph glyph-name="emptyset" unicode="&#x2205;" horiz-adv-x="850" 
d="M706 602q101 -103 101 -252q0 -157 -109.5 -261t-272.5 -104q-116 0 -211 57l-90 -102l-69 58l88 100q-100 105 -100 252q0 157 109.5 261t272.5 104q118 0 210 -57l92 105l69 -58zM174 350q0 -94 51 -159l331 378q-56 32 -131 32q-110 0 -180.5 -69.5t-70.5 -181.5z
M425 99q110 0 180.5 69.5t70.5 181.5q0 93 -51 160l-332 -378q58 -33 132 -33z" />
    <glyph glyph-name="product" unicode="&#x220f;" horiz-adv-x="792" 
d="M160 -141v726h-132v115h736v-115h-131v-726h-125v726h-223v-726h-125z" />
    <glyph glyph-name="summation" unicode="&#x2211;" horiz-adv-x="613" 
d="M60 -100v104l250 296l-250 296v104h515v-115h-342l239 -285l-239 -285h342v-115h-515z" />
    <glyph glyph-name="minus" unicode="&#x2212;" horiz-adv-x="553" 
d="M53 316v98h446v-98h-446z" />
    <glyph glyph-name="radical" unicode="&#x221a;" horiz-adv-x="689" 
d="M542 700h140l-287 -700h-116l-130 314h-136v115h221l100 -257h2z" />
    <glyph glyph-name="infinity" unicode="&#x221e;" horiz-adv-x="710" 
d="M224 104q-74 0 -122.5 56.5t-48.5 142.5t48.5 142.5t122.5 56.5q37 0 74 -22t57 -56q20 34 57 56t74 22q74 0 122.5 -56.5t48.5 -142.5t-48.5 -142.5t-122.5 -56.5q-37 0 -74 22t-57 56q-20 -34 -57 -56t-74 -22zM231 203q68 0 92 100q-24 101 -92 101q-36 0 -57 -27
t-21 -74q0 -46 21 -73t57 -27zM479 203q36 0 57 27t21 73q0 47 -21 74t-57 27q-68 0 -92 -101q24 -100 92 -100z" />
    <glyph glyph-name="integral" unicode="&#x222b;" horiz-adv-x="482" 
d="M53 -240v115q70 1 97.5 24.5t27.5 83.5v538q0 122 57 173t193 51v-115q-70 -1 -97.5 -24.5t-27.5 -83.5v-538q0 -122 -57 -173t-193 -51z" />
    <glyph glyph-name="approxequal" unicode="&#x2248;" horiz-adv-x="658" 
d="M158 372l-106 37q42 152 171 152q39 0 80 -19t74.5 -38t54.5 -19q43 0 66 76l106 -38q-42 -151 -170 -151q-39 0 -80.5 19t-75 37.5t-53.5 18.5q-44 0 -67 -75zM158 150l-106 37q42 152 171 152q39 0 80 -19t74.5 -38t54.5 -19q43 0 66 76l106 -38q-42 -151 -170 -151
q-39 0 -80.5 19t-75 37.5t-53.5 18.5q-44 0 -67 -75z" />
    <glyph glyph-name="notequal" unicode="&#x2260;" horiz-adv-x="562" 
d="M508 397h-161l-53 -94h214v-100h-270l-66 -117l-59 35l46 82h-106v100h162l53 94h-215v100h272l65 116l59 -35l-46 -81h105v-100z" />
    <glyph glyph-name="lessequal" unicode="&#x2264;" horiz-adv-x="552" 
d="M442 134l-389 234v74l389 234l53 -85l-314 -186l314 -187zM499 0h-446v102h446v-102z" />
    <glyph glyph-name="greaterequal" unicode="&#x2265;" horiz-adv-x="552" 
d="M110 134l-53 84l314 187l-314 186l53 85l389 -234v-74zM53 0v102h446v-102h-446z" />
    <glyph glyph-name="lozenge" unicode="&#x25ca;" horiz-adv-x="697" 
d="M280 0l-227 350l227 350h137l226 -350l-226 -350h-137zM348 96l165 254l-165 254l-164 -254z" />
    <glyph glyph-name="uniF8FF" unicode="&#xf8ff;" horiz-adv-x="686" 
d="M50 0v423q0 118 87 205t205 87q119 0 206.5 -87t87.5 -205v-423h-28l-65 65l-68 -65l-63 65l-71 -65l-69 65l-63 -65l-67 65l-66 -65h-26zM216 307q29 0 50 20.5t21 49.5q0 30 -20.5 51t-50.5 21q-29 0 -50 -21t-21 -51q0 -29 21 -49.5t50 -20.5zM470 307q29 0 50.5 21
t21.5 49q0 30 -21 51t-51 21q-29 0 -49.5 -21t-20.5 -51q0 -29 21 -49.5t49 -20.5z" />
    <glyph glyph-name="uniFEFF" unicode="&#xfeff;" horiz-adv-x="0" 
 />
    <glyph glyph-name="i.loclTRK" horiz-adv-x="230" 
d="M52 620v121h126v-121h-126zM55 0v530h120v-530h-120z" />
    <glyph glyph-name="a.ordn" horiz-adv-x="281" 
d="M108 417q-43 0 -68.5 21.5t-25.5 57.5q0 37 25 58t82 33q33 7 45 13.5t12 17.5q0 26 -40 26q-46 0 -55 -44l-71 13q6 41 40.5 67.5t83.5 26.5q54 0 86 -28.5t32 -75.5v-179h-66v24h-1q-23 -31 -79 -31zM124 480q24 0 40 13t16 32v31h-1q-5 -11 -42 -21q-27 -7 -37.5 -14
t-10.5 -18q0 -23 35 -23z" />
    <glyph glyph-name="b.ordn" horiz-adv-x="319" 
d="M178 707q55 0 92 -41.5t37 -103.5t-37 -103.5t-92 -41.5q-52 0 -76 31h-1v-24h-74v380h78v-124h1q25 27 72 27zM166 488q29 0 46 20t17 54t-17 54t-46 20q-26 0 -43.5 -17t-17.5 -41v-32q0 -24 17.5 -41t43.5 -17z" />
    <glyph glyph-name="c.ordn" horiz-adv-x="296" 
d="M152 417q-62 0 -101 40.5t-39 104.5t39 104.5t101 40.5q52 0 89 -29t44 -74l-75 -14q-11 46 -58 46q-29 0 -45.5 -20t-16.5 -54t16.5 -54t45.5 -20q47 0 58 46l75 -14q-7 -45 -44 -74t-89 -29z" />
    <glyph glyph-name="d.ordn" horiz-adv-x="319" 
d="M141 707q47 0 72 -27h1v124h78v-380h-74v24h-1q-24 -31 -76 -31q-55 0 -92 41.5t-37 103.5t37 103.5t92 41.5zM153 488q26 0 43.5 17t17.5 41v32q0 24 -17.5 41t-43.5 17q-29 0 -46 -20t-17 -54t17 -54t46 -20z" />
    <glyph glyph-name="e.ordn" horiz-adv-x="301" 
d="M290 563v-29h-198q10 -51 65 -51q37 0 75 36l46 -54q-50 -48 -122 -48q-66 0 -105 39.5t-39 105.5q0 63 39.5 104t99.5 41t99.5 -40.5t39.5 -103.5zM91 592h123q-2 21 -19 35t-42 14q-54 0 -62 -49z" />
    <glyph glyph-name="f.ordn" horiz-adv-x="203" 
d="M52 424v207h-50v69h50v27q0 84 93 84h46v-68h-39q-22 0 -22 -21v-22h72v-69h-72v-207h-78z" />
    <glyph glyph-name="g.ordn" horiz-adv-x="317" 
d="M154 296q-41 0 -75 18t-54 49l57 44q28 -42 72 -42q60 0 60 63v16h-1q-27 -27 -74 -27q-57 0 -92 40.5t-35 105.5q0 63 36 103.5t93 40.5q47 0 74 -30h1v23h74v-266q0 -64 -37 -101t-99 -37zM154 487q25 0 41.5 15t16.5 37v47q0 22 -16.5 36.5t-41.5 14.5q-30 0 -47 -20
t-17 -54q0 -35 17 -55.5t47 -20.5z" />
    <glyph glyph-name="h.ordn" horiz-adv-x="314" 
d="M27 424v380h78v-127h1q28 30 78 30q49 0 78.5 -29t29.5 -78v-176h-78v155q0 26 -14.5 41.5t-39.5 15.5t-40 -15t-15 -41v-156h-78z" />
    <glyph glyph-name="i.ordn" horiz-adv-x="135" 
d="M27 747v77h82v-77h-82zM29 424v276h78v-276h-78z" />
    <glyph glyph-name="j.ordn" horiz-adv-x="134" 
d="M25 747v77h82v-77h-82zM-27 311v74h32q23 0 23 20v295h79v-303q0 -86 -90 -86h-44z" />
    <glyph glyph-name="k.ordn" horiz-adv-x="287" 
d="M27 424v380h78v-197h1l83 93h101l-102 -108l101 -168h-90l-62 112h-1l-31 -33v-79h-78z" />
    <glyph glyph-name="l.ordn" horiz-adv-x="132" 
d="M27 424v380h78v-380h-78z" />
    <glyph glyph-name="m.ordn" horiz-adv-x="469" 
d="M27 424v276h77v-27h1q25 34 74 34q52 0 80 -34h1q29 34 82 34q47 0 76.5 -29t29.5 -76v-178h-81v168q0 20 -12.5 32t-32.5 12q-21 0 -34 -12t-13 -32v-168h-74v166q0 22 -12.5 34t-34.5 12q-21 0 -34 -13t-13 -35v-164h-80z" />
    <glyph glyph-name="n.ordn" horiz-adv-x="314" 
d="M27 424v276h74v-27h1q29 34 82 34q49 0 78.5 -29t29.5 -78v-176h-78v155q0 26 -14.5 41.5t-39.5 15.5t-40 -15t-15 -41v-156h-78z" />
    <glyph glyph-name="o.ordn" horiz-adv-x="310" 
d="M155 417q-63 0 -103 41t-40 104t40 104t103 41t103 -41t40 -104t-40 -104t-103 -41zM155 488q30 0 47.5 20t17.5 54t-17.5 54t-47.5 20t-47.5 -20t-17.5 -54t17.5 -54t47.5 -20z" />
    <glyph glyph-name="p.ordn" horiz-adv-x="320" 
d="M179 707q55 0 92 -41.5t37 -103.5t-37 -103.5t-92 -41.5q-48 0 -73 27h-1v-141h-78v397h74v-24h1q24 31 77 31zM167 488q29 0 46 20t17 54t-17 54t-46 20q-26 0 -44 -17t-18 -41v-32q0 -24 18 -41t44 -17z" />
    <glyph glyph-name="q.ordn" horiz-adv-x="320" 
d="M141 707q53 0 77 -31h1v24h74v-397h-78v141h-1q-25 -27 -73 -27q-55 0 -92 41.5t-37 103.5t37 103.5t92 41.5zM153 488q26 0 44 17t18 41v32q0 24 -18 41t-44 17q-29 0 -46 -20t-17 -54t17 -54t46 -20z" />
    <glyph glyph-name="r.ordn" horiz-adv-x="210" 
d="M170 705q18 0 43 -5l-13 -72q-16 4 -31 4q-64 0 -64 -91v-117h-78v276h73v-25h1q22 30 69 30z" />
    <glyph glyph-name="s.ordn" horiz-adv-x="293" 
d="M156 417q-54 0 -90 25.5t-44 69.5l67 19q8 -28 23 -40.5t44 -12.5q43 0 43 27q0 11 -12.5 18t-45.5 15q-59 16 -83 35.5t-24 50.5q0 37 29.5 60t78.5 23q44 0 77 -21.5t44 -57.5l-66 -20q-15 38 -55 38q-15 0 -24.5 -6t-9.5 -15t10.5 -15t43.5 -15q59 -16 84 -36.5
t25 -53.5q0 -39 -32 -63.5t-83 -24.5z" />
    <glyph glyph-name="t.ordn" horiz-adv-x="197" 
d="M196 634h-72v-112q0 -13 6 -18t22 -5h32v-75h-35q-56 0 -79.5 21t-23.5 70v119h-44v67h44v69h78v-69h72v-67z" />
    <glyph glyph-name="u.ordn" horiz-adv-x="306" 
d="M201 700h78v-276h-74v24h-1q-28 -31 -76 -31q-50 0 -78 29t-28 86v168h78v-163q0 -49 50 -49q24 0 37.5 15t13.5 41v156z" />
    <glyph glyph-name="v.ordn" horiz-adv-x="312" 
d="M121 424l-114 276h85l64 -175h1l63 175h85l-114 -276h-70z" />
    <glyph glyph-name="w.ordn" horiz-adv-x="435" 
d="M75 424l-68 276h82l36 -169h1l55 169h73l55 -169h1l36 169h82l-68 -276h-79l-63 178h-1l-63 -178h-79z" />
    <glyph glyph-name="x.ordn" horiz-adv-x="316" 
d="M7 424l103 139l-103 137h94l56 -82h1l56 82h94l-102 -137l103 -139h-95l-56 83h-1l-55 -83h-95z" />
    <glyph glyph-name="y.ordn" horiz-adv-x="319" 
d="M227 700h85l-169 -397h-85l60 142l-111 255h85l67 -164h1z" />
    <glyph glyph-name="z.ordn" horiz-adv-x="277" 
d="M7 424v60l149 146v1h-146v69h256v-60l-150 -146v-1h154v-69h-263z" />
    <glyph glyph-name="a.ss01" horiz-adv-x="583" 
d="M413 530h115v-530h-115v38h-2q-50 -53 -136 -53q-105 0 -172.5 78t-67.5 202t67.5 202t172.5 78q86 0 136 -53h2v38zM287 95q54 0 87.5 32.5t33.5 82.5v110q0 50 -33.5 82.5t-87.5 32.5q-61 0 -96.5 -45t-35.5 -125t35.5 -125t96.5 -45z" />
    <glyph glyph-name="aacute.ss01" horiz-adv-x="583" 
d="M234 605l85 130h130l-115 -130h-100zM413 530h115v-530h-115v38h-2q-50 -53 -136 -53q-105 0 -172.5 78t-67.5 202t67.5 202t172.5 78q86 0 136 -53h2v38zM287 95q54 0 87.5 32.5t33.5 82.5v110q0 50 -33.5 82.5t-87.5 32.5q-61 0 -96.5 -45t-35.5 -125t35.5 -125
t96.5 -45z" />
    <glyph glyph-name="abreve.ss01" horiz-adv-x="583" 
d="M298 595q-62 0 -100 35.5t-41 96.5h65q13 -52 76 -52q62 0 75 52h65q-3 -61 -41 -96.5t-99 -35.5zM413 530h115v-530h-115v38h-2q-50 -53 -136 -53q-105 0 -172.5 78t-67.5 202t67.5 202t172.5 78q86 0 136 -53h2v38zM287 95q54 0 87.5 32.5t33.5 82.5v110
q0 50 -33.5 82.5t-87.5 32.5q-61 0 -96.5 -45t-35.5 -125t35.5 -125t96.5 -45z" />
    <glyph glyph-name="uni01CE.ss01" horiz-adv-x="583" 
d="M364 595h-134l-69 87l65 51l71 -89l70 89l65 -51zM413 530h115v-530h-115v38h-2q-50 -53 -136 -53q-105 0 -172.5 78t-67.5 202t67.5 202t172.5 78q86 0 136 -53h2v38zM408 210v110q0 50 -33.5 82.5t-87.5 32.5q-61 0 -96.5 -45t-35.5 -125t35.5 -125t96.5 -45
q54 0 87.5 32.5t33.5 82.5z" />
    <glyph glyph-name="acircumflex.ss01" horiz-adv-x="583" 
d="M297 674l-71 -89l-65 51l69 87h134l68 -87l-65 -51zM413 530h115v-530h-115v38h-2q-50 -53 -136 -53q-105 0 -172.5 78t-67.5 202t67.5 202t172.5 78q86 0 136 -53h2v38zM408 210v110q0 50 -33.5 82.5t-87.5 32.5q-61 0 -96.5 -45t-35.5 -125t35.5 -125t96.5 -45
q54 0 87.5 32.5t33.5 82.5z" />
    <glyph glyph-name="uni1EAD.ss01" horiz-adv-x="583" 
d="M297 674l-71 -89l-65 51l69 87h134l68 -87l-65 -51zM413 530h115v-530h-115v38h-2q-50 -53 -136 -53q-105 0 -172.5 78t-67.5 202t67.5 202t172.5 78q86 0 136 -53h2v38zM408 210v110q0 50 -33.5 82.5t-87.5 32.5q-61 0 -96.5 -45t-35.5 -125t35.5 -125t96.5 -45
q54 0 87.5 32.5t33.5 82.5zM237 -181v116h118v-116h-118z" />
    <glyph glyph-name="adieresis.ss01" horiz-adv-x="583" 
d="M139 595v116h118v-116h-118zM337 595v116h118v-116h-118zM413 530h115v-530h-115v38h-2q-50 -53 -136 -53q-105 0 -172.5 78t-67.5 202t67.5 202t172.5 78q86 0 136 -53h2v38zM287 95q54 0 87.5 32.5t33.5 82.5v110q0 50 -33.5 82.5t-87.5 32.5q-61 0 -96.5 -45
t-35.5 -125t35.5 -125t96.5 -45z" />
    <glyph glyph-name="uni01DF.ss01" horiz-adv-x="583" 
d="M147 751v78h299v-78h-299zM139 595v116h118v-116h-118zM337 595v116h118v-116h-118zM413 530h115v-530h-115v38h-2q-50 -53 -136 -53q-105 0 -172.5 78t-67.5 202t67.5 202t172.5 78q86 0 136 -53h2v38zM287 95q54 0 87.5 32.5t33.5 82.5v110q0 50 -33.5 82.5t-87.5 32.5
q-61 0 -96.5 -45t-35.5 -125t35.5 -125t96.5 -45z" />
    <glyph glyph-name="uni1EA1.ss01" horiz-adv-x="583" 
d="M413 530h115v-530h-115v38h-2q-50 -53 -136 -53q-105 0 -172.5 78t-67.5 202t67.5 202t172.5 78q86 0 136 -53h2v38zM287 95q54 0 87.5 32.5t33.5 82.5v110q0 50 -33.5 82.5t-87.5 32.5q-61 0 -96.5 -45t-35.5 -125t35.5 -125t96.5 -45zM237 -181v116h118v-116h-118z" />
    <glyph glyph-name="agrave.ss01" horiz-adv-x="583" 
d="M258 605l-115 130h130l85 -130h-100zM413 530h115v-530h-115v38h-2q-50 -53 -136 -53q-105 0 -172.5 78t-67.5 202t67.5 202t172.5 78q86 0 136 -53h2v38zM287 95q54 0 87.5 32.5t33.5 82.5v110q0 50 -33.5 82.5t-87.5 32.5q-61 0 -96.5 -45t-35.5 -125t35.5 -125
t96.5 -45z" />
    <glyph glyph-name="amacron.ss01" horiz-adv-x="583" 
d="M147 605v78h299v-78h-299zM413 530h115v-530h-115v38h-2q-50 -53 -136 -53q-105 0 -172.5 78t-67.5 202t67.5 202t172.5 78q86 0 136 -53h2v38zM287 95q54 0 87.5 32.5t33.5 82.5v110q0 50 -33.5 82.5t-87.5 32.5q-61 0 -96.5 -45t-35.5 -125t35.5 -125t96.5 -45z" />
    <glyph glyph-name="aogonek.ss01" horiz-adv-x="583" 
d="M522 -108l33 -74q-50 -26 -103 -26q-48 0 -75 23t-26 65q1 67 82 120h-20v38h-2q-50 -53 -136 -53q-105 0 -172.5 78t-67.5 202t67.5 202t172.5 78q86 0 136 -53h2v38h115v-530h-17q-75 -45 -75 -96q0 -30 31 -30q24 0 55 18zM408 210v110q0 50 -33.5 82.5t-87.5 32.5
q-61 0 -96.5 -45t-35.5 -125t35.5 -125t96.5 -45q54 0 87.5 32.5t33.5 82.5z" />
    <glyph glyph-name="aring.ss01" horiz-adv-x="590" 
d="M280 575q-55 0 -90.5 32.5t-35.5 81.5q0 50 35.5 82.5t90.5 32.5t91 -32.5t36 -82.5q0 -49 -36 -81.5t-91 -32.5zM280 629q27 0 44 17t17 43t-17 43.5t-44 17.5t-43.5 -17t-16.5 -44q0 -26 16.5 -43t43.5 -17zM413 530h115v-530h-115v38h-2q-50 -53 -136 -53
q-105 0 -172.5 78t-67.5 202t67.5 202t172.5 78q86 0 136 -53h2v38zM287 95q54 0 87.5 32.5t33.5 82.5v110q0 50 -33.5 82.5t-87.5 32.5q-61 0 -96.5 -45t-35.5 -125t35.5 -125t96.5 -45z" />
    <glyph glyph-name="aringacute.ss01" horiz-adv-x="583" 
d="M280 575q-55 0 -90.5 32.5t-35.5 81.5q0 39 23 68.5t61 40.5l75 115h130l-106 -120q32 -14 51 -41.5t19 -62.5q0 -49 -36 -81.5t-91 -32.5zM280 750q-27 0 -43.5 -17t-16.5 -44q0 -26 16.5 -43t43.5 -17t44 17t17 43t-17 43.5t-44 17.5zM413 530h115v-530h-115v38h-2
q-50 -53 -136 -53q-105 0 -172.5 78t-67.5 202t67.5 202t172.5 78q86 0 136 -53h2v38zM408 210v110q0 50 -33.5 82.5t-87.5 32.5q-61 0 -96.5 -45t-35.5 -125t35.5 -125t96.5 -45q54 0 87.5 32.5t33.5 82.5z" />
    <glyph glyph-name="atilde.ss01" horiz-adv-x="583" 
d="M361 600q-29 0 -70 19.5t-56 19.5q-28 0 -35 -34h-62q2 51 28 80t67 29q29 0 69.5 -19.5t55.5 -19.5q28 0 35 34h62q-2 -52 -27.5 -80.5t-66.5 -28.5zM413 530h115v-530h-115v38h-2q-50 -53 -136 -53q-105 0 -172.5 78t-67.5 202t67.5 202t172.5 78q86 0 136 -53h2v38z
M287 95q54 0 87.5 32.5t33.5 82.5v110q0 50 -33.5 82.5t-87.5 32.5q-61 0 -96.5 -45t-35.5 -125t35.5 -125t96.5 -45z" />
    <glyph glyph-name="aring.ss02" horiz-adv-x="518" 
d="M365 525q103 -48 103 -172v-353h-109v46h-2q-42 -61 -144 -61q-79 0 -126.5 42.5t-47.5 113.5q0 67 43.5 106t145.5 63q67 17 92 32t25 40q0 28 -22.5 44t-62.5 16q-45 0 -74.5 -25t-37.5 -69l-113 24q19 109 121 153q-36 34 -36 87q0 55 39.5 91t100.5 36t101 -36
t40 -91q0 -51 -36 -87zM193 612q0 -29 18.5 -48t48.5 -19t49 19t19 48t-19 48t-49 19t-48.5 -19t-18.5 -48zM350 179v91h-2q-14 -27 -92 -49q-55 -14 -78 -30.5t-23 -41.5q0 -60 78 -60q52 0 84.5 25t32.5 65z" />
    <glyph glyph-name="aringacute.ss02" horiz-adv-x="518" 
d="M365 525q103 -48 103 -172v-353h-109v46h-2q-42 -61 -144 -61q-79 0 -126.5 42.5t-47.5 113.5q0 67 43.5 106t145.5 63q67 17 92 32t25 40q0 28 -22.5 44t-62.5 16q-45 0 -74.5 -25t-37.5 -69l-113 24q19 109 121 153q-36 34 -36 87q0 40 22 71t59 45l81 124h130
l-106 -119q43 -13 69 -45.5t26 -75.5q0 -51 -36 -87zM193 612q0 -29 18.5 -48t48.5 -19t49 19t19 48t-19 48t-49 19t-48.5 -19t-18.5 -48zM350 179v91h-2q-14 -27 -92 -49q-55 -14 -78 -30.5t-23 -41.5q0 -60 78 -60q52 0 84.5 25t32.5 65z" />
    <glyph glyph-name="f.ss03" horiz-adv-x="353" 
d="M109 0v423h-99v107h99v55q0 64 38.5 100.5t109.5 36.5h92v-108h-78q-42 0 -42 -41v-43h101v-107h-101v-423h-120z" />
    <glyph glyph-name="j.ss03" horiz-adv-x="230" 
d="M52 620v121h126v-121h-126zM54 -225v755h120v-755h-120z" />
    <glyph glyph-name="t.ss03" horiz-adv-x="350" 
d="M328 423h-111v-263q0 -26 12 -35.5t44 -9.5h53v-115h-64q-89 0 -127 35t-38 119v269h-87v107h87v129h120v-129h111v-107z" />
    <glyph glyph-name="zero.case" horiz-adv-x="645" 
d="M323 -15q-129 0 -208.5 98t-79.5 267t79.5 267t208.5 98t208 -98t79 -267t-79 -267t-208 -98zM323 100q76 0 119 64t43 186t-43 186t-119 64q-77 0 -120 -64t-43 -186t43 -186t120 -64z" />
    <glyph glyph-name="one.case" horiz-adv-x="407" 
d="M192 0v562l-164 -102v133l173 107h116v-700h-125z" />
    <glyph glyph-name="two.case" horiz-adv-x="605" 
d="M211 177q-13 -19 -13 -62h351v-115h-492v92q0 92 39 143q41 55 170 118q96 45 131 77.5t35 75.5q0 42 -32.5 68t-84.5 26q-65 0 -102.5 -36.5t-41.5 -106.5l-123 10q6 115 77.5 181.5t189.5 66.5q105 0 173.5 -59.5t68.5 -150.5q0 -75 -47 -130t-152 -106
q-86 -42 -111.5 -57.5t-35.5 -34.5z" />
    <glyph glyph-name="three.case" horiz-adv-x="609" 
d="M315 -15q-118 0 -190.5 65t-86.5 183l122 23q11 -80 47.5 -118t107.5 -38q56 0 88 29t32 78q0 107 -126 107h-64v102h55q53 0 85 25t32 66q0 43 -30 69t-80 26q-55 0 -90 -29t-44 -82l-122 21q14 93 83.5 148t172.5 55q104 0 169.5 -54.5t65.5 -139.5q0 -46 -23.5 -83.5
t-63.5 -58.5v-2q49 -22 77.5 -69.5t28.5 -108.5q0 -92 -68.5 -153t-177.5 -61z" />
    <glyph glyph-name="four.case" horiz-adv-x="587" 
d="M354 0v134h-347v113l275 453h197v-453h85v-113h-85v-134h-125zM132 247h222v362h-2z" />
    <glyph glyph-name="five.case" horiz-adv-x="601" 
d="M307 -15q-105 0 -178 51.5t-96 147.5l121 36q29 -120 153 -120q62 0 101.5 37t39.5 96t-39 96.5t-102 37.5q-84 0 -144 -62l-114 31l65 364h390v-115h-295l-27 -153l2 -1q60 39 141 39q109 0 178.5 -67t69.5 -170q0 -111 -74 -179.5t-192 -68.5z" />
    <glyph glyph-name="six.case" horiz-adv-x="613" 
d="M347 466q105 0 173 -67t68 -172q0 -108 -72 -175t-183 -67q-140 0 -219 96t-79 263q0 164 82.5 267.5t213.5 103.5q95 0 160.5 -49t85.5 -134l-116 -29q-16 53 -47 76.5t-81 23.5q-70 0 -116 -57t-54 -159h2q61 79 182 79zM333 97q57 0 95.5 35.5t38.5 97.5t-38.5 99
t-99.5 37q-62 0 -102 -37.5t-40 -98.5q0 -59 39.5 -96t106.5 -37z" />
    <glyph glyph-name="seven.case" horiz-adv-x="521" 
d="M91 0l267 583v2h-346v115h486v-106l-266 -594h-141z" />
    <glyph glyph-name="eight.case" horiz-adv-x="588" 
d="M294 -15q-123 0 -199.5 60.5t-76.5 154.5q0 62 34 110.5t91 73.5v2q-87 47 -87 138q0 83 66.5 137t171.5 54q104 0 171 -54t67 -137q0 -89 -87 -138v-2q57 -25 90.5 -73.5t33.5 -110.5q0 -94 -76 -154.5t-199 -60.5zM294 428q52 0 84 25t32 65t-32 65t-84 25t-84 -25
t-32 -65t32 -65t84 -25zM294 104q68 0 106 28.5t38 80.5q0 50 -38.5 80.5t-105.5 30.5t-106 -30.5t-39 -80.5q0 -52 38.5 -80.5t106.5 -28.5z" />
    <glyph glyph-name="nine.case" horiz-adv-x="596" 
d="M282 715q130 0 204.5 -87t74.5 -247q0 -203 -64.5 -299.5t-201.5 -96.5q-91 0 -153.5 48t-86.5 131l114 35q31 -102 126 -102q130 0 140 200h-2q-57 -62 -162 -62q-111 0 -178.5 65.5t-67.5 172.5q0 106 72.5 174t184.5 68zM147 473q0 -61 37.5 -96.5t101.5 -35.5
q62 0 99.5 35.5t37.5 95.5q0 59 -38 95t-99 36q-64 0 -101.5 -35t-37.5 -95z" />
    <glyph glyph-name="zero.tf" 
d="M325 -15q-129 0 -208.5 98t-79.5 267t79.5 267t208.5 98t208.5 -98t79.5 -267t-79.5 -267t-208.5 -98zM325 100q77 0 120 64t43 186t-43 186t-120 64t-120 -64t-43 -186t43 -186t120 -64z" />
    <glyph glyph-name="one.tf" 
d="M393 115h161v-115h-458v115h172v447l-164 -102v133l173 107h116v-585z" />
    <glyph glyph-name="two.tf" 
d="M233 177q-13 -19 -13 -62h351v-115h-492v92q0 92 39 143q41 55 170 118q96 45 131 77.5t35 75.5q0 42 -32.5 68t-84.5 26q-65 0 -102.5 -36.5t-41.5 -106.5l-123 10q6 115 77.5 181.5t189.5 66.5q105 0 173.5 -59.5t68.5 -150.5q0 -75 -47 -130t-152 -106
q-86 -42 -111.5 -57.5t-35.5 -34.5z" />
    <glyph glyph-name="three.tf" 
d="M340 -15q-118 0 -190.5 65t-86.5 183l122 23q11 -80 47.5 -118t107.5 -38q56 0 88 29t32 78q0 107 -126 107h-64v102h55q53 0 85 25t32 66q0 43 -30 69t-80 26q-55 0 -90 -29t-44 -82l-122 21q14 93 83.5 148t172.5 55q104 0 169.5 -54.5t65.5 -139.5q0 -46 -23.5 -83.5
t-63.5 -58.5v-2q49 -22 77.5 -69.5t28.5 -108.5q0 -92 -68.5 -153t-177.5 -61z" />
    <glyph glyph-name="four.tf" 
d="M394 0v134h-347v113l275 453h197v-453h85v-113h-85v-134h-125zM172 247h222v362h-2z" />
    <glyph glyph-name="five.tf" 
d="M328 -15q-105 0 -178 51.5t-96 147.5l121 36q29 -120 153 -120q62 0 101.5 37t39.5 96t-39 96.5t-102 37.5q-84 0 -144 -62l-114 31l65 364h390v-115h-295l-27 -153l2 -1q60 39 141 39q109 0 178.5 -67t69.5 -170q0 -111 -74 -179.5t-192 -68.5z" />
    <glyph glyph-name="six.tf" 
d="M361 466q105 0 173 -67t68 -172q0 -108 -72 -175t-183 -67q-140 0 -219 96t-79 263q0 164 82.5 267.5t213.5 103.5q95 0 160.5 -49t85.5 -134l-116 -29q-16 53 -47 76.5t-81 23.5q-70 0 -116 -57t-54 -159h2q61 79 182 79zM347 97q57 0 95.5 35.5t38.5 97.5t-38.5 99
t-99.5 37q-62 0 -102 -37.5t-40 -98.5q0 -59 39.5 -96t106.5 -37z" />
    <glyph glyph-name="seven.tf" 
d="M161 0l267 583v2h-346v115h486v-106l-266 -594h-141z" />
    <glyph glyph-name="eight.tf" 
d="M328 -15q-123 0 -199.5 60.5t-76.5 154.5q0 62 34 110.5t91 73.5v2q-87 47 -87 138q0 83 66.5 137t171.5 54q104 0 171 -54t67 -137q0 -89 -87 -138v-2q57 -25 90.5 -73.5t33.5 -110.5q0 -94 -76 -154.5t-199 -60.5zM328 428q52 0 84 25t32 65t-32 65t-84 25t-84 -25
t-32 -65t32 -65t84 -25zM328 104q68 0 106 28.5t38 80.5q0 50 -38.5 80.5t-105.5 30.5t-106 -30.5t-39 -80.5q0 -52 38.5 -80.5t106.5 -28.5z" />
    <glyph glyph-name="nine.tf" 
d="M314 715q130 0 204.5 -87t74.5 -247q0 -203 -64.5 -299.5t-201.5 -96.5q-91 0 -153.5 48t-86.5 131l114 35q31 -102 126 -102q130 0 140 200h-2q-57 -62 -162 -62q-111 0 -178.5 65.5t-67.5 172.5q0 106 72.5 174t184.5 68zM179 473q0 -61 37.5 -96.5t101.5 -35.5
q62 0 99.5 35.5t37.5 95.5q0 59 -38 95t-99 36q-64 0 -101.5 -35t-37.5 -95z" />
    <glyph glyph-name="zero.zero" horiz-adv-x="644" 
d="M322 687q129 0 208 -94.5t79 -256.5q0 -161 -79.5 -256t-207.5 -95t-207.5 95t-79.5 256q0 162 79 256.5t208 94.5zM322 579q-79 0 -124 -62.5t-45 -180.5q0 -107 39 -171l190 403q-28 11 -60 11zM322 93q79 0 124 62.5t45 180.5q0 112 -42 176l-192 -406q27 -13 65 -13z
" />
    <glyph glyph-name="zero.zero.case" horiz-adv-x="645" 
d="M323 715q129 0 208 -98t79 -267t-79 -267t-208 -98t-208.5 98t-79.5 267t79.5 267t208.5 98zM323 608q-79 0 -123.5 -66t-44.5 -192q0 -113 37 -179l199 421q-29 16 -68 16zM323 92q79 0 123.5 66t44.5 192q0 113 -37 179l-199 -421q29 -16 68 -16z" />
    <glyph glyph-name="zero.zero.tf" 
d="M325 715q129 0 208 -98t79 -267t-79 -267t-208 -98t-208.5 98t-79.5 267t79.5 267t208.5 98zM325 608q-79 0 -123.5 -66t-44.5 -192q0 -113 37 -179l199 421q-29 16 -68 16zM325 92q79 0 123.5 66t44.5 192q0 113 -37 179l-199 -421q29 -16 68 -16z" />
    <glyph glyph-name="zero.subs" horiz-adv-x="419" 
d="M209 -159q-84 0 -133 59.5t-49 159.5t49 159.5t133 59.5t133.5 -59.5t49.5 -159.5t-49.5 -159.5t-133.5 -59.5zM209 -75q92 0 92 135t-92 135q-91 0 -91 -135t91 -135z" />
    <glyph glyph-name="one.subs" horiz-adv-x="283" 
d="M125 -150v325l-103 -60v92l109 63h86v-420h-92z" />
    <glyph glyph-name="two.subs" horiz-adv-x="374" 
d="M139 -37q-10 -10 -11 -29h216v-84h-313v62q0 59 26 89q27 34 108 68q54 24 72 40t18 40q0 22 -17 35.5t-45 13.5q-34 0 -54 -19.5t-22 -55.5l-90 6q3 69 48 109.5t118 40.5q68 0 111 -36.5t43 -93.5q0 -47 -28 -79t-96 -62q-71 -31 -84 -45z" />
    <glyph glyph-name="three.subs" horiz-adv-x="372" 
d="M193 -159q-72 0 -117.5 39.5t-53.5 109.5l88 17q12 -84 83 -84q29 0 45.5 14.5t16.5 39.5q0 53 -65 53h-42v73h35q61 0 61 46q0 22 -16 35t-42 13q-59 0 -70 -59l-89 15q9 57 52 91.5t107 34.5t105.5 -34t41.5 -87t-49 -83v-1q62 -33 62 -103q0 -56 -42.5 -93t-110.5 -37
z" />
    <glyph glyph-name="four.subs" horiz-adv-x="389" 
d="M233 -150v68h-223v85l167 267h148v-268h53v-84h-53v-68h-92zM104 2h129v206h-1z" />
    <glyph glyph-name="five.subs" horiz-adv-x="390" 
d="M197 -159q-61 0 -107 30t-63 82l83 34q23 -62 85 -62q33 0 54.5 19t21.5 49q0 31 -21 50t-54 19q-46 0 -78 -35l-81 24l39 219h242v-83h-175l-12 -72l1 -1q36 21 79 21q66 0 109 -40t43 -102q0 -64 -46.5 -108t-119.5 -44z" />
    <glyph glyph-name="six.subs" horiz-adv-x="399" 
d="M224 130q66 0 107 -39t41 -102q0 -66 -44 -107t-115 -41q-88 0 -137 57.5t-49 160.5q0 98 50.5 159t131.5 61q58 0 97 -27t54 -78l-85 -25q-16 47 -66 47q-37 0 -60 -27t-25 -76h2q37 37 98 37zM209 -76q33 0 52.5 18t19.5 49q0 30 -19 47.5t-51 17.5t-52.5 -18
t-20.5 -48t19 -48t52 -18z" />
    <glyph glyph-name="seven.subs" horiz-adv-x="308" 
d="M40 -150l158 334v1h-198v85h303v-77l-158 -343h-105z" />
    <glyph glyph-name="eight.subs" horiz-adv-x="395" 
d="M197 -159q-78 0 -124 35t-46 94q0 37 20.5 66t55.5 43v1q-54 26 -54 86q0 50 41 81.5t107 31.5t107.5 -31.5t41.5 -81.5q0 -60 -54 -86v-1q35 -15 55.5 -43.5t20.5 -65.5q0 -59 -46 -94t-125 -35zM197 109q29 0 46.5 13.5t17.5 35.5q0 21 -17.5 34t-46.5 13
q-28 0 -45.5 -13t-17.5 -34q0 -22 17.5 -35.5t45.5 -13.5zM197 -78q37 0 57.5 15.5t20.5 42.5t-21.5 43.5t-56.5 16.5t-56.5 -16.5t-21.5 -43.5t21 -42.5t57 -15.5z" />
    <glyph glyph-name="nine.subs" horiz-adv-x="392" 
d="M189 279q82 0 129.5 -54t47.5 -151q0 -233 -170 -233q-59 0 -99 28t-55 79l86 27q15 -54 68 -54q34 0 55 26.5t22 74.5h-1q-28 -30 -90 -30q-68 0 -111.5 39t-43.5 101q0 65 44.5 106t117.5 41zM119 133q0 -30 19.5 -47.5t52.5 -17.5q34 0 53.5 17t19.5 48q0 30 -20.5 48
t-52.5 18q-34 0 -53 -17.5t-19 -48.5z" />
    <glyph glyph-name="zero.dnom" horiz-adv-x="419" 
d="M209 -9q-84 0 -133 59.5t-49 159.5t49 159.5t133 59.5t133.5 -59.5t49.5 -159.5t-49.5 -159.5t-133.5 -59.5zM209 75q92 0 92 135t-92 135q-91 0 -91 -135t91 -135z" />
    <glyph glyph-name="one.dnom" horiz-adv-x="283" 
d="M125 0v325l-103 -60v92l109 63h86v-420h-92z" />
    <glyph glyph-name="two.dnom" horiz-adv-x="374" 
d="M139 113q-10 -10 -11 -29h216v-84h-313v62q0 59 26 89q27 34 108 68q54 24 72 40t18 40q0 22 -17 35.5t-45 13.5q-34 0 -54 -19.5t-22 -55.5l-90 6q3 69 48 109.5t118 40.5q68 0 111 -36.5t43 -93.5q0 -47 -28 -79t-96 -62q-71 -31 -84 -45z" />
    <glyph glyph-name="three.dnom" horiz-adv-x="372" 
d="M193 -9q-72 0 -117.5 39.5t-53.5 109.5l88 17q12 -84 83 -84q29 0 45.5 14.5t16.5 39.5q0 53 -65 53h-42v73h35q61 0 61 46q0 22 -16 35t-42 13q-59 0 -70 -59l-89 15q9 57 52 91.5t107 34.5t105.5 -34t41.5 -87t-49 -83v-1q62 -33 62 -103q0 -56 -42.5 -93t-110.5 -37z
" />
    <glyph glyph-name="four.dnom" horiz-adv-x="389" 
d="M233 0v68h-223v85l167 267h148v-268h53v-84h-53v-68h-92zM104 152h129v206h-1z" />
    <glyph glyph-name="five.dnom" horiz-adv-x="390" 
d="M197 -9q-61 0 -107 30t-63 82l83 34q23 -62 85 -62q33 0 54.5 19t21.5 49q0 31 -21 50t-54 19q-46 0 -78 -35l-81 24l39 219h242v-83h-175l-12 -72l1 -1q36 21 79 21q66 0 109 -40t43 -102q0 -64 -46.5 -108t-119.5 -44z" />
    <glyph glyph-name="six.dnom" horiz-adv-x="399" 
d="M224 280q66 0 107 -39t41 -102q0 -66 -44 -107t-115 -41q-88 0 -137 57.5t-49 160.5q0 98 50.5 159t131.5 61q58 0 97 -27t54 -78l-85 -25q-16 47 -66 47q-37 0 -60 -27t-25 -76h2q37 37 98 37zM209 74q33 0 52.5 18t19.5 49q0 30 -19 47.5t-51 17.5t-52.5 -18t-20.5 -48
t19 -48t52 -18z" />
    <glyph glyph-name="seven.dnom" horiz-adv-x="308" 
d="M40 0l158 334v1h-198v85h303v-77l-158 -343h-105z" />
    <glyph glyph-name="eight.dnom" horiz-adv-x="395" 
d="M197 -9q-78 0 -124 35t-46 94q0 37 20.5 66t55.5 43v1q-54 26 -54 86q0 50 41 81.5t107 31.5t107.5 -31.5t41.5 -81.5q0 -60 -54 -86v-1q35 -15 55.5 -43.5t20.5 -65.5q0 -59 -46 -94t-125 -35zM197 259q29 0 46.5 13.5t17.5 35.5q0 21 -17.5 34t-46.5 13
q-28 0 -45.5 -13t-17.5 -34q0 -22 17.5 -35.5t45.5 -13.5zM197 72q37 0 57.5 15.5t20.5 42.5t-21.5 43.5t-56.5 16.5t-56.5 -16.5t-21.5 -43.5t21 -42.5t57 -15.5z" />
    <glyph glyph-name="nine.dnom" horiz-adv-x="392" 
d="M189 429q82 0 129.5 -54t47.5 -151q0 -233 -170 -233q-59 0 -99 28t-55 79l86 27q15 -54 68 -54q34 0 55 26.5t22 74.5h-1q-28 -30 -90 -30q-68 0 -111.5 39t-43.5 101q0 65 44.5 106t117.5 41zM119 283q0 -30 19.5 -47.5t52.5 -17.5q34 0 53.5 17t19.5 48q0 30 -20.5 48
t-52.5 18q-34 0 -53 -17.5t-19 -48.5z" />
    <glyph glyph-name="zero.numr" horiz-adv-x="419" 
d="M209 271q-84 0 -133 59.5t-49 159.5t49 159.5t133 59.5t133.5 -59.5t49.5 -159.5t-49.5 -159.5t-133.5 -59.5zM209 355q92 0 92 135t-92 135q-91 0 -91 -135t91 -135z" />
    <glyph glyph-name="one.numr" horiz-adv-x="283" 
d="M125 280v325l-103 -60v92l109 63h86v-420h-92z" />
    <glyph glyph-name="two.numr" horiz-adv-x="374" 
d="M139 393q-10 -10 -11 -29h216v-84h-313v62q0 59 26 89q27 34 108 68q54 24 72 40t18 40q0 22 -17 35.5t-45 13.5q-34 0 -54 -19.5t-22 -55.5l-90 6q3 69 48 109.5t118 40.5q68 0 111 -36.5t43 -93.5q0 -47 -28 -79t-96 -62q-71 -31 -84 -45z" />
    <glyph glyph-name="three.numr" horiz-adv-x="372" 
d="M193 271q-72 0 -117.5 39.5t-53.5 109.5l88 17q12 -84 83 -84q29 0 45.5 14.5t16.5 39.5q0 53 -65 53h-42v73h35q61 0 61 46q0 22 -16 35t-42 13q-59 0 -70 -59l-89 15q9 57 52 91.5t107 34.5t105.5 -34t41.5 -87t-49 -83v-1q62 -33 62 -103q0 -56 -42.5 -93t-110.5 -37z
" />
    <glyph glyph-name="four.numr" horiz-adv-x="389" 
d="M233 280v68h-223v85l167 267h148v-268h53v-84h-53v-68h-92zM104 432h129v206h-1z" />
    <glyph glyph-name="five.numr" horiz-adv-x="390" 
d="M197 271q-61 0 -107 30t-63 82l83 34q23 -62 85 -62q33 0 54.5 19t21.5 49q0 31 -21 50t-54 19q-46 0 -78 -35l-81 24l39 219h242v-83h-175l-12 -72l1 -1q36 21 79 21q66 0 109 -40t43 -102q0 -64 -46.5 -108t-119.5 -44z" />
    <glyph glyph-name="six.numr" horiz-adv-x="399" 
d="M224 560q66 0 107 -39t41 -102q0 -66 -44 -107t-115 -41q-88 0 -137 57.5t-49 160.5q0 98 50.5 159t131.5 61q58 0 97 -27t54 -78l-85 -25q-16 47 -66 47q-37 0 -60 -27t-25 -76h2q37 37 98 37zM209 354q33 0 52.5 18t19.5 49q0 30 -19 47.5t-51 17.5t-52.5 -18
t-20.5 -48t19 -48t52 -18z" />
    <glyph glyph-name="seven.numr" horiz-adv-x="308" 
d="M40 280l158 334v1h-198v85h303v-77l-158 -343h-105z" />
    <glyph glyph-name="eight.numr" horiz-adv-x="395" 
d="M197 271q-78 0 -124 35t-46 94q0 37 20.5 66t55.5 43v1q-54 26 -54 86q0 50 41 81.5t107 31.5t107.5 -31.5t41.5 -81.5q0 -60 -54 -86v-1q35 -15 55.5 -43.5t20.5 -65.5q0 -59 -46 -94t-125 -35zM197 539q29 0 46.5 13.5t17.5 35.5q0 21 -17.5 34t-46.5 13
q-28 0 -45.5 -13t-17.5 -34q0 -22 17.5 -35.5t45.5 -13.5zM197 352q37 0 57.5 15.5t20.5 42.5t-21.5 43.5t-56.5 16.5t-56.5 -16.5t-21.5 -43.5t21 -42.5t57 -15.5z" />
    <glyph glyph-name="nine.numr" horiz-adv-x="392" 
d="M189 709q82 0 129.5 -54t47.5 -151q0 -233 -170 -233q-59 0 -99 28t-55 79l86 27q15 -54 68 -54q34 0 55 26.5t22 74.5h-1q-28 -30 -90 -30q-68 0 -111.5 39t-43.5 101q0 65 44.5 106t117.5 41zM119 563q0 -30 19.5 -47.5t52.5 -17.5q34 0 53.5 17t19.5 48q0 30 -20.5 48
t-52.5 18q-34 0 -53 -17.5t-19 -48.5z" />
    <glyph glyph-name="zero.sups" horiz-adv-x="419" 
d="M209 371q-84 0 -133 59.5t-49 159.5t49 159.5t133 59.5t133.5 -59.5t49.5 -159.5t-49.5 -159.5t-133.5 -59.5zM209 455q92 0 92 135t-92 135q-91 0 -91 -135t91 -135z" />
    <glyph glyph-name="one.sups" horiz-adv-x="283" 
d="M125 380v325l-103 -60v92l109 63h86v-420h-92z" />
    <glyph glyph-name="two.sups" horiz-adv-x="374" 
d="M139 493q-10 -10 -11 -29h216v-84h-313v62q0 59 26 89q27 34 108 68q54 24 72 40t18 40q0 22 -17 35.5t-45 13.5q-34 0 -54 -19.5t-22 -55.5l-90 6q3 69 48 109.5t118 40.5q68 0 111 -36.5t43 -93.5q0 -47 -28 -79t-96 -62q-71 -31 -84 -45z" />
    <glyph glyph-name="three.sups" horiz-adv-x="372" 
d="M193 371q-72 0 -117.5 39.5t-53.5 109.5l88 17q12 -84 83 -84q29 0 45.5 14.5t16.5 39.5q0 53 -65 53h-42v73h35q61 0 61 46q0 22 -16 35t-42 13q-59 0 -70 -59l-89 15q9 57 52 91.5t107 34.5t105.5 -34t41.5 -87t-49 -83v-1q62 -33 62 -103q0 -56 -42.5 -93t-110.5 -37z
" />
    <glyph glyph-name="four.sups" horiz-adv-x="389" 
d="M233 380v68h-223v85l167 267h148v-268h53v-84h-53v-68h-92zM104 532h129v206h-1z" />
    <glyph glyph-name="five.sups" horiz-adv-x="390" 
d="M197 371q-61 0 -107 30t-63 82l83 34q23 -62 85 -62q33 0 54.5 19t21.5 49q0 31 -21 50t-54 19q-46 0 -78 -35l-81 24l39 219h242v-83h-175l-12 -72l1 -1q36 21 79 21q66 0 109 -40t43 -102q0 -64 -46.5 -108t-119.5 -44z" />
    <glyph glyph-name="six.sups" horiz-adv-x="399" 
d="M224 660q66 0 107 -39t41 -102q0 -66 -44 -107t-115 -41q-88 0 -137 57.5t-49 160.5q0 98 50.5 159t131.5 61q58 0 97 -27t54 -78l-85 -25q-16 47 -66 47q-37 0 -60 -27t-25 -76h2q37 37 98 37zM209 454q33 0 52.5 18t19.5 49q0 30 -19 47.5t-51 17.5t-52.5 -18
t-20.5 -48t19 -48t52 -18z" />
    <glyph glyph-name="seven.sups" horiz-adv-x="308" 
d="M40 380l158 334v1h-198v85h303v-77l-158 -343h-105z" />
    <glyph glyph-name="eight.sups" horiz-adv-x="395" 
d="M197 371q-78 0 -124 35t-46 94q0 37 20.5 66t55.5 43v1q-54 26 -54 86q0 50 41 81.5t107 31.5t107.5 -31.5t41.5 -81.5q0 -60 -54 -86v-1q35 -15 55.5 -43.5t20.5 -65.5q0 -59 -46 -94t-125 -35zM197 639q29 0 46.5 13.5t17.5 35.5q0 21 -17.5 34t-46.5 13
q-28 0 -45.5 -13t-17.5 -34q0 -22 17.5 -35.5t45.5 -13.5zM197 452q37 0 57.5 15.5t20.5 42.5t-21.5 43.5t-56.5 16.5t-56.5 -16.5t-21.5 -43.5t21 -42.5t57 -15.5z" />
    <glyph glyph-name="nine.sups" horiz-adv-x="392" 
d="M189 809q82 0 129.5 -54t47.5 -151q0 -233 -170 -233q-59 0 -99 28t-55 79l86 27q15 -54 68 -54q34 0 55 26.5t22 74.5h-1q-28 -30 -90 -30q-68 0 -111.5 39t-43.5 101q0 65 44.5 106t117.5 41zM119 663q0 -30 19.5 -47.5t52.5 -17.5q34 0 53.5 17t19.5 48q0 30 -20.5 48
t-52.5 18q-34 0 -53 -17.5t-19 -48.5z" />
    <glyph glyph-name="braceleft.case" horiz-adv-x="377" 
d="M286 -132q-80 0 -115.5 36t-35.5 117v187q0 34 -11.5 46.5t-42.5 12.5h-28v135h28q32 0 43 12.5t11 46.5v166q0 82 35.5 117.5t115.5 35.5h77v-107h-60q-34 0 -47.5 -17t-13.5 -59v-163q0 -45 -23 -72t-57 -27v-2q34 0 57 -26.5t23 -71.5v-183q0 -42 13.5 -59t47.5 -17
h60v-108h-77z" />
    <glyph glyph-name="braceright.case" horiz-adv-x="377" 
d="M91 -132h-77v108h60q34 0 47.5 17t13.5 59v183q0 45 23 71.5t57 26.5v2q-34 0 -57 27t-23 72v163q0 42 -13.5 59t-47.5 17h-60v107h77q80 0 115.5 -35.5t35.5 -117.5v-166q0 -34 11 -46.5t43 -12.5h28v-135h-28q-31 0 -42.5 -12.5t-11.5 -46.5v-187q0 -81 -35.5 -117
t-115.5 -36z" />
    <glyph glyph-name="bracketleft.case" horiz-adv-x="317" 
d="M75 -132v912h228v-102h-121v-707h121v-103h-228z" />
    <glyph glyph-name="bracketright.case" horiz-adv-x="317" 
d="M242 -132h-228v103h121v707h-121v102h228v-912z" />
    <glyph glyph-name="parenleft.case" horiz-adv-x="373" 
d="M285 -147q-202 223 -202 492t202 492l74 -58q-85 -107 -123.5 -209.5t-38.5 -224.5t38.5 -224.5t123.5 -209.5z" />
    <glyph glyph-name="parenright.case" horiz-adv-x="373" 
d="M88 -147l-74 58q85 107 123.5 209.5t38.5 224.5t-38.5 224.5t-123.5 209.5l74 58q202 -223 202 -492t-202 -492z" />
    <glyph glyph-name="emdash.case" horiz-adv-x="844" 
d="M43 303v112h757v-112h-757z" />
    <glyph glyph-name="endash.case" horiz-adv-x="557" 
d="M43 303v112h470v-112h-470z" />
    <glyph glyph-name="hyphen.case" horiz-adv-x="358" 
d="M43 304v111h271v-111h-271z" />
    <glyph glyph-name="uni00AD.case" horiz-adv-x="358" 
d="M43 304v111h271v-111h-271z" />
    <glyph glyph-name="guillemotleft.case" horiz-adv-x="516" 
d="M175 136l-112 191l112 191h107l-114 -191l114 -191h-107zM356 136l-112 191l112 191h107l-114 -191l114 -191h-107z" />
    <glyph glyph-name="guillemotright.case" horiz-adv-x="516" 
d="M160 136h-107l114 191l-114 191h107l112 -191zM341 136h-107l114 191l-114 191h107l112 -191z" />
    <glyph glyph-name="guilsinglleft.case" horiz-adv-x="335" 
d="M175 136l-112 191l112 191h107l-114 -191l114 -191h-107z" />
    <glyph glyph-name="guilsinglright.case" horiz-adv-x="335" 
d="M160 136h-107l114 191l-114 191h107l112 -191z" />
    <glyph glyph-name="uni0E3F.tf" 
d="M597 214q0 -209 -249 -214v-110h-60v110h-205v700h205v101h60v-101h16q91 0 149 -52t58 -134q0 -94 -75 -135v-2q47 -20 74 -63t27 -100zM208 587v-172h80v172h-80zM446 501q0 84 -98 86v-172q98 2 98 86zM208 113h80v200h-80v-200zM352 113q62 0 91 24.5t29 77.5
q0 98 -119 98h-5v-200h4z" />
    <glyph glyph-name="cent.tf" 
d="M367 96q94 14 111 105l113 -22q-14 -81 -74.5 -132.5t-149.5 -59.5v-97h-60v96q-111 9 -180 85t-69 194t69 194t180 85v87h60v-88q89 -8 149.5 -59.5t74.5 -132.5l-113 -22q-19 91 -111 105v-338zM175 265q0 -71 35.5 -116.5t96.5 -53.5v340q-61 -8 -96.5 -53.5
t-35.5 -116.5z" />
    <glyph glyph-name="currency.tf" 
d="M558 330q0 -84 -45 -148l68 -66l-44 -43l-65 65q-63 -52 -148 -52q-84 0 -148 51l-64 -64l-44 42l67 67q-45 62 -45 148q0 82 43 146l-65 66l44 43l62 -63q64 53 150 53t150 -54l64 64l43 -43l-66 -66q43 -64 43 -146zM325 196q53 0 83 35t30 98q0 64 -30 100t-83 36
q-55 0 -85 -35.5t-30 -100.5q0 -64 30 -98.5t85 -34.5z" />
    <glyph glyph-name="dollar.tf" 
d="M615 184q0 -86 -70.5 -141t-186.5 -58v-95h-60v97q-114 11 -182 72t-82 172l122 24q13 -73 47 -110t95 -46v216q-44 13 -70.5 22t-63 27t-56.5 38t-35 50.5t-15 68.5q0 84 67.5 137.5t172.5 56.5v86h60v-89q97 -11 158.5 -65t76.5 -137l-122 -25q-28 96 -113 114v-182
q57 -17 93 -31.5t78.5 -41.5t64 -67t21.5 -93zM180 523q0 -30 30 -50t88 -38v169q-53 -2 -85.5 -23.5t-32.5 -57.5zM358 96q65 2 99.5 25t34.5 62q0 42 -34.5 67t-99.5 46v-200z" />
    <glyph glyph-name="Euro.tf" 
d="M497 266l121 -18q-11 -118 -81.5 -190.5t-174.5 -72.5q-100 0 -170 64t-96 177h-84v95h72q-1 10 -1 29q0 17 1 26h-72v95h84q25 114 95.5 179t170.5 65q101 0 170.5 -68t82.5 -180l-120 -19q-13 73 -47 112.5t-86 39.5q-107 0 -144 -129h184v-95h-198q-1 -8 -1 -26
q0 -20 1 -29h141v-95h-126q37 -126 143 -126q54 0 88.5 42.5t46.5 123.5z" />
    <glyph glyph-name="florin.tf" 
d="M483 619q-25 0 -37.5 -10.5t-16.5 -35.5l-8 -43h130v-108h-149l-85 -481q-24 -133 -167 -133h-68v109h65q25 0 37.5 10t16.5 35l7 43h1l73 417h-114v108h133l11 65q23 132 168 132h88v-108h-85z" />
    <glyph glyph-name="lira.tf" 
d="M469 365h125q0 -165 -83.5 -265t-220.5 -100h-125v307l-77 -28l-32 87l109 40v62l-77 -28l-32 87l109 40v133h125v-88l137 50l32 -86l-169 -62v-62l137 50l32 -87l-169 -62v-238q83 0 131 67t48 183z" />
    <glyph glyph-name="uni20BD.tf" 
d="M228 251v-65h164v-85h-164v-101h-125v101h-70v85h70v65h-70v86h70v363h264q111 0 175.5 -60.5t64.5 -164.5q0 -106 -64 -165t-177 -59h-138zM228 585v-219h136q56 0 87 28.5t31 80.5q0 110 -118 110h-136z" />
    <glyph glyph-name="uni20A8.tf" 
d="M561 617h-122v-2q40 -37 51 -92h71v-83h-69q-10 -63 -48.5 -106.5t-100.5 -60.5v-2l147 -271h-137l-139 260h-126v115h156q97 0 119 65h-275v83h275q-21 62 -119 62h-156v115h473v-83z" />
    <glyph glyph-name="sterling.tf" 
d="M283 118v-2h288v-116h-512v116h46q47 0 75 27t28 71q0 35 -20 73h-129v102h64q-46 65 -46 126q0 91 67 145.5t180 54.5t184.5 -55.5t82.5 -150.5l-123 -20q-16 111 -142 111q-55 0 -87.5 -24.5t-32.5 -66.5q0 -44 51 -120h214v-102h-163q14 -33 14 -65q0 -65 -39 -104z
" />
    <glyph glyph-name="uni20A9.tf" 
d="M648 472h-50l-8 -62h58v-82h-69l-42 -328h-118l-83 328h-22l-84 -328h-117l-43 328h-68v82h58l-8 62h-50v82h39l-19 146h115l16 -146h344l16 146h114l-19 -146h40v-82zM161 472l7 -62h80l15 62h-102zM482 410l7 62h-102l15 -62h80zM193 192l34 136h-50l14 -136h2z
M459 192l14 136h-50l34 -136h2z" />
    <glyph glyph-name="yen.tf" 
d="M628 700l-204 -353h159v-95h-195v-55h195v-95h-195v-102h-126v102h-194v95h194v55h-194v95h158l-204 353h136l166 -307h2l166 307h136z" />
    <glyph glyph-name="plus.tf" 
d="M572 414v-98h-195v-211h-104v211h-197v98h197v210h104v-210h195z" />
    <glyph glyph-name="minus.tf" 
d="M101 316v98h446v-98h-446z" />
    <glyph glyph-name="multiply.tf" 
d="M169 114l-70 68l160 158l-160 158l70 67l156 -159l158 159l68 -67l-159 -158l159 -158l-68 -68l-158 159z" />
    <glyph glyph-name="divide.tf" 
d="M324 488q-37 0 -62.5 25.5t-25.5 62.5t25.5 62.5t62.5 25.5q38 0 63 -25t25 -63q0 -37 -25.5 -62.5t-62.5 -25.5zM101 316v98h446v-98h-446zM324 62q-37 0 -62.5 25t-25.5 62t25.5 63t62.5 26t62.5 -25.5t25.5 -63.5q0 -37 -25.5 -62t-62.5 -25z" />
    <glyph glyph-name="equal.tf" 
d="M97 397v100h455v-100h-455zM97 203v100h455v-100h-455z" />
    <glyph glyph-name="notequal.tf" 
d="M552 397h-161l-53 -94h214v-100h-270l-66 -117l-59 35l46 82h-106v100h162l53 94h-215v100h272l65 116l59 -35l-46 -81h105v-100z" />
    <glyph glyph-name="greater.tf" 
d="M158 78l-57 90l311 183l-311 183l57 89l389 -234v-77z" />
    <glyph glyph-name="less.tf" 
d="M490 78l-389 234v77l389 234l57 -89l-311 -183l311 -183z" />
    <glyph glyph-name="greaterequal.tf" 
d="M158 134l-53 84l314 187l-314 186l53 85l389 -234v-74zM101 0v102h446v-102h-446z" />
    <glyph glyph-name="lessequal.tf" 
d="M490 134l-389 234v74l389 234l53 -85l-314 -186l314 -187zM547 0h-446v102h446v-102z" />
    <glyph glyph-name="plusminus.tf" 
d="M273 212v184h-197v98h197v184h104v-184h195v-98h-195v-184h-104zM77 153h496v-101h-496v101z" />
    <glyph glyph-name="approxequal.tf" 
d="M154 372l-106 37q42 152 171 152q39 0 80 -19t74.5 -38t54.5 -19q43 0 66 76l106 -38q-42 -151 -170 -151q-39 0 -80.5 19t-75 37.5t-53.5 18.5q-44 0 -67 -75zM154 150l-106 37q42 152 171 152q39 0 80 -19t74.5 -38t54.5 -19q43 0 66 76l106 -38q-42 -151 -170 -151
q-39 0 -80.5 19t-75 37.5t-53.5 18.5q-44 0 -67 -75z" />
    <glyph glyph-name="percent.tf" 
d="M202 441q-86 0 -135.5 59t-49.5 160t49.5 160t135.5 59q87 0 136.5 -59t49.5 -160t-49.5 -160t-136.5 -59zM202 534q85 0 85 126t-85 126q-84 0 -84 -126t84 -126zM131 181l-51 88l423 245l52 -89zM448 -179q-87 0 -136.5 59t-49.5 160t49.5 160t136.5 59q86 0 135.5 -59
t49.5 -160t-49.5 -160t-135.5 -59zM448 -86q85 0 85 126t-85 126t-85 -126t85 -126z" />
    <glyph glyph-name="perthousand.tf" 
d="M208 478q-86 0 -135.5 59t-49.5 160t49.5 160t135.5 59q87 0 136.5 -59t49.5 -160t-49.5 -160t-136.5 -59zM208 571q85 0 85 126t-85 126q-84 0 -84 -126t84 -126zM74 253l-33 89l466 169l33 -89zM193 -226q-86 0 -135.5 59t-49.5 160t49.5 160t135.5 59q57 0 93 -29
q40 129 170 129q87 0 136.5 -59t49.5 -160t-49.5 -160t-136.5 -59q-57 0 -92 30q-40 -130 -171 -130zM454 -33q87 0 87 126t-87 126q-85 0 -85 -126t85 -126zM195 -133q86 0 86 126t-86 126t-86 -126t86 -126z" />
    <glyph glyph-name="at.case" horiz-adv-x="793" 
d="M395 -15q-159 0 -250.5 97.5t-91.5 268.5q0 157 98.5 260.5t247.5 103.5q153 0 247 -96.5t94 -250.5q0 -223 -147 -223q-73 0 -98 48h-2q-40 -49 -116 -49q-60 0 -96 30.5t-36 83.5q0 48 28 76.5t91 45.5q55 15 72.5 25.5t17.5 29.5q0 15 -13.5 25t-34.5 10
q-60 0 -72 -63l-88 18q11 60 53.5 94t106.5 34t104 -38.5t40 -106.5v-123q0 -35 10.5 -49t35.5 -14q60 0 60 146q0 123 -69.5 196.5t-187.5 73.5q-113 0 -187.5 -81.5t-74.5 -205.5q0 -138 67.5 -213.5t190.5 -75.5q93 0 176 41l31 -72q-93 -46 -207 -46zM387 227
q30 0 49 16t19 41v64h-2q-5 -15 -68 -36q-44 -15 -44 -46q0 -39 46 -39z" />
    <glyph glyph-name="slashshortcomb_alt" horiz-adv-x="0" 
d="M0 401l-200 -185v24l-131 -121l-43 46l174 161v-23l157 145z" />
    <glyph glyph-name="slashlongcomb_alt" horiz-adv-x="0" 
d="M0 437l-264 -243v18l-145 -133l-43 47l214 197v-11l191 177z" />
    <glyph glyph-name="uni0307.alt" horiz-adv-x="0" 
d="M-126 620v121h126v-121h-126z" />
    <glyph glyph-name="uni0335.alt" horiz-adv-x="0" 
d="M-338 315v84h338v-84h-338z" />
    </font>
</defs>
</svg>
